<?xml version="1.0" encoding="utf-8"?>
<!-- Generator: Adobe Illustrator 24.3.0, SVG Export Plug-In . SVG Version: 6.00 Build 0)  -->
<svg version="1.1" id="Layer_1" xmlns="http://www.w3.org/2000/svg" xmlns:xlink="http://www.w3.org/1999/xlink" x="0px" y="0px"
	 viewBox="0 0 256 256" style="enable-background:new 0 0 256 256;" xml:space="preserve">
<style type="text/css">
	.st0{fill:#FB9900;}
	.st1{fill:#253582;}
</style>
<g>
	<path class="st1" d="M128,244.6c-64.3,0-116.6-52.3-116.6-116.6C11.4,63.7,63.7,11.4,128,11.4S244.6,63.7,244.6,128
		C244.6,192.3,192.3,244.6,128,244.6z M128,14.2c-62.7,0-113.8,51-113.8,113.8c0,62.7,51,113.8,113.8,113.8s113.8-51,113.8-113.8
		C241.8,65.3,190.7,14.2,128,14.2z"/>
</g>
<path class="st1" d="M203.1,152.5c-7.3,2.8-14,5.5-20.8,8.1c-17.2,6.7-34.4,13.4-51.7,20c-1.6,0.6-3.7,0.6-5.3,0
	c-20.3-7.8-40.5-15.7-60.8-23.5c-1-0.4-2-0.7-3.3-1.2c0,7.3-0.8,14.3,0.3,21c0.5,3.1,1.5,6.2,1.6,9.4c0.1,2.2-1,2.9-3.1,2.9
	c-2.2,0-3.2-0.9-2.9-3c0.4-2.9-1.3-6.1,1.7-8.5c0.4-0.3,0.2-1.5,0.2-2.3c0-5.5-0.2-11,0.1-16.5c0.2-3.1-0.7-4.9-3.8-5.4
	c-0.6-0.1-1.2-0.5-2.3-1.1c7.6-3,14.7-5.8,21.8-8.6c15.9-6.3,31.8-12.6,47.8-18.8c1.9-0.7,2.2-1.9,2.7-3.6c1.2-4.8-0.5-8-3.8-11.4
	c-7.1-7.2-13.7-14.9-20.3-22.8c4.6,1.4,9.1,2.9,13.7,4.3c7,2.2,14.1,4.4,21.1,6.7c1.9,0.6,3.3,0.3,5-0.6c7.3-4.3,14.7-8.5,22.5-12.4
	c-11.6,19.5-23.3,39-34.9,58.5c0.2,0.2,0.3,0.3,0.5,0.5c0.8-0.7,1.5-1.3,2.3-2c2.7-2.4,5.8-4.6,8.1-7.3c3.8-4.6,7.5-4.7,12.9-2.4
	c15.9,6.7,32.2,12.7,48.3,19C201.2,151.6,201.8,151.9,203.1,152.5z"/>
<path class="st1" d="M172.3,168.8c0.2,0.5,0.3,0.6,0.3,0.7c0.5,9.5,0.5,9.4-8.2,12.8c-11.3,4.4-22.5,8.8-33.8,13.1
	c-1.5,0.6-3.5,0.6-5,0.1c-13.2-5-26.4-10.2-39.6-15.2c-2.1-0.8-2.9-1.9-2.7-4.1c0.2-2.3,0-4.7,0-7.5c6,2.3,11.6,4.4,17.1,6.6
	c8.3,3.2,16.6,6.6,25,9.7c1.5,0.5,3.5,0.6,5,0c12.9-4.8,25.7-9.9,38.5-14.9C170,169.6,171.1,169.3,172.3,168.8z"/>
<path class="st1" d="M145.5,84.5c0.1,4.3-3.7,8.1-8,8.2c-4.1,0.1-7.9-3.6-8.1-7.8c-0.1-4.3,3.6-8.3,7.9-8.3
	C141.5,76.5,145.4,80.2,145.5,84.5z"/>
<polygon class="st0" points="176.3,60.1 179.9,70.9 191.2,70.9 182,77.6 185.5,88.4 176.3,81.7 167.2,88.4 170.7,77.6 161.5,70.9 
	172.8,70.9 "/>
</svg>
