<?xml version="1.0" encoding="utf-8"?>
<!-- Generator: Adobe Illustrator 24.3.0, SVG Export Plug-In . SVG Version: 6.00 Build 0)  -->
<svg version="1.1" id="Layer_1" xmlns="http://www.w3.org/2000/svg" xmlns:xlink="http://www.w3.org/1999/xlink" x="0px" y="0px"
	 viewBox="0 0 256 256" style="enable-background:new 0 0 256 256;" xml:space="preserve">
<style type="text/css">
	.st0{fill:#FB9900;}
	.st1{fill:#253582;}
</style>
<g>
	<path class="st1" d="M128,244.6c-64.3,0-116.6-52.3-116.6-116.6C11.4,63.7,63.7,11.4,128,11.4S244.6,63.7,244.6,128
		C244.6,192.3,192.3,244.6,128,244.6z M128,14.2c-62.7,0-113.8,51-113.8,113.8c0,62.7,51,113.8,113.8,113.8s113.8-51,113.8-113.8
		C241.8,65.3,190.7,14.2,128,14.2z"/>
</g>
<g>
	<path class="st0" d="M87.3,120c-4,0.4-7.9,4-8.3,8c-0.4,3.4-0.2,6.9-0.3,10.4c0,2.5-0.9,3.8-2.7,3.8c-1.9,0-2.8-1.3-2.8-3.8
		c0-3.2-0.2-6.5,0.1-9.7c0.6-6.6,4.3-11.1,10.5-13.5c0.2-0.1,0.4-0.2,0.8-0.3c-5.1-7.2-11.8-11.2-20.6-11.5
		c-9.4-0.3-16.7,3.8-22.2,11.5c3.8,1.3,6.7,3.4,8.8,6.6c1.7,2.6,2.5,5.4,2.6,8.5c0,3,0,6,0,9.1c0,1.9-1.1,3.2-2.8,3.2
		c-1.7,0-2.8-1.3-2.8-3.2c0-3.1,0-6.1,0-9.2c0-4.4-3.1-8.4-7.3-9.6c-0.8-0.2-1.2-0.1-1.3,0.7c-0.4,2.8-1,5.6-1.2,8.4
		c-0.2,3.3,0,6.7-0.1,10c0,1.5-0.8,2.5-2.2,2.8c-1.3,0.3-2.3-0.2-3-1.3c-0.2-0.4-0.4-0.8-0.4-1.2c0-4.8-0.2-9.6,0.2-14.4
		c1.3-13.6,11.9-24.8,25.5-27.1c15.7-2.7,30.8,6.6,35.2,21.9c0.7,2.3,1,4.8,1.2,7.2c0.2,4,0.1,8,0.1,12c0,1.8-1.1,3-2.7,3
		c-1.6,0-2.8-1.2-2.8-3c-0.1-4.3,0-8.5-0.2-12.8C88.4,124.2,87.7,122.1,87.3,120z"/>
	<path class="st0" d="M214.2,114.9c-5.4-7.6-12.7-11.7-21.9-11.5c-8.9,0.2-15.8,4.2-20.8,11.4c1.6,0.9,3.3,1.6,4.7,2.6
		c4.2,3,6.4,7.3,6.5,12.5c0.1,3.1,0,6.1,0,9.2c0,2-1.1,3.2-2.8,3.2c-1.7,0-2.8-1.2-2.8-3.2c-0.1-3.6,0.1-7.2-0.3-10.8
		c-0.4-4.1-3.9-7.4-8.1-8.2c-1.2,2.8-1.6,5.7-1.6,8.7c-0.1,3.6,0,7.1,0,10.7c0,1.3-0.6,2.2-1.8,2.7c-1.1,0.4-2.2,0.2-3-0.8
		c-0.3-0.4-0.6-1-0.6-1.6c0-5.1-0.2-10.2,0.3-15.3c1.6-13.5,12.6-24.4,26.1-26.3c15.6-2.2,30,6.9,34.4,22c0.8,2.7,1.1,5.7,1.3,8.5
		c0.2,3.5,0.1,7,0,10.5c0,1.9-1.2,3.2-2.8,3.2c-1.6,0-2.7-1.3-2.7-3.1c0-3.9,0.1-7.8-0.1-11.7c-0.1-2.4-0.8-4.9-1.2-7.3
		c-4.7,0.5-8.6,4.9-8.6,9.5c0,3.2,0,6.3,0,9.5c0,1.8-1.1,3.1-2.7,3.2c-1.7,0-2.9-1.2-2.8-3.1c0-3.7-0.2-7.5,0.2-11.2
		c0.7-6.2,4.4-10.4,10.2-12.7C213.5,115.1,213.8,115.1,214.2,114.9z"/>
	<path class="st0" d="M151.8,194.1c-4.8,1-8.2,4.5-8.4,9.1c-0.2,3.4-0.1,6.8-0.2,10.2c0,1.9-1.4,3.1-3.2,2.9
		c-1.2-0.2-2.2-1.1-2.3-2.3c0-4.2-0.3-8.4,0.2-12.5c0.8-6,4.5-10,10.1-12.2c0.3-0.1,0.6-0.2,1-0.4c-5.5-7.7-12.7-11.7-22.1-11.5
		c-8.8,0.2-15.6,4.3-20.7,11.5c2.9,1,5.4,2.5,7.3,4.7c2.6,3,4,6.4,4,10.4c0,3.1,0,6.1,0,9.2c0,1.9-1.1,3.1-2.8,3
		c-1.6,0-2.8-1.2-2.8-3.1c0-3.3,0-6.6,0-9.9c-0.1-4.5-3.8-8.5-8.3-9.2c-1.1,2.7-1.5,5.6-1.6,8.5c0,3.5,0,6.9,0,10.4
		c0,2-1.1,3.2-2.8,3.2c-1.7,0-2.8-1.2-2.8-3.2c0.1-5.2-0.3-10.5,0.6-15.5c2.2-12.4,9.6-20.8,21.6-24.4c17.8-5.4,35.6,5.5,39.4,23.8
		c0.4,2,0.5,4,0.6,6.1c0.1,3.4,0,6.7,0,10.1c0,1.9-1,3.1-2.7,3.1c-1.7,0-2.8-1.1-2.8-3.1c-0.1-4.3,0-8.7-0.2-13
		C152.9,198.1,152.2,196.2,151.8,194.1z"/>
	<path class="st0" d="M127.7,131.2c9.4-0.3,18,7.4,18.1,17.6c0.1,10-7.9,18.1-17.8,18.1c-10.1,0-18.1-7.8-18.2-17.8
		C109.7,139,118.2,130.9,127.7,131.2z M115.7,149c0,6.8,5.5,12.3,12.2,12.3c6.5,0,12.1-5.6,12.1-12.2c0-6.8-5.4-12.3-12.2-12.4
		C121.1,136.7,115.7,142.2,115.7,149z"/>
	<path class="st0" d="M193,57.1c10,0,17.9,7.9,17.9,17.9c0,9.9-8,17.8-18.1,17.8c-9.9,0-18-8-18-17.8C174.9,65,182.9,57.1,193,57.1z
		 M193,62.7c-6.7,0-12.2,5.5-12.3,12.2c-0.1,6.7,5.5,12.4,12.2,12.4c6.6,0,12.2-5.6,12.2-12.3C205.1,68.2,199.7,62.7,193,62.7z"/>
	<path class="st0" d="M62.9,92.6C53,92.6,45,84.7,45,75c0-10.2,7.9-18.1,18.1-18.1c9.9,0,18,8.1,17.9,18C81,84.8,73,92.7,62.9,92.6z
		 M75.2,74.8c0-6.7-5.6-12.4-12.2-12.3c-6.7,0.1-12.3,5.7-12.2,12.4c0.1,6.7,5.7,12.2,12.3,12.2C69.7,87.1,75.2,81.5,75.2,74.8z"/>
	<path class="st1" d="M174.4,56c-0.6,0.7-1,1.6-1.7,2.2c-0.9,0.7-2,0.5-3-0.1c-2.5-1.5-5-3.1-7.6-4.4c-12.4-6.4-25.6-9-39.5-8.1
		c-13.1,0.9-25.1,5-36.1,12.3c-0.3,0.2-0.6,0.4-0.9,0.6c-1.5,1-3.1,0.7-4-0.6c-1-1.3-0.6-3.1,0.9-4c2.9-1.8,5.7-3.6,8.7-5.2
		c12.9-6.7,26.8-9.6,41.3-8.8c14.5,0.8,27.8,5.2,39.9,13.3C173.4,53.7,174.1,54.5,174.4,56z"/>
	<path class="st1" d="M93.7,188.5c0,2.1-2.3,3.4-4.2,2.3c-2.8-1.6-5.6-3.3-8.2-5.1c-12-8.6-21-19.7-27-33.1
		c-0.1-0.2-0.2-0.5-0.3-0.7c-0.6-1.6-0.1-3.2,1.3-3.8c1.5-0.7,3.1,0,3.8,1.7c4.6,10.6,11.3,19.7,20.1,27.3c3.9,3.4,8.1,6.3,12.6,8.8
		C92.9,186.3,93.7,187.1,93.7,188.5z"/>
	<path class="st1" d="M198.4,150.1c2.2,0,3.5,2.1,2.3,4.2c-2.5,4.5-5,9.1-8,13.3c-6.8,9.6-15.6,17.2-25.9,22.9
		c-1.2,0.7-2.4,1-3.6,0.1c-1.7-1.3-1.4-3.5,0.5-4.7c4.1-2.8,8.4-5.3,12.2-8.5c8.5-6.9,14.9-15.4,19.6-25.2
		C196.4,150.6,197,150.1,198.4,150.1z"/>
</g>
</svg>
