<svg id="Layer_1" data-name="Layer 1" xmlns="http://www.w3.org/2000/svg" viewBox="0 0 256 256"><defs><style>.cls-1{fill:#253582;}.cls-2{fill:#fb9900;}</style></defs><path class="cls-1" d="M128,244.56A116.56,116.56,0,1,1,244.56,128,116.69,116.69,0,0,1,128,244.56Zm0-230.32A113.76,113.76,0,1,0,241.76,128,113.89,113.89,0,0,0,128,14.24Z"/><path class="cls-2" d="M140.73,140.75c.89.33,1.9.14,2.24,1.28,0,.14.33.26.53.31,2.62.66,1.95.17,3,2.53.75,1.75,1.47,3.51,2.21,5.26.32.76.1,1.1-.74,1.1-5.19,0-10.38,0-15.57,0a6.07,6.07,0,0,1-2.07-.61,1.42,1.42,0,0,0-1.27,0,7.27,7.27,0,0,1-3.51.66c-4.67,0-9.34,0-14,0-1,0-1.21-.3-.82-1.21.91-2.18,1.84-4.35,2.74-6.54a1.09,1.09,0,0,1,.85-.75c.36-.07.7-.21,1.06-.28a1.53,1.53,0,0,0,1.28-.9c.34-.7,1.23-.5,2-.84v2.5a1.82,1.82,0,0,0,2,2l18.12,0a1.81,1.81,0,0,0,2-2Zm-25,2.93a1.4,1.4,0,0,0-1.5,1c-.63,1.64-1.35,3.25-2,4.87a3.4,3.4,0,0,0-.13.49h.8c4.16,0,8.32,0,12.49,0a7.26,7.26,0,0,0,3.51-.68,1.77,1.77,0,0,1,1.57,0,6.59,6.59,0,0,0,2.18.66c4.16.06,8.32,0,12.49,0h2.18c-.1-.27-.16-.46-.23-.64l-2-4.81c-.31-.77-.46-.87-1.41-.85.11.31.23.61.34.91.38,1,.78,1.91,1.12,2.88a1,1,0,0,1-.08.81,1,1,0,0,1-.81.09c-1.32-.31-2.61-.72-3.93-1a18.92,18.92,0,0,0-6.87-.41,5,5,0,0,0-3.24,1.6c-.34.41-.7.4-1.07,0a3.86,3.86,0,0,0-2.19-1.32,16.34,16.34,0,0,0-2.87-.37,27.57,27.57,0,0,0-8.63,1.46c-.37.11-.77.39-1.13,0s-.1-.75,0-1.12Z"/><path class="cls-2" d="M123.88,122.61c0,.4,0,.8,0,1.21s-.16.69-.58.69-.61-.29-.61-.68a11.28,11.28,0,0,1,0-1.93,1.23,1.23,0,0,1,.64-.83c2-.77,3.93-1.48,5.91-2.18a1.37,1.37,0,0,1,.87,0c1.94.69,3.87,1.39,5.79,2.14.25.09.57.43.57.64s-.34.53-.6.62c-1.43.53-1.44.51-1.46,2.05a17.83,17.83,0,0,1-1.1,5.31,3.75,3.75,0,0,1-3.72,2.6,3.83,3.83,0,0,1-3.65-2.55c-.34-.86-.35-1.87-.69-2.74a12.9,12.9,0,0,1-.46-3.9c0-.24-.47-.44-.73-.65Zm2.68,4.15a6.32,6.32,0,0,0,.85,3.14,2.73,2.73,0,0,0,3.55.83,4.42,4.42,0,0,0,1.76-4Zm-.51-3.62c0,.67,0,1.22,0,1.76a.66.66,0,0,0,.37.43,14.67,14.67,0,0,0,6.36,0c.16,0,.41-.22.42-.34,0-.59,0-1.19,0-1.86-1.11.33-2.11.64-3.12.91a2,2,0,0,1-.93,0C128.18,123.79,127.19,123.48,126.05,123.14Z"/><path class="cls-2" d="M142,120.69c-1,.06-2.08.14-3.12.18a2.47,2.47,0,0,1-1.92-.58,7,7,0,0,0-2.27-1,.69.69,0,0,1-.56-.83,8.85,8.85,0,0,0,0-1c0-.8,0-.83-1-.91,0,.41,0,.8,0,1.2s-.11.71-.55.73-.64-.29-.64-.71c0-.61,0-1.21,0-1.82a.89.89,0,0,1,.65-.91c2-.73,4-1.48,6-2.2a1.2,1.2,0,0,1,.75,0c1.94.7,3.88,1.4,5.8,2.15.27.1.45.43.68.66-.25.22-.46.56-.75.66-1.31.45-1.32.43-1.34,1.8a16.36,16.36,0,0,1-1.17,5.67,3.85,3.85,0,0,1-6.09,1.56c-.42-.34-.9-.69-.82-1.33a.7.7,0,0,1,.38-.47.65.65,0,0,1,.57.19c.93,1.19,2,1.62,3.27,1.08a3.76,3.76,0,0,0,1.41-1.16A5.26,5.26,0,0,0,142,120.69Zm.52-3.56c-1.06.32-2,.64-3,.9a2.33,2.33,0,0,1-1.05,0c-1-.26-2-.58-3.1-.89,0,.56,0,1.07,0,1.56a.55.55,0,0,0,.51.66,15,15,0,0,0,5.54.12c1.15-.2,1.14-.21,1.14-1.4Z"/><path class="cls-2" d="M117.24,120.64a5.83,5.83,0,0,0,1.1,3.5,2.45,2.45,0,0,0,2.51.85c.56-.15,1-.2,1.33.35a1.18,1.18,0,0,0,.27.22,3.64,3.64,0,0,1-4,.18,5,5,0,0,1-2.21-3.54c-.16-.8-.46-1.57-.58-2.38a11,11,0,0,1,0-2.29c0-.69-.24-1-1-1v1.12c0,.41-.07.81-.58.83s-.62-.36-.63-.78V116a.92.92,0,0,1,.66-1c2-.73,4-1.48,6-2.19a1.17,1.17,0,0,1,.76,0c1.94.69,3.87,1.39,5.8,2.14.26.1.44.44.66.67-.24.22-.43.53-.71.63-1.38.5-1.42.48-1.36,2a1,1,0,0,1-.78,1.11,5.09,5.09,0,0,0-2.61,1.32c-.1.12-.38.14-.57.13-1.13,0-2.26-.1-3.38-.16Zm6.72-3.51c-1,.29-1.9.54-2.79.85a2.32,2.32,0,0,1-1.58,0c-.91-.3-1.83-.55-2.81-.84,0,.65,0,1.2,0,1.74a.61.61,0,0,0,.35.44,14.11,14.11,0,0,0,6.43,0,.58.58,0,0,0,.36-.37C124,118.37,124,117.78,124,117.13Z"/><path class="cls-2" d="M129.63,134.59c.72-.6,1.38-1.13,2-1.69a.92.92,0,0,1,1.11-.15c1.23.57,2.48,1.08,3.71,1.64a13.29,13.29,0,0,1,1.43.79,3.29,3.29,0,0,1,1.67,3.19c-.11,1.55,0,3.11,0,4.67,0,.45,0,.93-.58,1s-.63-.44-.63-.89c0-1.7,0-3.4,0-5.1a1.51,1.51,0,0,0-.65-1.41,17.9,17.9,0,0,0-2-1.2c-.94-.46-1.92-.84-2.87-1.29a.67.67,0,0,0-.86.12c-.46.43-1.18.75-1.34,1.26s.24,1.18.42,1.78c.29,1,.58,1.93.91,2.89a.9.9,0,0,1-.21,1c-.5.53-1,1.08-1.48,1.61a.7.7,0,0,1-1.19,0,19.17,19.17,0,0,1-1.54-1.71,1.17,1.17,0,0,1-.14-.92c.39-1.4.84-2.79,1.3-4.17a.61.61,0,0,0-.22-.83,2.25,2.25,0,0,1-.55-.47,1.48,1.48,0,0,0-2.15-.31c-.75.43-1.59.71-2.37,1.08a13.1,13.1,0,0,0-1.33.72,2.09,2.09,0,0,0-1.11,2.05c.07,1.55,0,3.11,0,4.67,0,.14.06.32,0,.42s-.34.59-.57.64c-.39.09-.61-.24-.61-.64,0-2,0-4,0-5.94a2.42,2.42,0,0,1,1.14-1.85,7.88,7.88,0,0,1,1.48-.94c1.35-.64,2.73-1.21,4.08-1.84a1,1,0,0,1,1.21.19C128.31,133.51,129,134,129.63,134.59Z"/><path class="cls-2" d="M124.21,128.49c-1-.91-1.54-.25-2.26.29a1.23,1.23,0,0,0-.46,1.73,18.53,18.53,0,0,1,.75,2.36.59.59,0,0,1-.14.53c-.95.78-1.91,1.54-2.87,2.3l-.28.21a6.75,6.75,0,0,1-.8-.92,1.11,1.11,0,0,1-.07-.78c.41-1.42.86-2.82,1.32-4.22a.79.79,0,0,0-.23-.85,2.2,2.2,0,0,0-3.27-.49c-1,.61-2.08,1-3.09,1.52a2,2,0,0,0-1.15,2.09c.08,1.53,0,3.07,0,4.6v.43c0,.39-.17.69-.59.7s-.62-.29-.62-.72c0-1.94,0-3.88,0-5.82a1.92,1.92,0,0,1,.51-1.24,9.63,9.63,0,0,1,2.15-1.62c1.3-.68,2.69-1.2,4-1.83a1,1,0,0,1,1.25.21c.5.47,1,.88,1.56,1.34a.42.42,0,0,0,.67,0c.54-.49,1.11-.94,1.66-1.41a.81.81,0,0,1,1-.21c.41.21.9.29.88.92a5.78,5.78,0,0,0,.08.7Z"/><path class="cls-2" d="M140.51,135.79c-1.16-.83-2.21-1.57-3.23-2.34a.66.66,0,0,1-.21-.56c.27-1,.58-1.94.9-2.9a.62.62,0,0,0-.24-.83,1.5,1.5,0,0,1-.23-.2c-.7-.59-1.32-1.5-2.4-.53-.11-1.18,0-1.45.82-1.7a1.19,1.19,0,0,1,.92.14c.71.51,1.37,1.11,2.08,1.71.7-.59,1.35-1.16,2-1.69.21-.16.6-.32.79-.23q2.72,1.2,5.38,2.5a3.24,3.24,0,0,1,.89.72,2.61,2.61,0,0,1,.81,2c0,1.78,0,3.56,0,5.34,0,.44-.11.8-.59.81s-.62-.35-.62-.79c0-1.74,0-3.48,0-5.21a1.58,1.58,0,0,0-.65-1.42,9.89,9.89,0,0,0-1.47-.94c-1.13-.54-2.29-1-3.43-1.54a.62.62,0,0,0-.81.1c-.47.44-1.21.78-1.37,1.31s.25,1.22.44,1.83c.25.83.47,1.68.79,2.48a1.34,1.34,0,0,1-.41,1.72A1,1,0,0,0,140.51,135.79Z"/><path class="cls-2" d="M65.5,171.63a20.64,20.64,0,0,1-10.68.24,1.16,1.16,0,0,1-.69-.88,41,41,0,0,1,0-4.83c.21-2.56,1.24-3.42,3.79-3.42h3.92c1.93,0,2.89.63,3.18,2.55S65.36,169.45,65.5,171.63Z"/><path class="cls-2" d="M59.78,154.67a3.5,3.5,0,0,1,3.49,3.48,3.56,3.56,0,0,1-3.55,3.58,3.48,3.48,0,0,1-3.52-3.57A3.41,3.41,0,0,1,59.78,154.67Z"/><path class="cls-2" d="M202,93.82a20.68,20.68,0,0,1-10.75.23,1,1,0,0,1-.61-.67,47.72,47.72,0,0,1,.31-6.11c.27-1.74,1.23-2.31,3-2.32h4.58c1.85,0,2.82.63,3.09,2.47C201.91,89.53,201.9,91.67,202,93.82Z"/><path class="cls-2" d="M192.75,80.26a3.42,3.42,0,0,1,3.67-3.4,3.53,3.53,0,0,1-.25,7.06A3.45,3.45,0,0,1,192.75,80.26Z"/><path class="cls-2" d="M96.67,82.2a21.4,21.4,0,0,1-10.59.23,1.3,1.3,0,0,1-.78-.91,39,39,0,0,1,.06-4.84c.21-2.52,1.31-3.46,3.81-3.44H93c2,0,3,.65,3.3,2.61S96.54,80,96.67,82.2Z"/><path class="cls-2" d="M87.39,68.66a3.51,3.51,0,0,1,3.48-3.49,3.57,3.57,0,1,1,0,7.13A3.51,3.51,0,0,1,87.39,68.66Z"/><path class="cls-2" d="M186.09,180.61h1.83c2.42,0,3.45.8,3.71,3.22a37.58,37.58,0,0,1,.06,5.09,1.2,1.2,0,0,1-.75.82,20.4,20.4,0,0,1-9.7,0c-.29-.06-.74-.44-.74-.68a30.2,30.2,0,0,1,.13-5.47c.48-2.69,1.55-3.12,3.63-3C184.87,180.64,185.48,180.61,186.09,180.61Z"/><path class="cls-2" d="M186.05,172.52a3.53,3.53,0,1,1-3.49,3.48A3.49,3.49,0,0,1,186.05,172.52Z"/><path class="cls-2" d="M144.7,91.42a12.32,12.32,0,0,1-7.19,0c0-1.19-.06-2.33,0-3.45.12-1.64.79-2.2,2.42-2.21h2.36c1.48,0,2,.48,2.26,2a11.33,11.33,0,0,1,.12,1.43C144.72,89.9,144.7,90.63,144.7,91.42Z"/><path class="cls-2" d="M141,80.57a2.22,2.22,0,0,1,2.25,2.23,2.24,2.24,0,1,1-4.47,0A2.28,2.28,0,0,1,141,80.57Z"/><path class="cls-2" d="M185.38,137.28c.11-1.43.16-2.82.37-4.18a1.64,1.64,0,0,1,1.85-1.46q1.5,0,3,0a1.63,1.63,0,0,1,1.86,1.45,24.89,24.89,0,0,1,.22,3.76c0,.24-.44.62-.73.69A12.73,12.73,0,0,1,185.38,137.28Z"/><path class="cls-2" d="M189.08,126.45a2.28,2.28,0,1,1-2.24,2.4A2.37,2.37,0,0,1,189.08,126.45Z"/><path class="cls-1" d="M120,177.23a5,5,0,0,1,1.55,0c.57.18,1.41.53,1.5.94a25.38,25.38,0,0,1,.45,4.36c0,.17-.47.52-.74.53-1.89.05-3.8.06-5.69,0a1,1,0,0,1-.71-.69,16.26,16.26,0,0,1,0-3.12c.2-1.59.82-2.06,2.42-2.06Z"/><path class="cls-1" d="M119.83,172a2.29,2.29,0,0,1,2.3,2.2,2.24,2.24,0,0,1-2.15,2.31,2.27,2.27,0,0,1-2.38-2.23A2.35,2.35,0,0,1,119.83,172Z"/><path class="cls-2" d="M75.61,121.7c3.2,0,3.64.45,3.63,3.7,0,2.54.3,2.08-2.11,2.39a21.83,21.83,0,0,1-4.41-.2c-.25,0-.68-.39-.68-.59a26.85,26.85,0,0,1,.28-4,1.59,1.59,0,0,1,1.85-1.29C74.65,121.73,75.13,121.7,75.61,121.7Z"/><path class="cls-2" d="M77.91,118.78a2.38,2.38,0,0,1-2.24,2.28,2.34,2.34,0,0,1-2.33-2.32,2.29,2.29,0,0,1,4.57,0Z"/><path class="cls-1" d="M137.69,97.59c-.45,2.4-.91,4.76-1.36,7.12.82.16,1.63.36,2.43.59.45-2.4.92-4.81,1.38-7.24a11.71,11.71,0,0,0,8.38-2.82,10.9,10.9,0,0,0,3.87-8,11.36,11.36,0,0,0-21.83-4.94,11,11,0,0,0-.35,7.81A11.61,11.61,0,0,0,137.69,97.59Zm3.57-19.67a8.73,8.73,0,1,1-8.9,8.58A8.8,8.8,0,0,1,141.26,77.92Z"/><path class="cls-1" d="M190.15,143.65a11.37,11.37,0,1,0-7.24-20.84,11.59,11.59,0,0,0-5.21,8.68H160.13c.06.7.1,1.41.1,2.13h17.53C179,140.15,183.79,144.09,190.15,143.65Zm-1.06-20a8.62,8.62,0,0,1,8.7,8.58,8.7,8.7,0,1,1-17.39.27A8.6,8.6,0,0,1,189.09,123.65Z"/><path class="cls-1" d="M85.09,88.34a15.38,15.38,0,0,0,13.64-.93l15.1,21.84c.55-.37,1.11-.71,1.68-1L100.4,86.35c8-7.06,6.42-17,2-21.9A15.18,15.18,0,0,0,77.26,81,14.61,14.61,0,0,0,85.09,88.34ZM91,61.84A12.5,12.5,0,1,1,78.41,74.3,12.44,12.44,0,0,1,91,61.84Z"/><path class="cls-1" d="M209.08,78.14A15.15,15.15,0,0,0,190,72.41a14.73,14.73,0,0,0-7.7,7.84c-2,4.78-1.54,9.44.95,14l-29.12,21.58c.4.53.79,1.06,1.15,1.61l29.08-21.56c6.73,7.46,16.31,6.62,21.81,1.86A15.26,15.26,0,0,0,209.08,78.14ZM196.49,98.77A12.53,12.53,0,1,1,208.77,86.2,12.48,12.48,0,0,1,196.49,98.77Z"/><path class="cls-1" d="M72.8,133.13a11,11,0,0,0,13-6.42,1.42,1.42,0,0,1,1.92-1c4.54.87,9.08,1.69,13.62,2.52.13-.65.27-1.29.44-1.93L86.72,123.5a27.54,27.54,0,0,0-.18-2.85,11,11,0,0,0-21.87.67A11.14,11.14,0,0,0,72.8,133.13Zm2.9-19a8.39,8.39,0,1,1-8.45,8.28A8.42,8.42,0,0,1,75.7,114.08Z"/><path class="cls-1" d="M189,166.79c-5-1-9.39.44-13.3,3.73L154.08,152c-.4.52-.82,1-1.26,1.52l21.51,18.46c-5.79,7.77-3.56,16.87,2.11,21.44a15.17,15.17,0,0,0,21.46-21.23A14.57,14.57,0,0,0,189,166.79Zm-2.87,27.44a12.56,12.56,0,1,1,12.45-12.53A12.55,12.55,0,0,1,186.14,194.23Z"/><path class="cls-1" d="M123.85,167c.36-1.31.74-2.64,1.11-4-.65-.12-1.3-.26-1.93-.43-.25.93-.5,1.86-.73,2.79-.29,1.12-.76,1.37-1.87,1.32a11,11,0,0,0-3.53,21.55,11,11,0,0,0,12.37-4.85,10.85,10.85,0,0,0-1.33-13.19A37.21,37.21,0,0,0,123.85,167Zm-4.06,19a8.37,8.37,0,1,1,8.47-8.37A8.48,8.48,0,0,1,119.79,186.05Z"/><path class="cls-1" d="M75.39,158.24q14.06-6,28.09-12c-.27-.6-.52-1.2-.76-1.82L73.35,157c-.25-.39-.45-.67-.63-1a15.29,15.29,0,1,0,1.68,4.1C74.09,159,74.44,158.65,75.39,158.24ZM59.46,176.43a12.55,12.55,0,1,1,12.79-12.2A12.53,12.53,0,0,1,59.46,176.43Z"/><path class="cls-1" d="M130.18,165.44a31.94,31.94,0,1,1,31.94-31.94A32,32,0,0,1,130.18,165.44Zm0-61.16A29.22,29.22,0,1,0,159.4,133.5,29.26,29.26,0,0,0,130.18,104.28Z"/></svg>