<?xml version="1.0" encoding="utf-8"?>
<!-- Generator: Adobe Illustrator 24.3.0, SVG Export Plug-In . SVG Version: 6.00 Build 0)  -->
<svg version="1.1" id="Layer_1" xmlns="http://www.w3.org/2000/svg" xmlns:xlink="http://www.w3.org/1999/xlink" x="0px" y="0px"
	 viewBox="0 0 256 256" style="enable-background:new 0 0 256 256;" xml:space="preserve">
<style type="text/css">
	.st0{fill:#FB9900;}
	.st1{fill:#253582;}
</style>
<g>
	<path class="st1" d="M128,244.6c-64.3,0-116.6-52.3-116.6-116.6C11.4,63.7,63.7,11.4,128,11.4S244.6,63.7,244.6,128
		C244.6,192.3,192.3,244.6,128,244.6z M128,14.2c-62.7,0-113.8,51-113.8,113.8c0,62.7,51,113.8,113.8,113.8s113.8-51,113.8-113.8
		C241.8,65.3,190.7,14.2,128,14.2z"/>
</g>
<g>
	<path class="st0" d="M90.4,162c2.1,0.4,4.2,0.7,6.2,1.2c5.1,1.2,9.5,0.1,13.4-3.5c4.6-4.2,9.9-4.9,15.6-2.4
		c0.5,0.2,1.1,0.3,1.7,0.4c2.4,0,4.7,0,7.1,0c0,0.4,0.1,0.6,0.1,0.9c0,6.4,0,12.9,0,19.3c0,0.4-0.2,0.9-0.5,1.1
		c-5.2,3.1-10.3,6.2-15.5,9.2c-3.6,2.1-7.4,3.8-11.6,4.5c-6.5,1.1-12.6,0.1-18.5-2.6C77.2,185,68.9,176.7,63.1,166
		c-1.1-2-1.5-4.1-1.3-6.4c0.2-2.2,1.4-3.5,3.6-3.5c1.3,0,2.8,0.3,4,0.8c2.6,1,4.6,3,6.4,5.1c0.2,0.2,0.2,0.6,0.2,0.8
		c-0.9,3.4,0.3,6.2,2.9,8.4c2.3,2,5.1,3.2,8,4.1c6.1,2,12.4,2.8,18.8,3.3c0.9,0.1,1.6-0.4,1.5-1.2c0-0.9-0.6-1.2-1.5-1.3
		c-6.1-0.4-12.1-1.2-17.9-3.1c-2-0.7-3.9-1.6-5.8-2.6c-1-0.5-1.9-1.4-2.7-2.3c-1.3-1.5-1.6-3.4-0.7-5.2c0.9-1.8,2.7-2.2,4.4-2.2
		c1.3,0,2.6,0.4,3.9,0.8c0.4,0.1,1,0.8,1,1.2c0,0.5-0.6,1.2-1.1,1.3c-0.8,0.2-1.8,0.1-2.6,0c-0.6-0.1-1.1-0.5-1.6-0.8
		c-0.6-0.3-1.3-0.2-1.5,0.4c-0.2,0.4-0.1,1.2,0.2,1.6c1.5,1.6,5,2,6.9,0.9C89.8,165.5,90.4,164.4,90.4,162z"/>
	<path class="st0" d="M137,181.8c0-9,0-18,0-27c19.1,0,38.1,0,57.2,0c0,9,0,18,0,27C175.2,181.8,156.2,181.8,137,181.8z"/>
	<path class="st1" d="M180.7,144.3c-7.4,0-14.7,0-22.1,0c0-0.4,0-0.8,0-1.2c0-8.5,0-17,0-25.5c0-0.3,0.1-0.7,0-0.9
		c-0.3-0.4-0.7-1-1.1-1c-0.4,0-0.9,0.5-1.2,0.9c-0.2,0.3-0.1,0.7-0.1,1.1c0,8.5,0,16.9,0,25.4c0,0.4,0,0.8,0,1.3c-1.1,0-2,0-3.1,0
		c0-1.1,0-2.1,0-3.1c-0.1-8.5-0.9-16.9-2.7-25.3c-0.2-1-0.8-1.5-1.5-2.1c-0.3-0.2-0.6-0.8-0.5-1.2c0.5-3.1,1-6.2,1.6-9.4
		c0.1-0.4,0.4-0.9,0.7-1.2c3.2-2.3,6.8-3.4,10.7-3.9c0.7-0.1,0.8,0.3,1.1,0.7c2,3.8,4,7.6,6,11.3c0.3,0.5,0.8,1.1,1.4,1.2
		c0.8,0.2,1.1-0.6,1.5-1.2c2-3.8,4-7.6,6-11.4c0.2-0.4,0.4-0.8,1.1-0.7c3.7,0.5,7.3,1.5,10.4,3.7c0.5,0.3,0.9,0.9,1,1.4
		c1.7,7.9,2.4,15.9,2.5,23.9c0,4.1-0.1,8.3-0.2,12.4c-0.1,2.6-2.1,4.6-4.7,4.6c-1.2,0-2.5,0-3.9,0c0-0.5,0-0.9,0-1.4
		c0-8.4,0-16.9,0-25.3c0-1.5-0.4-2.1-1.3-2.1c-0.9,0-1.2,0.6-1.2,2.1c0,8.4,0,16.9,0,25.3C180.7,143.4,180.7,143.8,180.7,144.3z
		 M168.4,129.9c0,1.9,0,3.8,0,5.7c0,0.9,0.3,1.5,1.2,1.5c0.9,0,1.2-0.7,1.2-1.5c0-3.8,0-7.7,0-11.5c0-1-0.5-1.6-1.3-1.5
		c-0.9,0.1-1.2,0.7-1.2,1.6C168.4,126.1,168.4,128,168.4,129.9z"/>
	<path class="st1" d="M72.9,144.3c-1.6,0-3.1,0.1-4.6,0c-2.2-0.2-3.9-2.1-4.1-4.4c-0.7-12-0.2-24,2.1-35.9c0.2-1.1,0.7-1.9,1.7-2.5
		c3-1.8,6.3-2.8,9.8-3.3c0.7-0.1,0.9,0.2,1.2,0.7c2,3.8,4,7.6,6,11.3c0.3,0.5,0.8,1.1,1.4,1.2c0.8,0.2,1.1-0.6,1.5-1.2
		c2-3.8,4-7.6,6-11.4c0.2-0.4,0.4-0.8,1.1-0.7c3.8,0.5,7.3,1.6,10.5,3.8c0.4,0.3,0.8,0.9,0.9,1.4c0.6,3.1,1.1,6.2,1.5,9.3
		c0.1,0.3-0.2,0.9-0.5,1.1c-1.1,0.6-1.5,1.6-1.7,2.8c-1.2,5.8-1.9,11.7-2.3,17.7c-0.2,3.3-0.3,6.7-0.4,10.1c-1,0-1.9,0-3,0
		c0-0.4,0-0.8,0-1.2c0-8.4,0-16.9,0-25.3c0-0.3,0-0.6,0-0.8c0-0.8-0.4-1.4-1.3-1.4c-0.8,0-1.2,0.6-1.2,1.4c0,2.6,0,5.2,0,7.7
		c0,6.1,0,12.2,0,18.3c0,0.4,0,0.8,0,1.3c-7.4,0-14.7,0-22.1,0c0-0.4,0-0.8,0-1.2c0-8.5,0-17,0-25.5c0-0.3,0.1-0.8-0.1-1
		c-0.3-0.4-0.7-0.9-1.1-0.9c-0.4,0-0.9,0.4-1.2,0.8c-0.2,0.3-0.1,0.9-0.1,1.3c0,8.4,0,16.9,0,25.3C72.9,143.4,72.9,143.8,72.9,144.3
		z M85.3,129.9c0,1.9,0,3.8,0,5.7c0,0.9,0.3,1.5,1.2,1.5c0.9,0,1.2-0.6,1.2-1.5c0-3.8,0-7.7,0-11.5c0-1-0.5-1.6-1.3-1.6
		c-0.9,0.1-1.2,0.7-1.2,1.5C85.3,126.1,85.3,128,85.3,129.9z"/>
	<path class="st1" d="M150.3,152.2c-2.9,0-5.7,0-8.7,0c0-0.4,0-0.8,0-1.2c0-6.5,0-13,0-19.5c0-0.2,0-0.5,0-0.7c0-1-0.5-1.6-1.3-1.5
		c-0.9,0.1-1.2,0.7-1.2,1.5c0,6.6,0,13.3,0,19.9c0,0.5,0,0.9,0,1.5c-0.9,0-1.8,0-2.7,0c-1.5,0-1.9,0.3-1.9,1.9c0,0.3,0,0.7,0,1.1
		c-2.5,0-5,0-7.4,0c-0.2,0-0.3-0.1-0.5-0.2c-3-1.4-6.2-2-9.7-1.5c0-0.5,0-0.9,0-1.3c0-7,0-14.1,0-21.1c0-0.3,0.1-0.8-0.1-1
		c-0.3-0.4-0.7-0.9-1.1-0.9c-0.4,0-0.9,0.4-1.2,0.7c-0.2,0.3-0.1,0.8-0.1,1.2c0,7.3,0,14.6,0,21.9c0,0.8-0.2,1.1-1,1.4
		c-1.5,0.7-2.9,1.6-4.2,2.5c-0.6,0.4-0.9,0.4-1.5,0c-1.2-0.9-1.9-2-2-3.5c-0.8-12.2-0.2-24.3,2.2-36.4c0.2-0.9,0.6-1.4,1.3-1.9
		c3-1.9,6.2-2.9,9.6-3.5c0.9-0.1,1.4,0.1,1.8,0.9c1.9,3.7,3.9,7.4,5.9,11.1c0.3,0.5,0.9,1.2,1.4,1.2c0.5,0,1.1-0.6,1.4-1.1
		c2-3.8,4-7.5,6-11.3c0.3-0.6,0.6-0.8,1.4-0.7c3.5,0.5,6.8,1.5,9.9,3.4c0.8,0.5,1.3,1.2,1.4,2.1c1.3,6.8,2.1,13.7,2.3,20.6
		c0.1,4.3,0,8.6,0,12.9C150.4,151.4,150.3,151.7,150.3,152.2z M129.3,143.6c0-1.9,0-3.8,0-5.6c0-1.1-0.4-1.7-1.3-1.7
		c-1,0.1-1.2,0.8-1.2,1.6c0,3.8,0,7.5,0,11.3c0,1.1,0.4,1.6,1.2,1.6c0.8,0,1.2-0.5,1.2-1.6C129.3,147.3,129.3,145.5,129.3,143.6z"/>
	<path class="st1" d="M115.8,93.7c2.7-0.9,5.5-1.6,8.1-2.6c3.6-1.5,7.3-1.4,11.1-1.4c1.5,0,2-0.3,2-1.2c0-0.9-0.6-1.1-2-1.2
		c-4.9-0.4-9.6,0.4-14.2,2.2c-1.7,0.7-3.6,1.2-5.4,1.7c-0.6-3.4-0.8-6.6,2.1-9.1c0.6-0.5,1.2-1.2,1.7-1.8c4-5.1,13.6-5.1,17.6,0
		c0.5,0.7,1.2,1.3,1.8,1.9c1.9,1.7,2.7,3.8,2.4,6.3c-0.5,3.4-1.1,6.8-1.8,10.2c-0.7,3.2-2.8,5.3-5.9,6.5c-1.6,0.6-3.3,1-4.9,1.4
		c-0.3,0.1-0.6,0-0.8,0c-0.6-0.1-1.2-0.2-1.7-0.4c-5.7-1.2-9-4.6-9.7-10.5C116.1,95,116,94.3,115.8,93.7z"/>
	<path class="st1" d="M74.1,80c3.5-1.1,6.8-2.1,10.1-3.2c1.7-0.6,3.3-0.9,5.1-0.8c1.5,0.1,3,0,4.5,0c1.1,0,1.7-0.4,1.7-1.2
		c-0.1-1-0.8-1.2-1.6-1.2c-2.3,0-4.6,0-6.9,0c-0.5,0-1,0.1-1.5,0.3c-3.8,1.2-7.6,2.4-11.6,3.7c-0.3-2.8-0.9-5.5,1.1-7.9
		c1.2-1.5,2.5-2.9,3.9-4.2c4.2-3.9,12.2-3.5,16.1,0.7c0.6,0.7,1.2,1.4,1.9,2c2.4,2,3.1,4.6,2.6,7.6c-0.5,3-1,5.9-1.6,8.8
		c-0.8,3.4-2.9,5.5-6.1,6.9c-4.1,1.8-8,1.3-11.8-0.7c-1.9-1.1-3.4-2.6-4.1-4.7C75.1,84.1,74.7,82.1,74.1,80z"/>
	<path class="st1" d="M157.4,80c3.1-1,6.2-1.9,9.1-3c2.2-0.8,4.3-1.2,6.6-1c1.4,0.1,2.7,0,4.1,0c0.8,0,1.4-0.4,1.3-1.3
		c0-0.8-0.6-1.2-1.3-1.2c-2.5,0-5.1-0.1-7.6,0c-1,0-1.9,0.5-2.9,0.8c-2.9,0.9-5.8,1.9-8.7,2.8c-0.3,0.1-0.7,0.2-1.3,0.3
		c0-1.8-0.2-3.5,0.1-5.1c0.2-1.1,0.9-2.3,1.6-3.2c1-1.3,2.1-2.4,3.3-3.5c3.9-4,12-4,15.9,0c1.1,1.1,2.2,2.3,3.3,3.5
		c1.2,1.2,1.8,2.7,1.7,4.4c-0.2,4.2-0.9,8.3-2.2,12.3c-0.8,2.4-2.5,4.1-4.8,5.1c-1.8,0.7-3.6,1.3-5.5,1.6c-1.2,0.2-2.5-0.3-3.8-0.6
		c-4.8-1.2-7.6-4.2-8.4-9.1C157.8,82,157.6,81.1,157.4,80z"/>
	<path class="st0" d="M161.7,186.7c5.6,0,11.1,0,16.7,0c0.3,0,0.7-0.1,0.9,0.1c0.4,0.3,0.9,0.7,0.9,1.1c0,0.4-0.5,0.9-0.8,1.2
		c-0.2,0.2-0.7,0.1-1,0.1c-11.1,0-22.2,0-33.3,0c-0.3,0-0.6,0-0.8,0c-0.7-0.1-1.2-0.6-1.1-1.3c0.1-0.5,0.7-0.8,1.1-1.1
		c0.2-0.1,0.5,0,0.8,0C150.6,186.7,156.1,186.7,161.7,186.7z"/>
	<path class="st1" d="M86.5,107.7c-0.9-1.6-1.6-3.1-2.4-4.6c1.7,0,3.2,0,4.9,0C88.1,104.6,87.3,106.1,86.5,107.7z"/>
	<path class="st1" d="M172,103.1c-0.8,1.5-1.6,3-2.4,4.6c-0.9-1.6-1.6-3.1-2.4-4.6C168.8,103.1,170.3,103.1,172,103.1z"/>
	<path class="st1" d="M130.4,116.8c-0.8,1.6-1.6,3-2.4,4.6c-0.8-1.6-1.6-3-2.4-4.6C127.3,116.8,128.8,116.8,130.4,116.8z"/>
	<path class="st0" d="M185.4,187.9c0,0.7-0.6,1.4-1.3,1.5c-0.8,0.1-1.5-0.6-1.5-1.4c0-0.8,0.6-1.5,1.4-1.5
		C184.8,186.5,185.4,187.2,185.4,187.9z"/>
</g>
</svg>
