<?xml version="1.0" encoding="utf-8"?>
<!-- Generator: Adobe Illustrator 24.3.0, SVG Export Plug-In . SVG Version: 6.00 Build 0)  -->
<svg version="1.1" id="Layer_1" xmlns="http://www.w3.org/2000/svg" xmlns:xlink="http://www.w3.org/1999/xlink" x="0px" y="0px"
	 viewBox="0 0 256 256" style="enable-background:new 0 0 256 256;" xml:space="preserve">
<style type="text/css">
	.st0{fill:#FB9900;}
	.st1{fill:#253582;}
</style>
<g>
	<path class="st1" d="M128,244.6c-64.3,0-116.6-52.3-116.6-116.6C11.4,63.7,63.7,11.4,128,11.4S244.6,63.7,244.6,128
		C244.6,192.3,192.3,244.6,128,244.6z M128,14.2c-62.7,0-113.8,51-113.8,113.8c0,62.7,51,113.8,113.8,113.8s113.8-51,113.8-113.8
		C241.8,65.3,190.7,14.2,128,14.2z"/>
</g>
<g>
	<path class="st1" d="M145.9,113.5c0,2.7,0,5.3,0,8c0,1.4-0.1,2.7,1,3.8c0.2,0.2,0.1,1,0,1.3c-0.7,1.3-0.7,2.6-0.2,3.9
		c0.5,1.6,0.8,3.3,1.3,5c0.1,0.2,0.1,0.5,0.2,0.9c-1.6,0-3.2,0-4.7,0c-0.2,0-0.6-0.6-0.5-0.8c0.1-1,0.4-2.1,0.6-3.1
		c0.2-1,0.6-2,0.7-3c0.1-0.8,0.1-1.6-0.2-2.4c-0.3-0.9-0.1-1.5,0.2-2.3c0.3-0.8,0.6-1.6,0.6-2.4c0.1-2.2,0-4.4,0-6.7
		c0-0.5,0-1,0.1-1.4c0.1-0.4,0.4-0.7,0.7-1C145.6,113.4,145.8,113.5,145.9,113.5z"/>
	<path class="st1" d="M154.2,113.5c-3,0.8-6,1.5-9,2.3c-7.3,1.9-14.6,3.7-21.9,5.7c-2.8,0.7-5.5,0.7-8.2,0c-9.6-2.5-19.2-5-28.8-7.5
		c-0.7-0.2-1.3-0.5-1.9-0.7c0-0.1,0-0.2,0-0.3c1.2-0.2,2.3-0.5,3.5-0.7c9.6-1.8,19.3-3.7,28.9-5.6c2.4-0.5,4.8,0,7.1,0.5
		c9.6,1.9,19.3,3.7,28.9,5.6c0.5,0.1,0.9,0.3,1.4,0.5C154.2,113.3,154.2,113.4,154.2,113.5z"/>
	<path class="st1" d="M101.1,119c3.3,0.9,6.4,1.8,9.6,2.7c2.6,0.7,5.2,1.4,7.8,2c0.9,0.2,2,0.1,2.9-0.2c5-1.3,9.9-2.6,14.8-3.9
		c0.3-0.1,0.7-0.1,0.9-0.2c0,1.3,0,2.5,0,3.7c0,1.2-0.1,2.3-0.3,3.5c-0.2,1.5-1,2.7-2.2,3.6c-5.7,3.8-11.9,5.2-18.7,4.5
		c-4-0.4-7.6-1.7-11.1-3.8c-2-1.2-3.2-2.9-3.3-5.3C101.6,123.4,101.3,121.2,101.1,119z"/>
</g>
<path class="st1" d="M102.3,144.7c-0.2-1.6-0.5-3.1-0.6-4.7c-0.3-4.2,0.2-8.2,3.1-11.5c2.1-2.5,4.9-3.8,8.1-4.4
	c5.8-1.1,11.6-0.7,17.1,1.5c2,0.8,3.4,2.3,4,4.4c0.1,0.3,0.3,0.7,0.5,0.7c1.3,0.5,1.9,1.5,2.4,2.6c1.1,2.8,0.7,5.6,0.1,8.4
	c-0.2,0.9-0.4,1.9-0.7,2.8c2.3,1.1,2.2,3.1,1.8,5.2c-0.5,2.8-1.7,5.4-3.5,7.6c-0.5,0.7-1.4,1.1-2.2,1.6c-0.2,0.2-0.5,0.3-0.7,0.6
	c-0.9,1.1-1.7,2.2-2.6,3.3c-0.4,0.4-0.4,0.7-0.1,1.2c0.4,0.7,0.8,1.4,1.1,2.2c0.8,1.7,2.1,2.8,3.7,3.7c4,2.4,7.9,4.9,11.8,7.3
	c1,0.6,2.2,1,3.1,1.7c3.4,2.5,4.8,6.1,5.3,10.1c0.1,0.6-0.3,0.9-0.8,1c-2.4,0.7-4.8,1.6-7.3,2c-9.7,1.7-19.6,2.5-29.5,2.2
	c-6.2-0.2-12.4-0.7-18.6-1.4c-3.8-0.4-7.6-1.4-11.4-2.3c-2.5-0.6-2.4-0.8-1.9-3.2c0.6-2.8,1.6-5.3,3.8-7.3c0.8-0.8,1.7-1.4,2.7-2
	c2.7-1.6,5.5-3.2,8.2-4.8c2.2-1.3,4.4-2.7,6.5-4.1c0.6-0.4,1.2-1,1.6-1.6c0.7-1.2,1.3-2.5,1.9-3.7c0.1-0.3,0-0.8-0.2-1.1
	c-0.8-1.1-1.6-2.1-2.4-3.1c-0.2-0.2-0.4-0.4-0.6-0.5c-0.7-0.5-1.6-0.8-2.1-1.4c-2-2.5-3.3-5.4-3.7-8.6
	C100,147.1,100.4,145.5,102.3,144.7z M136,146.2c-0.5,1.3-0.8,2.5-1.4,3.6c-0.1,0.3-0.7,0.4-1.1,0.5c-0.2,0-0.5-0.5-0.5-0.8
	c-0.2-1.4-0.2-2.8-0.4-4.1c-0.6-3.3-1.9-6.4-3.8-9.2c-0.5-0.8-1.6-0.8-2-0.1c-2.1,3.8-5.6,5.3-9.7,5.4c-1.8,0.1-3.7-0.3-5.6-0.5
	c-2.6-0.2-4.7,1-5.4,3.4c-0.4,1.6-0.4,3.3-0.6,4.9c0,0.4-0.2,0.9-0.5,1c-0.5,0.2-1,0-1.2-0.7c-0.3-1.1-0.7-2.2-1.1-3.4
	c-1.1,0.6-1,1.5-1,2.4c0.3,2.9,1.5,5.4,3.1,7.8c0.3,0.4,0.7,0.7,1,1.2c0.3-0.4,0.5-0.6,0.7-1c0.2,0.4,0.4,0.7,0.6,0.9
	c1.7,3.2,4,5.8,7.3,7.5c2.9,1.5,5.8,1.8,8.8,0.5c3.3-1.4,5.7-3.7,7.6-6.7c0.4-0.7,0.8-1.4,1.3-2.1c0.3,0.4,0.5,0.6,0.8,1.1
	c0.7-1.1,1.4-2,2-2.9c1.1-2.1,2.1-4.3,2.1-6.8C136.9,147.2,136.9,146.5,136,146.2z M110.8,164.2c-1.1,1.9-2.3,3.8-3.3,5.6
	c-0.1,0.1-0.1,0.4-0.1,0.6c0.5,2,1.3,3.8,2.8,5.2c3.2,3,7.1,3.8,11.4,3.2c3.9-0.6,7-2.3,8.8-6c0.7-1.4,1.3-2.9-0.2-4.2
	c-0.1-0.1-0.2-0.3-0.3-0.5c-0.7-1.2-1.4-2.5-2.1-3.8c-2.6,1.9-5.4,3.3-8.6,3.3C116,167.5,113.2,166.1,110.8,164.2z"/>
<path class="st0" d="M47.2,145.6c0.3-0.2,0.5-0.4,0.8-0.5c0.8-0.1,1.7,0,2.6,0c0.6,0,1.2-0.3,1.1-0.9c-0.1-0.4-0.7-0.9-1.1-0.9
	c-1.4-0.1-2.8-0.1-4.2-0.1c-0.7,0-0.9-0.2-0.9-0.9c0-1.3,0-2.5,0-3.8c0-0.7,0.3-0.9,0.9-0.9c1.3,0,2.6,0,3.9,0c0.7,0,1.4-0.1,1.4-1
	c0-0.8-0.7-0.9-1.4-0.9c-1.3,0-2.5,0-3.8,0c-0.7,0-1.1-0.2-1-1c0.1-1.5,0-3,0-4.6c1.5,0,2.8,0,4.1,0c0.3,0,0.7,0.1,0.9,0
	c0.4-0.2,0.8-0.6,1.1-0.9c-0.4-0.3-0.7-0.9-1.1-1c-1.3-0.1-2.7-0.1-4-0.1c-0.9,0-1.2-0.2-1-1.2c0.5-3.5,3.3-6,6.8-6
	c1.6,0,3.1,0,4.7,0.2c3.1,0.5,5.6,3.8,5.2,6.9c-1.2,0-2.5,0-3.7,0c-0.3,0-0.7,0-1,0c-0.7,0-1.2,0.3-1.2,1c0,0.7,0.5,1,1.2,1
	c1.3,0,2.6,0,3.9,0c0.7,0,1,0.2,1,1c-0.1,1.2-0.1,2.5,0,3.7c0,0.7-0.3,1-0.9,0.9c-1.3,0-2.5,0-3.8,0c-0.7,0-1.3,0.2-1.3,0.9
	c0,0.8,0.6,1,1.3,1c1.5,0,3.1,0,4.7,0c0,1.6,0.1,3,0,4.5c0,0.7-0.7,1.1-1.4,1.1c-1,0-1.9,0-2.9,0c-0.7,0-1.7-0.1-1.7,0.9
	c0,1.1,0.9,0.9,1.7,1c0.4,0,0.8,0.3,1.1,0.4c-1.9,2-3.9,4-5.8,5.9c-0.3-0.3-0.6-0.5-0.9-0.8C50.6,149,48.9,147.3,47.2,145.6z"/>
<path class="st0" d="M140.8,89.7c-0.3,0.2-0.5,0.4-0.8,0.5c-6.7,1.5-13.4,3.1-20.2,4.5c-1.2,0.2-2.6,0-3.8-0.4
	c-4.3-1.5-8.5-3.2-12.8-4.8c-0.5-0.2-1-0.4-1.5-0.6c-2.4-1-3.2-3.7-1.9-5.9c0.9-1.5,1.9-1.8,3.5-1.2c4,1.6,8.1,3.1,12.1,4.7
	c2.3,0.9,4.5,0.6,6.8,0.1c6.9-1.6,13.7-3.1,20.6-4.7c0.2,0,0.5,0,0.7-0.1c0.2,1.2,0.1,1.4-1.1,1.7c-5.2,1.2-10.5,2.3-15.7,3.5
	c-2.3,0.5-4.6,1.1-6.9,1.5c-0.8,0.1-1.8,0-2.6-0.3c-4.2-1.6-8.4-3.2-12.7-4.8c-0.3-0.1-0.6-0.2-0.9-0.3c-1.1-0.3-2.1,0.2-2.5,1.2
	c-0.4,1,0.1,2.2,1.1,2.6c2.4,1,4.8,1.9,7.2,2.8c2.1,0.8,4.2,1.6,6.3,2.4c1.5,0.6,3.1,0.8,4.7,0.4c5.9-1.4,11.9-2.7,17.8-4
	c0.5-0.1,1,0.1,1.5,0.1C140.2,89.1,140.5,89.4,140.8,89.7z"/>
<path class="st0" d="M195.2,158.4c-0.7,0.2-1.3,0.5-2,0.5c-12.3,1.4-22.8-8.7-21.9-21.1c0.7-9.3,7.8-16.8,17-18.1
	c10.5-1.5,20.5,6,22.1,16.5c0.9,6.4-0.9,11.9-5.1,16.6c-0.1,0.1-0.3,0.2-0.4,0.3c-0.2-0.2-0.4-0.3-0.6-0.5c0.1-0.1,0.2-0.3,0.3-0.4
	c4-4.3,5.7-9.3,5.1-15.1c-0.9-8.8-8.5-16.1-17.4-16.6c-12.2-0.7-21.6,9.7-19.8,21.7c1.5,9.8,10.9,17,20.8,15.7
	c0.9-0.1,1.8-0.2,2.8-0.3C195.6,158,195.4,158.2,195.2,158.4z"/>
<path class="st0" d="M47.2,145.6c1.7,1.7,3.5,3.4,5.2,5.1c0.3,0.3,0.6,0.5,0.9,0.8c0.9,1,1.8,1.9,2.7,2.9c0.1,0.5,0.3,0.9,0.4,1.4
	c0,0.6,0.2,1,0.7,1.3c1.4,0.8,2.4,1.9,2.9,3.5c-4.1,0-8.1,0-12.1,0c0.5-1.7,1.5-2.8,2.9-3.6c0.5-0.3,0.7-0.6,0.7-1.2
	c0-1.4,0-2.7,0-4c-4.1-1.4-6-3.6-5.9-6.8C46.2,145.2,46.7,145.4,47.2,145.6z"/>
<path class="st0" d="M119.3,100.5c0,0.8,0,1.5,0,2.3c0,0.6-0.6,0.9-1.7,0.9c-1,0-1.7-0.3-1.7-0.9c0-1.5,0-3.1,0-4.6
	c0-0.5,0.7-0.8,1.7-0.8c1,0,1.7,0.3,1.7,0.8C119.4,98.9,119.3,99.7,119.3,100.5z"/>
<path class="st0" d="M81.9,141.3c-1.7,0-3.5,0-5.2,0c-1.2,0-1.9-0.7-1.9-1.7c0-1,0.7-1.7,1.9-1.7c3.5,0,7.1,0,10.6,0
	c1.1,0,1.8,0.6,1.8,1.7c0,1-0.7,1.7-1.9,1.7C85.5,141.3,83.7,141.3,81.9,141.3C81.9,141.3,81.9,141.3,81.9,141.3z"/>
<path class="st0" d="M156.8,141.3c-1.7,0-3.5,0-5.2,0c-1.2,0-1.9-0.6-1.9-1.7c0-1,0.7-1.7,1.9-1.7c3.5,0,7,0,10.5,0
	c1.2,0,1.9,0.7,1.9,1.7c0,1-0.7,1.7-1.9,1.7C160.4,141.3,158.6,141.3,156.8,141.3z"/>
<path class="st0" d="M56,154.4c-0.9-1-1.8-1.9-2.7-2.9c1.9-2,3.9-4,5.8-5.9c1-0.8,2.1-0.3,3.1-0.4c0.3,2.8-1.9,5.3-5.8,6.6
	c0,0.6,0,1.3,0,2C56.3,154,56.1,154.2,56,154.4z"/>
<path class="st0" d="M195.2,158.4c0.2-0.2,0.4-0.4,0.6-0.7c0.2-0.1,0.3-0.3,0.5-0.3c3-0.9,5.6-2.6,7.9-4.7c0.2,0.2,0.4,0.3,0.6,0.5
	c-2.6,2.8-5.8,4.5-9.5,5.3C195.3,158.6,195.2,158.5,195.2,158.4z"/>
<path class="st0" d="M140.8,89.7c-0.3-0.3-0.6-0.6-0.9-0.9c0.1-0.2,0.1-0.4,0.2-0.5c0.9-0.2,1.8-0.5,2.7-0.6c0.3,0,0.8,0.3,0.8,0.5
	c0.1,0.4-0.1,1.1-0.3,1.2C142.5,89.6,141.6,89.6,140.8,89.7z"/>
<path class="st1" d="M186.1,135.7c0,5.4,0,10.9,0,16.3c0,0.3,0.2,0.9,0.5,1c0.3,0.1,0.9-0.1,1.1-0.3c2.6-2.5,5.1-5.1,7.7-7.6
	c0.2-0.2,0.3-0.3,0.6-0.6c0.3-0.2,0.4-0.4,0.6-0.6c1.2-1.1,2.3-2.3,3.5-3.4c0.6-0.6,0.6-1.1,0-1.7c-4.1-4.2-8.2-8.4-12.3-12.5
	c-0.3-0.3-0.9-0.5-1.2-0.4c-0.3,0.1-0.5,0.7-0.5,1.1c0,2.3,0,4.6,0,6.8"/>
<path class="st0" d="M124.4,72.1c2.9-0.6,5.8-1.2,8.7-1.9 M135.7,69.6c1.5-0.3,2.9-0.6,4.4-1c0.7-0.2,0.8-0.9,0.4-1.4
	c-0.6-0.7-2.3-1-3-0.5c0.4-0.7-0.2-0.9-0.7-1.1c-3.6-1.3-7.2-2.6-10.8-3.9c-0.3-0.1-0.6-0.2-0.9-0.1c-3.1,0.6-6.1,1.2-9.2,1.8
	c-0.6,0.1-0.8,0.4-0.6,0.8c-0.5-0.6-1.2-0.4-1.8-0.3c-3.1,0.5-6.2,1.2-9.2,1.8c-1.9,0.4-3.9,0.7-5.8,1c-1.4,0.3-2.7,1.8-2.8,3.4
	c-0.2,1.7,0.7,3.3,2.3,3.9c4,1.5,8,3,12,4.6c1.9,0.7,3.9,1.6,6,1.4c1.7-0.1,3.5-0.6,5.2-1c0.6-0.1,1.1-0.2,1.7-0.4l0,0l0.5-0.1
	c0.2,0,0.4-0.1,0.5-0.1l5.5-1.3c0.6,0,1.3-0.3,1.9-0.4c2.9-0.6,5.7-1.2,8.6-1.9c0.6-0.1,1-0.5,0.8-1.2c-0.1-0.6-0.6-0.8-1.2-0.7
	c-1.9,0.4-3.9,0.8-5.8,1.3l0-0.1l-11.3,2.6l0,0.1c-1.3,0.3-2.6,0.6-3.9,0.9c-2,0.5-3.9,0.8-5.9-0.1c-2-0.8-4-1.6-6-2.3
	c-2.5-1-5.1-1.9-7.6-2.9c-1.3-0.5-1.9-1.7-1.5-2.8c0.4-1.2,1.5-1.7,2.9-1.3c0.3,0.1,0.5,0.2,0.8,0.3c4.1,1.6,8.2,3.1,12.3,4.7
	c0.7,0.3,1.5,0.6,2.3,0.5c2.3-0.4,4.5-0.9,6.8-1.4 M115.6,64.6c1.2,1.2,2.4,2.4,3.6,3.6C118,67,116.8,65.8,115.6,64.6
	C115.6,64.6,115.6,64.6,115.6,64.6C115.6,64.6,115.6,64.6,115.6,64.6z"/>
</svg>
