<?xml version="1.0" encoding="utf-8"?>
<!-- Generator: Adobe Illustrator 24.3.0, SVG Export Plug-In . SVG Version: 6.00 Build 0)  -->
<svg version="1.1" id="Layer_1" xmlns="http://www.w3.org/2000/svg" xmlns:xlink="http://www.w3.org/1999/xlink" x="0px" y="0px"
	 viewBox="0 0 256 256" style="enable-background:new 0 0 256 256;" xml:space="preserve">
<style type="text/css">
	.st0{fill:#FB9900;}
	.st1{fill:#253582;}
</style>
<g>
	<path class="st1" d="M128,244.6c-64.3,0-116.6-52.3-116.6-116.6C11.4,63.7,63.7,11.4,128,11.4S244.6,63.7,244.6,128
		C244.6,192.3,192.3,244.6,128,244.6z M128,14.2c-62.7,0-113.8,51-113.8,113.8c0,62.7,51,113.8,113.8,113.8s113.8-51,113.8-113.8
		C241.8,65.3,190.7,14.2,128,14.2z"/>
</g>
<path class="st1" d="M186.4,62.1c6.2,2.5,8.9,7.2,8.3,13.8c0,0.5,0.1,1,0.1,1.9c2.7,0,5.4,0.1,8.1,0c1.7-0.1,2.5,0.6,2.4,2.4
	c-0.1,1.2,0.3,1.8,1.5,2.5c1.2,0.7,2.5,2.4,2.6,3.8c0.3,4.4,0.2,8.8,0.1,13.2c-0.1,2.9-1.7,4.1-4.9,4.1c-3.8,0-5.4-1-5.5-4
	c-0.2-4.5-0.2-9,0-13.4c0.1-1.3,1.4-2.5,2.2-3.6c0.4-0.6,1.1-1,1.6-1.5c-0.1-0.2-0.3-0.4-0.4-0.6c-2.4,0-4.9,0-7.7,0
	c0,1,0,1.9,0,2.9c0,29.6,0,59.3,0,88.9c0,8.9-3.1,12.5-12.1,13.7c-0.1,1-0.2,2.1-0.5,3.1c-0.8,2.9-3.1,4.7-6.1,4.7
	c-3.1,0-6.2,0-9.4,0c-4.5,0-6.8-2.1-7.2-6.7c0-0.3-0.1-0.7-0.2-1.2c-12.2,0-24.4,0-36.8,0c-0.1,0.8-0.2,1.6-0.3,2.4
	c-0.5,3.3-3,5.4-6.3,5.5c-3.1,0-6.2,0-9.4,0c-4.6,0-6.9-2.2-7.2-6.9c0-0.3-0.1-0.7-0.1-1.1c-4.9-1-8.5-3.7-9.7-8.8
	c-0.3-1.2-0.3-2.5-0.3-3.8c0-29.9,0-59.8,0-89.7c0-1,0-2,0-3.1c-2.7,0-5.2,0-8.5,0c0.9,0.9,1.3,1.6,1.8,1.8c1.9,0.9,2.7,2.4,2.7,4.4
	c-0.1,4.1,0,8.1,0,12.2c0,3.4-1.5,4.7-5.1,4.7c-3.8,0-5.4-1.3-5.4-4.7c-0.1-4.1-0.2-8.1,0.1-12.1c0.1-1.4,1.1-3.2,2.3-4.1
	c1.1-0.8,1.7-1.3,1.6-2.7c-0.2-1.8,0.7-2.4,2.4-2.3c2.6,0.1,5.2,0,8.3,0c-0.9-7.3,1.1-13,8.5-15.6C127.3,62.1,156.8,62.1,186.4,62.1
	z M192,124c0-16.5,0-32.9,0-49.4c0-6.7-3.2-9.9-9.9-10c-26.7,0-53.3,0-80,0c-7,0-10.3,3.2-10.3,10.1c0,32.7,0,65.3,0,98
	c0,7.2,3.1,10.3,10.3,10.3c26.6,0,53.2,0,79.8,0c6.9,0,10.1-3.2,10.1-10C192,156.8,192,140.4,192,124z M162.2,185.9
	c-0.2,3.8,1.1,5.4,4.5,5.4c2.9,0,5.7,0.1,8.6,0c3.3-0.1,4.7-2,4.1-5.4C173.7,185.9,168,185.9,162.2,185.9z M119.4,185.9
	c-5.8,0-11.5,0-17.2,0c-0.6,3.5,0.9,5.3,4.2,5.4c2.9,0.1,5.7,0,8.6,0C118.3,191.3,119.6,189.7,119.4,185.9z M82.5,93.2
	c0-2.1,0-4.2,0-6.3c0-2-1.3-2-2.7-2c-1.5,0-2.5,0.3-2.5,2c0,4.1,0,8.1,0,12.2c0,2,1.3,2,2.7,2.1c1.4,0,2.5-0.3,2.5-2.1
	C82.5,97.1,82.5,95.1,82.5,93.2z M206.7,93.2c0-2.1,0-4.2,0-6.3c0-1.8-1-2-2.5-2c-1.4,0-2.8,0-2.7,2c0,4.1,0,8.1,0,12.2
	c0,2,1.3,2.1,2.7,2.1c1.4,0,2.5-0.3,2.5-2.1C206.7,97.1,206.7,95.1,206.7,93.2z"/>
<path class="st0" d="M46.3,184.5c2.9-3,6.2-5.6,8.5-9c1.8-2.7,2.6-6.2,3.2-9.4c0.3-1.4-0.9-2.8-3.1-2.8c-3.3,0-3.9-0.9-3.8-4.2
	c0.3-4.5,0.6-8.9,0.9-13.4c0.1-1.6,0.5-3,2.3-3.4c0.4-0.1,0.7-0.6,1-0.9c0.8-1.3,1.7-1.1,2.2,0.1c0.7,1.6,1.7,1.6,3.2,1.3
	c3.7-0.6,8.2-0.2,9.2,5c0.4,2.3,4.5,3.6,6.4,2.4c1.6-1,3.1-2,4.7-3c2-1.1,4.1-0.7,5.1,1.1c1.1,1.9,0.6,3.6-1.2,4.9
	c-3.1,2.1-6.1,4.2-9.3,6.1c-0.6,0.4-1.7,0.2-2.5,0c-1.1-0.4-2.1-1.2-3.4-2c-0.5,4-1.1,7.6,2.1,10.6c3.3,3.2,4.5,7.1,4.3,11.7
	c-0.1,2.8,0.3,5.6,0.4,8.3c0.1,2.4-1.1,4-3.2,4c-2.2,0-3.4-1.2-3.7-3.4c-0.3-2.5-0.8-5-0.8-7.5c-0.1-3.3-1.4-5.8-3.8-7.9
	c-0.1,0.1-0.4,0.1-0.4,0.2c-0.8,5-4.2,8.1-7.9,11c-1.5,1.2-2.9,2.6-4.4,3.8c-2.7,2.3-4,2.2-6.4-0.5
	C46.3,186.6,46.3,185.5,46.3,184.5z M66.9,145.8c-0.4-0.2-0.7-0.5-1.1-0.7c-3.8-1.5-5.3-0.5-5.6,3.5c-0.3,4.3-0.5,8.6-0.8,12.9
	c-0.1,2,0.5,3.5,2.2,4.8c5.3,4,9.9,8.4,9.9,15.7c0,2,0.3,4,0.7,6c0.1,0.6,0.9,1.2,1.4,1.7c0.4-0.6,1.1-1.3,1.1-1.9
	c0-2.6-0.4-5.2-0.3-7.8c0.2-4.3-1-8-4-11.1c-2.3-2.3-3.5-5.1-2.8-8.4c0.8-3.5-0.2-6.1-3.8-7.3c-0.3-0.1-0.7-0.3-0.8-0.6
	c-0.2-0.4-0.4-1-0.2-1.3c0.2-0.3,0.9-0.5,1.2-0.4c0.8,0.3,1.6,0.9,2.4,1.4c2.8,1.7,5.6,4.7,8.4,4.7c2.8-0.1,5.5-3.2,8.3-5
	c0.1,0,0.2-0.1,0.2-0.1c0.4-0.8,0.9-1.6,1.3-2.4c-0.9,0-2-0.4-2.8,0c-2.5,1.2-5,3.8-7.4,3.7c-2.5-0.1-4.9-2.7-7.4-4.1
	c-0.4-0.2-0.8-0.4-1-0.7c-0.5-0.6-1-1.3-1.5-2C65.1,146.2,65.9,146,66.9,145.8z M60.3,168.2c-0.2,0.3-0.5,0.7-0.6,1.1
	c-0.7,5.4-4,9.3-7.8,12.8c-1,0.9-2,1.8-2.8,2.9c-0.4,0.5-0.3,1.4-0.4,2.1c0.7-0.1,1.7,0.1,2.2-0.3c2.3-1.8,4.4-4,6.7-5.7
	c2.7-2,4.3-4.6,5.1-7.8C63.5,169.9,63.6,169.8,60.3,168.2z M57.2,161.2c0.3-5.5,0.7-11,1-16.5c-1.4,0-2.5,0-3.8,0
	c-0.3,4.5-0.5,8.9-0.8,13.4C53.3,161.5,53.2,161.5,57.2,161.2z"/>
<path class="st0" d="M64.2,141.3c-4.1-0.1-7.3-3.4-7.3-7.5c0.1-4.1,3.5-7.4,7.5-7.3c4,0.1,7.4,3.5,7.3,7.5
	C71.6,138.1,68.3,141.4,64.2,141.3z M59.1,133.9c0,3,2.3,5.3,5.3,5.3c2.8,0,5.1-2.3,5.2-5.2c0-2.9-2.4-5.4-5.3-5.3
	C61.4,128.7,59.1,131,59.1,133.9z"/>
<path class="st1" d="M142.3,80.8c13.9,0,27.9,0.1,41.8-0.1c2.5,0,3.1,0.8,3.1,3.2c-0.1,19.2,0,38.3,0,57.5c0,3.1-0.1,3.2-3.3,3.2
	c-27.9,0-55.9,0-83.8,0c-3.2,0-3.2,0-3.2-3.3c0-19.1,0-38.2,0-57.2c0-3.3,0-3.3,3.4-3.3C114.3,80.8,128.3,80.8,142.3,80.8z
	 M99.7,141.8c28.3,0,56.4,0,84.6,0c0-19.5,0-38.9,0-58.2c-28.3,0-56.5,0-84.6,0C99.7,103.1,99.7,122.4,99.7,141.8z"/>
<path class="st1" d="M141.9,77.5c-7.8,0-15.7,0-23.5,0c-3.4,0-4.3-1-4.3-4.4c0-3.7,0.9-4.8,4.2-4.8c15.8,0,31.7,0,47.5,0
	c3.2,0,4.2,1.1,4.2,4.6c0,3.5-0.9,4.6-4.1,4.6C157.9,77.5,149.9,77.5,141.9,77.5z M142.1,75.7c7.7,0,15.3-0.1,23,0
	c2.1,0,3-0.6,3-2.9c0-2.2-0.8-2.7-2.9-2.7c-15.5,0.1-31,0.1-46.5,0c-2,0-2.8,0.5-2.9,2.7c0,2.3,0.8,2.9,3,2.9
	C126.6,75.6,134.4,75.7,142.1,75.7z"/>
<path class="st1" d="M141.8,163.2c-6.3,0-12.6,0-19,0c-1.4,0-2.9,0.3-2.9-2c0-2.2,1.2-2.2,2.8-2.2c12.6,0,25.3,0,37.9,0
	c1.6,0,2.8,0,2.8,2.2c0,2.3-1.4,2-2.9,2C154.2,163.2,148,163.2,141.8,163.2z M160.7,161.2c0-0.1,0-0.1,0-0.2c-12.6,0-25.2,0-37.8,0
	c0,0.1,0,0.1,0,0.2C135.5,161.2,148.1,161.2,160.7,161.2z"/>
<path class="st1" d="M162.9,169c-0.6,0.1-1.3,0.2-1.9,0.2c-12.9,0-25.8,0-38.7,0c-1.4,0-2.4-0.1-2.4-2c0-1.6,0.5-2.2,2.2-2.2
	c6.2,0.1,12.5,0,18.7,0c6.4,0,12.8,0,19.2,0C163.5,165,163.7,165.3,162.9,169z M160.1,167.3c0,0,0-0.1,0-0.1c-12.4,0-24.8,0-37.1,0
	c0,0,0,0.1,0,0.1C135.4,167.3,147.8,167.3,160.1,167.3z"/>
<path class="st1" d="M162.8,175.2c-0.9,0-1.9,0-2.9,0c-12.3,0-24.6,0-36.9,0c-1.5,0-3,0.4-3-2.1c0-2.6,1.7-2,3.1-2
	c12.4,0,24.8,0,37.2,0C163.6,171,163.9,171.5,162.8,175.2z M160.2,173.3c0,0,0-0.1,0-0.1c-12.4,0-24.9,0-37.3,0c0,0,0,0.1,0,0.1
	C135.4,173.3,147.8,173.3,160.2,173.3z"/>
<path class="st1" d="M114.5,159.2c0,4.6-3.7,8.4-8.4,8.3c-4.6,0-8.3-3.8-8.3-8.4c0.1-4.5,3.8-8.2,8.3-8.2
	C110.7,150.8,114.5,154.6,114.5,159.2z M106,153.6c-3,0.1-5.5,2.7-5.5,5.7c0,3.1,2.6,5.6,5.7,5.6c3.1,0,5.8-2.8,5.7-5.9
	C111.7,156,109.1,153.5,106,153.6z"/>
<path class="st1" d="M185.5,159.3c-0.1,4.6-3.8,8.3-8.5,8.2c-4.5-0.1-8.1-3.8-8.1-8.3c0-4.6,3.8-8.4,8.4-8.3
	C181.9,150.9,185.6,154.7,185.5,159.3z M182.9,159.2c0-3.1-2.6-5.6-5.6-5.6c-3.2,0-5.7,2.6-5.6,5.8c0.1,3,2.7,5.6,5.7,5.5
	C180.4,164.8,182.9,162.3,182.9,159.2z"/>
<path class="st1" d="M106.1,175.4c-1.3,0-2.5-0.1-3.8,0c-1.8,0.1-2.6-0.3-2.6-2.3c0-1.9,0.9-2.3,2.5-2.2c2.7,0.1,5.4,0.1,8.1,0
	c1.7-0.1,2.2,0.6,2.2,2.2c0,1.5-0.3,2.4-2.1,2.3C109,175.3,107.6,175.4,106.1,175.4z M110.2,173.3c0-0.1,0-0.3,0-0.4
	c-2.7,0-5.5,0-8.2,0c0,0.1,0,0.3,0,0.4C104.7,173.3,107.5,173.3,110.2,173.3z"/>
<path class="st1" d="M177.2,175.4c-1.2,0-2.4,0-3.5,0c-1.5,0-2.8,0.1-2.8-2.1c0-2.2,1-2.5,2.8-2.4c2.7,0.1,5.4,0.1,8.1,0
	c1.7,0,1.9,0.9,1.9,2.3c0,1.3-0.1,2.4-1.9,2.3C180.2,175.3,178.7,175.4,177.2,175.4z M173.1,172.9c0,0.1,0,0.3,0,0.4
	c2.7,0,5.5,0,8.2,0c0-0.1,0-0.3,0-0.4C178.6,172.9,175.9,172.9,173.1,172.9z"/>
<path class="st1" d="M184.7,73c-0.1,1.9-1.8,3.5-3.7,3.3c-1.8-0.1-3.3-1.7-3.2-3.5c0.1-1.9,1.8-3.5,3.7-3.3
	C183.3,69.6,184.8,71.2,184.7,73z M183.4,73c-1-0.8-1.6-1.6-2.1-1.6c-0.6,0-1.3,0.9-1.5,1.5c-0.1,0.3,0.8,1.4,1.3,1.4
	C181.7,74.3,182.3,73.7,183.4,73z"/>
<path class="st1" d="M103.1,69.4c1.8,0,3.4,1.5,3.4,3.3c0.1,2-1.5,3.6-3.4,3.6c-2,0-3.5-1.6-3.4-3.6
	C99.7,70.9,101.2,69.4,103.1,69.4z M105.3,73c-1-0.8-1.7-1.6-2.2-1.5c-0.6,0.1-1.3,0.9-1.4,1.6c-0.1,0.3,0.9,1.3,1.3,1.3
	C103.6,74.3,104.2,73.6,105.3,73z"/>
<ellipse class="st1" cx="141.8" cy="161.2" rx="26.7" ry="0.1"/>
<ellipse class="st1" cx="141.6" cy="173.2" rx="26.4" ry="0.1"/>
<path class="st0" d="M176.3,134.1c3.3,0.4,4.6,2.4,3.5,5.3c-0.2,0.5-1.5,0.9-2.2,0.9c-6.1,0.1-12.1,0-18.2,0c-5.8,0-11.6,0-17.5,0
	c-1.5,0-3.2,0.4-3-2.1c0.1-1.9-0.7-4.4,2.7-4c0.2,0,0.5-0.1,1-0.3c0.1-2.2,0.2-4.4,0.4-6.7c0.4-7.3,4.4-11.1,11.6-11.1
	c3.3,0,6.6,0,9.9,0c7,0,11,3.9,11.4,10.8C175.9,129.3,176.1,131.6,176.3,134.1z M174.1,134c-0.1-2.6-0.3-4.9-0.4-7.3
	c0-0.5-0.1-1-0.2-1.5c-0.7-3.9-3.7-6.8-7.6-6.9c-4.4-0.1-8.8-0.1-13.1,0c-3.5,0.1-6.7,2.7-7.2,6c-0.5,3.1-0.6,6.3-0.8,9.6
	c1.1,0,1.9,0,2.7,0c1.6-7.9,5.6-11.9,11.9-12c6.3-0.1,10.4,3.8,12.3,12.1C172.3,134,173,134,174.1,134z M150,134c6.3,0,12.7,0,19,0
	c-0.1-5.8-4.6-10.1-10.1-9.8C153.6,124.5,149.5,128.9,150,134z M141,136.3c-0.6,1.6-0.2,2.3,1.4,2.3c11.2,0,22.5,0,33.7-0.1
	c0.6,0,1.3-0.8,1.9-1.3c-0.6-0.3-1.3-1-1.9-1c-10.2,0-20.4,0-30.6,0C144,136.3,142.5,136.3,141,136.3z"/>
<path class="st0" d="M169.2,102.8c0.1,7.4-3.8,12-10,12.1c-6.1,0-9.9-4.5-10-12.1c-0.4-0.1-0.9-0.1-1.4-0.2c-1-0.3-1.9-0.6-2.9-0.9
	c0.6-0.7,1.2-1.5,1.9-2.1c0.7-0.7,1.6-1.2,2.8-2c-0.5-0.9-1-1.8-1.4-2.8c-0.6-1.3-0.1-2,1.3-1.9c5.8,0.7,11.5,1.4,17.3,2.2
	c0.6,0.1,1.3,0.7,1.7,1.3c0.8,1.2,1.4,2.5,2.1,3.7C171.5,101.7,171.1,102.6,169.2,102.8z M159.1,102.6
	C159.1,102.6,159.1,102.5,159.1,102.6c-1.9-0.1-3.9,0-5.8-0.1c-1.4-0.1-2,0.4-2,1.8c-0.3,4.4,3.4,8.4,7.9,8.4c4.4,0,8.1-3.9,7.9-8.1
	c-0.1-1.5-0.6-2.1-2.1-2C163,102.7,161.1,102.6,159.1,102.6z M168.6,100.2c-1.4-1.4-2.1-2.9-3.1-3.1c-4.7-0.8-9.4-1.3-14.6-2
	c1.6,2.2,1.2,3.7-0.6,5.1C156.1,100.2,161.9,100.2,168.6,100.2z"/>
</svg>
