<?xml version="1.0" encoding="utf-8"?>
<!-- Generator: Adobe Illustrator 24.3.0, SVG Export Plug-In . SVG Version: 6.00 Build 0)  -->
<svg version="1.1" id="Layer_1" xmlns="http://www.w3.org/2000/svg" xmlns:xlink="http://www.w3.org/1999/xlink" x="0px" y="0px"
	 viewBox="0 0 256 256" style="enable-background:new 0 0 256 256;" xml:space="preserve">
<style type="text/css">
	.st0{fill:#FB9900;}
	.st1{fill:#253582;}
</style>
<g>
	<path class="st1" d="M128,244.6c-64.3,0-116.6-52.3-116.6-116.6C11.4,63.7,63.7,11.4,128,11.4S244.6,63.7,244.6,128
		C244.6,192.3,192.3,244.6,128,244.6z M128,14.2c-62.7,0-113.8,51-113.8,113.8c0,62.7,51,113.8,113.8,113.8s113.8-51,113.8-113.8
		C241.8,65.3,190.7,14.2,128,14.2z"/>
</g>
<path class="st1" d="M98.4,162.3c1.1,1.2,1.9,2,2.8,2.9c-0.3,0.4-0.6,0.8-1,1.1c-11.5,11.5-23,23-34.5,34.5c-3.5,3.5-7.8,3.5-11.3,0
	c-1.9-1.9-3.8-3.7-5.6-5.6c-2.7-2.9-2.7-7.2,0-10c12-12.1,24-24.1,36.1-36.2c1,0.9,2,1.8,2.8,2.5c1.9-1.9,3.6-3.6,5.5-5.5
	c-3-4.8-5-10-6-15.7c-3.6-21.1,12-42.1,33.3-44.6c21.3-2.6,39.8,10.9,43.8,31.8c4.3,22.3-12.5,44.1-35.1,45.8
	c-8.7,0.6-16.7-1.2-24.1-5.7c-0.9-0.5-1.4-0.5-2.1,0.2C101.6,159.4,100.1,160.8,98.4,162.3z M126,88.3
	c-19.7-0.2-36.2,15.9-36.4,35.5c-0.2,20.3,15.6,36.7,35.5,36.9c20.4,0.2,36.7-15.7,36.9-35.9C162.2,104.7,146.1,88.5,126,88.3z
	 M84.9,153.4c-0.1,0.1-0.3,0.2-0.5,0.4c-11.1,11.1-22.2,22.2-33.3,33.3c-2,2-1.9,4.5,0,6.5c1.6,1.6,3.2,3.2,4.8,4.8
	c3.1,3,5.2,3,8.2-0.1c10.6-10.6,21.3-21.3,31.9-31.9c0.3-0.3,0.6-0.8,0.8-1C92.9,161.4,88.9,157.5,84.9,153.4z M94.9,149.2
	c-1.4,1.4-3.1,3-4.6,4.6c2.1,2.1,4.2,4.2,6.1,6.1c1.6-1.6,3.3-3.2,4.6-4.5C99,153.4,97,151.4,94.9,149.2z"/>
<path class="st0" d="M193.9,188.5c-33.8,0-67.4,0-101.1,0c0-3.5,0-7,0-10.6c0.9,0,1.7,0,2.7,0c0,2.2,0.1,4.2,0,6.3
	c0,1.2,0.4,1.7,1.5,1.6c0.4,0,0.9,0,1.4,0c30,0,60.1,0,90.1,0c0.8,0,1.5,0,2.4,0c0-37.4,0-74.5,0-111.8c-6.3,0-12.4,0-18.7,0
	c0-6.2,0-12.2,0-18.3c-25.6,0-51,0-76.7,0c0,13,0,26,0,39c-2.8,0.6-2.9,0.6-2.9-1.9c0-12.6,0-25.2,0-37.8c0-0.6,0-1.3,0-2.2
	c0.8,0,1.5-0.1,2.1-0.1c25.8,0,51.6,0,77.3,0c1.5,0,2.6,0.4,3.6,1.4c5.6,5.4,11.4,10.7,17,16.2c0.6,0.6,1.2,1.7,1.2,2.6
	c0.1,38.1,0,76.1,0,114.2C194,187.5,194,187.9,193.9,188.5z M175.3,70.9c4.7,0,9.2,0,14.1,0c-4.8-4.5-9.3-8.8-14.1-13.3
	C175.3,62.3,175.3,66.6,175.3,70.9z"/>
<path class="st0" d="M156.4,75.8c0,1.1,0,1.9,0,2.8c-15.2,0-30.3,0-45.3,0c-0.6-2.7-0.5-2.8,1.9-2.8c13.8,0,27.5,0,41.3,0
	C154.9,75.8,155.5,75.8,156.4,75.8z"/>
<path class="st0" d="M111,66.5c15.1,0,30.2,0,45.2,0c0.8,2.5,0.6,2.8-1.8,2.8c-13.8,0-27.5,0-41.3,0C110.6,69.3,110.6,69.3,111,66.5
	z"/>
<path class="st0" d="M180.1,174.3c0,0.9,0,1.7,0,2.6c-15.2,0-30.2,0-45.5,0c0-0.9,0-1.7,0-2.6C149.9,174.3,164.9,174.3,180.1,174.3z
	"/>
<path class="st0" d="M180.2,164.7c0,0.8,0,1.6,0,2.5c-13.1,0-26.3,0-39.5,0c0-0.8,0-1.6,0-2.5C153.7,164.7,166.9,164.7,180.2,164.7z
	"/>
<path class="st0" d="M155.4,157.8c0-1,0-1.8,0-2.7c8.3,0,16.4,0,24.7,0c0,0.9,0,1.8,0,2.7C171.9,157.8,163.7,157.8,155.4,157.8z"/>
<path class="st0" d="M180.2,145.6c0,0.9,0,1.7,0,2.6c-5.3,0-10.5,0-15.8,0c0-0.8,0-1.6,0-2.6C169.5,145.6,174.8,145.6,180.2,145.6z"
	/>
<path class="st1" d="M125.9,150.4c-14.3,0-25.9-11.5-26-25.8c-0.1-14.3,11.6-25.9,25.9-25.9c14.3,0,25.9,11.5,25.9,25.8
	C151.7,138.8,140.2,150.4,125.9,150.4z M148.8,124.7c0.1-12.9-10-23.1-22.9-23.1c-12.7,0-23,10.1-23.1,22.8
	c-0.1,12.7,10.1,23.1,22.7,23.2C138.4,147.6,148.7,137.5,148.8,124.7z"/>
<path class="st1" d="M142,125.5c-0.4-2-0.8-3.9-1-5.9c-0.1-0.7,0.2-1.9,0.7-2.2c1.1-0.6,1.9,0.3,2,1.4c0.3,2.9,0.6,5.9,0.7,8.8
	c0,0.6-1,1.6-1.6,1.6c-1.2,0.1-1.3-1-1.2-1.9c0-0.6,0.1-1.2,0.1-1.7C141.9,125.5,141.9,125.5,142,125.5z"/>
<g>
	<path class="st0" d="M112.6,110.8c8.1,0,16.1,0,24.2,0c0,0.2,0,0.5,0,0.7c0,3.2,0.1,6.5,0,9.7c-0.3,8.6-4.3,15-11.5,19.5
		c-0.5,0.3-0.8,0.3-1.3,0c-6.6-4.1-10.8-10-11.4-17.9C112.3,118.9,112.6,114.9,112.6,110.8z M113.2,120.3c0,0.5,0,0.9,0.1,1.3
		c0.4,7.9,4.2,13.9,10.7,18.2c0.5,0.3,0.9,0.3,1.4,0c5.7-3.7,9.3-8.8,10.4-15.5c0.2-1.3,0.3-2.6,0.4-4c-2.5,0-4.9,0-7.3,0
		c0.4,1.5,0.2,1.7-1.4,2.4c0.1,1.1-0.7,1.5-1.6,1.5c-0.1,1.1-0.4,1.5-1.1,1.6c-0.7,0.1-1-0.2-1.3-1.2c0-0.1-0.2-0.3-0.3-0.3
		c-1,0-1.4-0.6-1.4-1.5c-1.5-0.4-1.7-0.7-1.4-2.4C118,120.3,115.7,120.3,113.2,120.3z M136.1,119.5c0-2.6,0-5.3,0-7.9
		c-7.6,0-15.2,0-22.8,0c0,2.6,0,5.2,0,7.9C120.9,119.5,128.5,119.5,136.1,119.5z"/>
	<path class="st0" d="M114,121c1,0.1,1.3,0.4,1.5,1.5c1.4,0.4,1.5,0.5,1.6,1.7c1,0,1.7,0.4,1.6,1.6c1.4,0.3,1.5,0.4,1.7,1.6
		c0.7,0.2,1.5,0.3,1.5,1.3c0,0.7-0.4,1-1.5,1.3c-0.2,1.1-0.4,1.4-1.6,1.6c0,0.7-0.2,1.2-1,1.4C115.3,129.3,114,125.4,114,121z"/>
	<path class="st0" d="M131.4,132.8c-0.3-0.4-0.6-0.9-0.9-1.5c-0.7-0.1-1.3-0.5-1.3-1.5c-1.1-0.2-1.5-0.6-1.6-1.2
		c0-0.7,0.4-1.1,1.6-1.3c0.1-1.2,0.3-1.4,1.6-1.6c-0.1-1.1,0.5-1.6,1.6-1.6c0.2-1.3,0.3-1.4,1.6-1.6c0.3-1.1,0.5-1.4,1.4-1.5
		C135.3,125.3,134,129.2,131.4,132.8z"/>
	<path class="st0" d="M123.4,132.9c0.2-1,0.6-1.5,1.3-1.5c0.7,0,1.2,0.5,1.3,1.5c1.3,0.1,1.6,0.3,1.7,1.6c0.2,0,0.5-0.1,0.7,0.1
		c0.3,0.2,0.6,0.4,0.8,0.7c0.1,0.1-0.1,0.6-0.3,0.7c-1.2,1-2.4,2-3.7,3c-0.4,0.3-0.7,0.3-1.1,0c-1.2-1-2.4-1.9-3.6-2.9
		c-0.2-0.2-0.4-0.6-0.3-0.8c0.2-0.3,0.5-0.5,0.9-0.7c0.2-0.1,0.5,0,0.7,0C122,133.1,122.1,133,123.4,132.9z"/>
</g>
</svg>
