<?xml version="1.0" encoding="utf-8"?>
<!-- Generator: Adobe Illustrator 24.3.0, SVG Export Plug-In . SVG Version: 6.00 Build 0)  -->
<svg version="1.1" id="Layer_1" xmlns="http://www.w3.org/2000/svg" xmlns:xlink="http://www.w3.org/1999/xlink" x="0px" y="0px"
	 viewBox="0 0 256 256" style="enable-background:new 0 0 256 256;" xml:space="preserve">
<style type="text/css">
	.st0{fill:#FB9900;}
	.st1{fill:#253582;}
</style>
<g>
	<path class="st1" d="M128,244.6c-64.3,0-116.6-52.3-116.6-116.6C11.4,63.7,63.7,11.4,128,11.4S244.6,63.7,244.6,128
		C244.6,192.3,192.3,244.6,128,244.6z M128,14.2c-62.7,0-113.8,51-113.8,113.8c0,62.7,51,113.8,113.8,113.8s113.8-51,113.8-113.8
		C241.8,65.3,190.7,14.2,128,14.2z"/>
</g>
<path class="st1" d="M165.9,86.4c0,32.9,0,65.8,0,98.8c-0.7,0-1.4,0-2.1,0c-17.2,0-34.4,0-51.6,0c-6.6,0-11.6,3.5-13.4,9.2
	c-1.2,4-0.6,7.8,1.8,11.5c-4.3,0-8.4,0-12.6,0c0-24.2,0-48.4,0-72.8c1.7,0,3.3,0,5,0c0-3.1-0.1-6,3.2-7.4c3.3-1.3,5.4,0.7,7.2,2.7
	c3.8-3.7,7.4-7.3,11.2-11c-0.6-0.6-1.2-1.3-1.8-1.9c-1.5-1.6-1.9-3.5-1-5.5c0.9-2,2.5-2.9,4.6-3c2.8-0.1,2.8-0.1,2.8-2.9
	c0-5.9,0-11.8,0-17.8C134.8,86.4,150.3,86.4,165.9,86.4z M129.7,112.2c0,10.5,0,20.8,0,31.2c10.5,0,20.8,0,31.2,0
	c0-10.5,0-20.8,0-31.2C150.4,112.2,140.1,112.2,129.7,112.2z M160.9,148.8c-10.5,0-20.8,0-31.2,0c0,10.4,0,20.8,0,31.2
	c10.5,0,20.8,0,31.2,0C160.9,169.6,160.9,159.3,160.9,148.8z M160.9,91.5c-12.3,0-24.4,0-36.6,0c0,1.2,0.1,2.4,0,3.4
	c-0.1,1.3,0.3,1.8,1.7,1.8c11.1-0.1,22.2,0,33.3,0c0.5,0,1-0.1,1.6-0.1C160.9,94.8,160.9,93.2,160.9,91.5z M124.3,101.8
	c0,1.3,0.1,2.4,0,3.6c-0.1,1.4,0.4,1.8,1.8,1.8c11.1-0.1,22.1,0,33.2,0c0.6,0,1.1-0.1,1.6-0.1c0-1.9,0-3.5,0-5.2
	C148.7,101.8,136.6,101.8,124.3,101.8z M124.3,148.9c-10.5,0-20.8,0-31.2,0c0,1.7,0,3.3,0,5c10.5,0,20.8,0,31.2,0
	C124.3,152.1,124.3,150.5,124.3,148.9z M124.3,159.3c-10.5,0-20.9,0-31.2,0c0,1.7,0,3.3,0,5c10.5,0,20.8,0,31.2,0
	C124.3,162.6,124.3,161,124.3,159.3z M103.5,143.5c7,0,13.8,0,20.8,0c0-1.7,0-3.4,0-5.1c-7,0-13.8,0-20.8,0
	C103.5,140.1,103.5,141.7,103.5,143.5z M124.3,133.1c0-1.7,0-3.4,0-5.1c-5.2,0-10.3,0-15.5,0c0,1.8,0,3.4,0,5.1
	C114,133.1,119.1,133.1,124.3,133.1z M103.4,169.7c-3.6,0-7,0-10.4,0c0,1.7,0,3.3,0,5c3.5,0,6.9,0,10.4,0
	C103.4,173,103.4,171.4,103.4,169.7z M108.8,174.8c1.7,0,3.4,0,5.1,0c0-1.8,0-3.4,0-5.1c-1.8,0-3.4,0-5.1,0
	C108.8,171.5,108.8,173.1,108.8,174.8z"/>
<path class="st0" d="M56.7,91.2c0-5.1,0-10.1,0-15.3c19,0,38,0,57.1,0c0,5.1,0,10.1,0,15.3C94.8,91.2,75.9,91.2,56.7,91.2z"/>
<path class="st1" d="M171.4,80.8c-17.5,0-34.7,0-52.1,0c0-1.7,0-3.2,0-4.8c18.9,0,37.8,0,56.9,0c0,0.6,0.1,1.2,0.1,1.8
	c0,9.1,0,18.2,0,27.3c0,1.3,0.1,2.3,1.8,2.1c0.2,0,0.8,0.5,0.8,0.8c0.1,1.3,0,2.6,0,4c-0.9,0.1-1.6,0.1-2.6,0.2c0,1.5-0.1,3,0,4.5
	c0,0.3,0.7,0.8,1,0.8c1.4-0.1,1.6,0.5,1.5,1.7c-0.1,1,0,2.1,0,3.1c-2.8,0.6-2.7,0.6-2.7,4.4c0,2,1.6,1,2.6,1.6c0,1.2,0,2.6,0,4
	c0,0.2-0.7,0.7-1,0.6c-1.4-0.1-1.6,0.6-1.6,1.8c0,10.4,0,20.8,0,31.3c0,5.7,0,11.4,0,17.1c0,0.6,0,1.2,0,2c-1.7,0-3.3,0-5,0
	C171.4,150.3,171.4,115.7,171.4,80.8z"/>
<path class="st0" d="M63,117.6c2-3.9,1.9-7.6-0.3-11.2c-1.2-1.9-2.9-3.1-5-4c-0.4-0.2-1-0.6-1-1c-0.1-1.5,0-3,0-4.6
	c3.5,0,6.9,0,10.4,0c-0.6,6.5,1.4,12,6.4,16.3c3.5,3,7.6,4.5,12.2,4.4c5.4-0.1,10-2.3,13.5-6.4c3.5-4.1,4.8-8.9,4.3-14.3
	c3.5,0,6.8,0,10.4,0c0,1.6,0,3.1,0,4.7c0,0.3-0.3,0.6-0.6,0.8c-6.9,3.6-8.6,8.1-5.7,15.4c-1.1,1-2.3,2.2-3.5,3.2
	c-0.3,0.2-1,0.3-1.3,0.2c-6.2-2.4-11.5-0.1-14.3,5.9c-0.9,2.1-3,0.6-4.5,0.9c-0.7,0.2-1.4,0.1-1.9-0.9c-2.5-6-8.1-8.3-14.1-5.9
	c-0.4,0.2-1.2,0.1-1.6-0.2C65.2,119.8,64.1,118.7,63,117.6z"/>
<path class="st0" d="M46.3,70.3c0-1.6,0-3.2,0-4.8c25.9,0,51.8,0,77.8,0c0,1.6,0,3.1,0,4.8C98.3,70.3,72.4,70.3,46.3,70.3z"/>
<path class="st0" d="M129.8,195.5c0-1.7,0-3.2,0-4.8c15.5,0,30.9,0,46.5,0c0,1.5,0,3.1,0,4.8C160.8,195.5,145.4,195.5,129.8,195.5z"
	/>
<path class="st0" d="M176.3,201.1c0,1.6,0,3.2,0,4.8c-15.5,0-31,0-46.5,0c0-1.5,0-3.1,0-4.8C145.2,201.1,160.7,201.1,176.3,201.1z"
	/>
<path class="st0" d="M113.8,190.6c0,5.1,0,10.2,0,15.3c-3.4,0.5-6.4,0-8.5-2.8c-2-2.6-2.3-5.5-0.8-8.4
	C106.4,191.1,109.8,190.2,113.8,190.6z"/>
<path class="st0" d="M124.2,206c-1.6,0-3.2,0-4.9,0c0-5.1,0-10.2,0-15.4c1.6,0,3.2,0,4.9,0C124.2,195.7,124.2,200.8,124.2,206z"/>
<path class="st0" d="M181.9,204.9c0-4.5,0-8.7,0-13.1c1.6,0.6,3.1,1.1,4.5,1.7c0.3,0.1,0.5,0.8,0.5,1.2c0,2.5,0,4.9,0,7.4
	c0,0.4-0.2,1-0.5,1.1C184.9,203.8,183.4,204.3,181.9,204.9z"/>
<path class="st0" d="M87.7,59.9c-1.8,0-3.3,0-5,0c0-1.7-0.6-3.4,1.1-4.5c0.7-0.4,2-0.4,2.7,0C88.3,56.4,87.7,58.2,87.7,59.9z"/>
<path class="st0" d="M192.3,200.9c0-1.7,0-3.2,0-5.1c1.5,0.6,3,1,4.4,1.8c0.8,0.4,0.7,1.3-0.2,1.7
	C195.2,199.9,193.8,200.3,192.3,200.9z"/>
<path class="st1" d="M155.5,117.9c0,0.6,0,1.2,0,1.8c0,5.6,0,11.3,0,16.9c0,1.2-0.3,1.6-1.5,1.6c-5.8,0-11.7,0-17.5,0
	c-1.1,0-1.5-0.4-1.5-1.5c0-5.9,0-11.8,0-17.7c0-0.7,0-1.3,1.1-1.3c6.3,0,12.5,0,18.8,0C155,117.7,155.1,117.8,155.5,117.9z
	 M141.9,135.1c0.5-0.4,0.9-0.8,1.3-1.2c2.2-2.1,4.3-4.3,6.5-6.5c3-3,3-3,0-5.9c-0.8-0.8-1.3-0.7-2,0.1c-2.4,2.4-4.8,4.9-7.2,7.2
	c-0.8,0.8-1.7,1.3-2.7,2C139.3,132.6,140.6,133.8,141.9,135.1z"/>
<path class="st1" d="M155.5,174.7c-1.3,0-2.4,0-3.5,0c-5.2,0-10.3,0-15.5,0c-1.2,0-1.5-0.4-1.5-1.5c0-5.8,0-11.6,0-17.3
	c0-1.1,0.3-1.6,1.5-1.6c5.9,0.1,11.8,0,17.7,0c0.8,0,1.3,0.1,1.3,1.1C155.5,161.6,155.5,168,155.5,174.7z M141.6,171.4
	c3.6-3.6,7-7.1,10.3-10.4c-1.1-1.1-2.2-2.4-3.1-3.4c-3.5,3.5-7,6.9-10.5,10.4C139.3,169.1,140.5,170.3,141.6,171.4z"/>
</svg>
