<?xml version="1.0" encoding="utf-8"?>
<!-- Generator: Adobe Illustrator 24.3.0, SVG Export Plug-In . SVG Version: 6.00 Build 0)  -->
<svg version="1.1" id="Layer_1" xmlns="http://www.w3.org/2000/svg" xmlns:xlink="http://www.w3.org/1999/xlink" x="0px" y="0px"
	 viewBox="0 0 256 256" style="enable-background:new 0 0 256 256;" xml:space="preserve">
<style type="text/css">
	.st0{fill:#FB9900;}
	.st1{fill:#253582;}
</style>
<g>
	<path class="st1" d="M128,244.6c-64.3,0-116.6-52.3-116.6-116.6C11.4,63.7,63.7,11.4,128,11.4S244.6,63.7,244.6,128
		C244.6,192.3,192.3,244.6,128,244.6z M128,14.2c-62.7,0-113.8,51-113.8,113.8c0,62.7,51,113.8,113.8,113.8s113.8-51,113.8-113.8
		C241.8,65.3,190.7,14.2,128,14.2z"/>
</g>
<path class="st0" d="M187.6,103.6c-1,2.3-1.7,4-2.4,5.6c-3.9,9.3-7.7,18.5-11.6,27.8c-1.7,4-1.7,4-6.5,3.6c0.3-0.6,0.5-1.2,0.7-1.7
	c2-4.2,4.2-8.4,6.1-12.7c0.4-0.9,0.5-2.1,0.1-3c-3.6-9-7.3-17.9-11.1-26.8c-2.3-5.3-9-7.1-13.9-4.1c-3.2,2-5,8.3,0.1,10.9
	c3.2,1.7,6.5,3.2,9.8,4.8c3.4,1.7,6.5,3.6,7.6,7.6c1.6,5.6-1.3,11.2-7,13.4c-5.2,2-10.4,1.9-15.7,0.4c-2-0.6-3-1.7-2.7-3.9
	c0.2-1,0-2.1,0-3.6c1,0.7,1.7,1.3,2.4,1.8c4.1,3.1,8.8,4,13.7,2.7c2.8-0.8,4.7-2.7,5.1-5.7c0.3-2.7-1.1-4.6-3.3-6
	c-1.3-0.9-2.7-1.6-4.1-2.3c-4.2-2.1-8.4-4.2-12.3-6.2c-0.3,2.6-0.3,5.9-1.1,8.9c-1.8,7.1-6,12.2-13.1,14.6
	c-9.2,3.1-19.3-2.1-23-11.9c-3.4-9.2-1.9-17.6,4.8-24.9c0.3-0.4,0.6-0.7,1.3-1.5c-1-0.2-1.6-0.3-2.3-0.3c-2.9,0-5.9,0.1-8.8,0
	c-1.8-0.1-2.3,0.6-2.3,2.3c0.1,11,0.1,22.1,0,33.1c0,0.8-0.4,2.3-0.7,2.3c-1.4,0.2-3,0.1-4.4-0.2c-0.3,0-0.4-1.4-0.4-2.1
	c0-10.8,0-21.5,0-32.3c0-3.1,0-3-3.1-3.3c-0.7-0.1-1.8-0.6-2-1.2c-0.5-1.4,0.3-2.2,1.8-2c2.4,0.3,3.4-0.4,3.9-3
	c1.3-6.3,5.5-9.4,11.9-9.4c1.8,0,3.6,0.2,5.3,0.3c1.8,0.1,2.5,1,2.3,2.8c-0.1,0.8,0,1.7,0,2.1c-3-0.7-5.8-1.7-8.8-2
	c-4.9-0.4-6.7,4.3-6.1,7.8c0.1,0.5,1.2,1.3,1.8,1.3c6.8,0.1,13.6,0.5,20.3-0.1c8.5-0.7,14.6,2.6,19.1,9.6c0.4,0.6,0.8,1.3,1.2,1.9
	c0.3-0.2,0.5-0.3,0.5-0.4c1.1-6.8,5.1-10.5,12.3-10.8c3.5-0.1,6.9,0.5,10.4,0.7c1.4,0.1,2.3,0.8,2.8,2.1c3.6,9,7.2,17.9,10.9,26.9
	c0.1,0.3,0.3,0.6,0.7,1.2c0.7-1.8,1.3-3.2,1.9-4.7c2.5-6.2,5.1-12.4,7.5-18.6c1.2-3.2,3.5-5.3,6.7-6.5c4.5-1.6,9.1-1.5,13.7-0.6
	c1.8,0.4,2.6,1.2,2.3,3.1c-0.1,0.9,0,1.8,0,3c-1.7-0.9-3.1-1.8-4.5-2.5c-3-1.4-6.1-1.6-9.2-0.6c-2.8,0.9-4.4,2.8-4.7,5.7
	c-0.4,2.9,0.9,5,3.5,6.3c2.7,1.4,5.5,2.7,8.2,4.1c1.5,0.8,3,1.6,4.5,2.5c6.6,4,5.4,14.2-0.2,17.5c-6.5,3.8-13.2,3.9-20,1
	c-0.7-0.3-1.4-1.5-1.5-2.4c-0.3-1.4-0.1-2.9-0.1-4.6c1.9,1.3,3.5,2.5,5.2,3.5c3.8,2.1,7.7,2.8,11.9,1.3c2.6-0.9,4.3-2.6,4.8-5.3
	c0.5-2.7-0.8-4.8-3-6.2c-2.7-1.6-5.6-3-8.5-4.3C193,109.3,189.7,107.7,187.6,103.6z M136.4,109.4c0.1-4.6-1.3-9.2-4.5-13.1
	c-4.9-6.1-12.7-6.3-17.9-0.4c-6.4,7.2-6.2,20.7,0.5,27.7c5.1,5.3,11.8,5.4,16.9,0.1C135.1,119.7,136.5,115,136.4,109.4z"/>
<path class="st0" d="M62.1,92.4c2.8-1.4,5.3-3.2,8.1-3.9c2.5-0.7,5.4-0.7,8-0.2c4.8,0.9,8.2,5.5,8.3,10.3c0,9.4-0.1,18.8,0.1,28.2
	c0,2.1-0.8,2.4-2.6,2.5c-1.9,0-2.8-0.3-2.8-2.5c0.1-8.5,0.1-16.9,0-25.4c0-6.2-4.1-10.1-9.9-9.7c-5.3,0.4-9.2,4.5-9.2,9.8
	c0,8.5-0.1,16.9,0,25.4c0,2.1-0.8,2.5-2.6,2.4c-1.7,0-2.7-0.1-2.7-2.3c0.1-12,0.1-24.1,0-36.1c0-1.9,0.6-2.5,2.4-2.4
	c1.7,0.1,3.2,0,2.8,2.4C61.9,91.5,62,92.1,62.1,92.4z"/>
<path class="st0" d="M49.6,102.6c0,8-0.1,16.1,0.1,24.1c0,2.5-1.2,2.5-3,2.5c-1.8,0-2.9-0.1-2.8-2.5c0.1-16.2,0.1-32.5,0-48.7
	c0-2.2,0.9-2.5,2.7-2.4c1.6,0.1,3.2-0.4,3.2,2.3C49.5,86.2,49.6,94.4,49.6,102.6z"/>
<path class="st1" d="M207.9,174.1c-1.3,0.2-3.1,0.8-5,0.9c-2.1,0.1-3.8-1.4-3.9-3.5c-0.2-3.3-0.1-6.6-0.1-10
	c3.3,0.6,3.5,0.8,3.5,3.9c0,1.3,0,2.6,0,3.8c0,1.7,1.1,2.6,2.6,2.5c1.5-0.1,3.5-0.3,3.7-2.4c0.2-1.4,0-2.8,0-4.4
	c1,0.4,1.7,0.6,2.5,0.9c0-0.3,0-0.5,0-0.5c-2.4-1.2-2.7-3.3-2.6-5.7c0.2-2.3,0.1-4.6,0-6.8c0-2-1.7-3.3-3.9-3.2
	c-1.8,0.1-2.6,1.2-2.5,3c0.1,2.2,0,4.4,0,6.6c-3.2-0.7-3.6-1.1-3.6-4.1c0-1.3,0-2.6,0-3.8c0.2-4.1,3.2-6.1,7.1-4.6
	c0.8,0.3,1.6,0.7,2.8,1.3c0-2.9,0-5.5,0-8.1c0-1.3-0.3-2.6,1.8-2.5c1.9,0,1.7,1.2,1.7,2.4c0,11,0.1,21.9,0,32.9c0,0.8-0.6,2.2-1,2.3
	C210.4,175,209.3,174.4,207.9,174.1z"/>
<path class="st1" d="M131.4,152.4c0,3.6,0,7.1,0,10.6c0,4,0,8,0,12c-0.1,4.1-2,6-6.1,6c-0.9,0-1.9,0-2.8,0c-3-0.2-4.5-1.5-4.8-4.4
	c-0.1-0.7,0.4-1.9,0.9-2.1c1-0.3,2.4-0.6,2.6,1.4c0.1,2.1,1.9,1.9,3.4,2c1.6,0.1,2.8-0.4,3.1-2.2c0.1-0.5,0.1-1,0.1-1.5
	c0-1.2,0-2.4,0-3.9c-1.4,0.5-2.5,1-3.6,1.3c-3.8,1.1-6.6-1-6.6-4.9c0-2.6,0-5.3,0-7.9c0-2.9,0.1-3,3.6-3.5c0,2.4,0,4.8,0,7.2
	c0,0.8,0,1.6,0,2.4c0,2.7,0.8,3.6,2.8,3.6c2.6,0,3.8-1.2,3.8-3.7c0-3,0-6,0-9C127.8,152.8,127.8,152.8,131.4,152.4z"/>
<path class="st1" d="M139.1,151c0,5.8,0,11.4,0,17c0,2.3,1.5,3.7,3.9,3.7c1.8,0,2.7-1.1,2.7-3.6c0-5.8,0-11.6,0-17.5
	c3.6-0.7,3.7-0.6,3.7,2.9c0,5,0,10,0,14.9c0,6.2-3.7,8.3-9.2,5.2c-0.2-0.1-0.4-0.2-0.7-0.3c-0.4,1.8-1.9,1.8-3.1,1.3
	c-0.5-0.2-0.8-1.5-0.8-2.3c-0.1-5.9,0-11.8,0-17.7C135.5,151.6,135.5,151.6,139.1,151z"/>
<path class="st1" d="M156.8,150.9c0,6.1,0,11.7,0,17.4c0,2.5,0.9,3.4,3.1,3.5c2.4,0.1,3.5-0.9,3.5-3.2c0-4.8,0-9.7,0-14.5
	c0-0.7,0-1.4,0-2.1c3.4-0.6,3.6-0.4,3.6,2.7c0,4.8,0,9.5,0,14.3c0,4.1-1.8,5.9-5.8,6c-0.7,0-1.4,0-2.1,0c-3.8-0.2-5.8-2-5.8-5.9
	c-0.1-5.5-0.1-11.1,0-16.7C153.2,149.7,155.4,151.4,156.8,150.9z"/>
<path class="st1" d="M58.2,159.3c-1.6,0.9-2.6,1.4-3.4,1.8c-2.4-1.8-4.6-3.6-7-5.2c-2.8-1.9-4.2-4.3-4-7.7c0.2-2.2,0.1-4.4,0.5-6.6
	c0.3-1.8,1.5-3.2,3.3-3.5c2.1-0.3,4.4-0.4,6.5-0.1c2.4,0.4,3.8,2.2,3.9,4.7c0.1,2.1,0,4.1,0.1,6.2c0,1.3-0.5,1.7-1.8,1.7
	c-1.2,0-1.9-0.3-1.8-1.7c0.1-1.6,0-3.1,0-4.7c-0.1-2.3-1.3-3.4-3.5-3.4c-2.2,0-3.3,1.1-3.3,3.3c0.1,7.6-1.1,6.1,5.3,10.8
	C54.8,156.2,56.3,157.7,58.2,159.3z"/>
<path class="st1" d="M180.6,155c3.5,0.5,3.5,0.5,3.5,3.5c0,4.6,0,9.1,0,13.7c0,0.9-0.4,2.6-0.8,2.6c-1.1,0.2-2.3-0.3-4-0.7
	c-1.1,0.2-2.9,0.8-4.7,0.9c-2.1,0.1-3.6-1.5-3.7-3.6c-0.1-2.6-0.1-5.1,0-7.7c0.1-1.8,1-3.3,2.7-4c1.3-0.6,2.6-1.1,4-1.5
	C179.1,157.8,180.7,157.2,180.6,155z M180.3,161c-5.1,0.5-6.1,1.6-6.1,6.1c0,0.7,0,1.4,0,2.1c0,1.5,0.8,2.6,2.3,2.5
	c1.5-0.1,3.5-0.3,3.7-2.1C180.5,166.8,180.3,164,180.3,161z"/>
<path class="st1" d="M72.6,160.6c3.2-0.3,3.6,0.1,3.7,2.7c0,2.2,0.1,4.4,0,6.6c-0.2,4.4-3.5,6.4-7.6,4.7c-0.6-0.3-1.3-0.6-2.4-1.2
	c0,2-0.1,3.7,0,5.4c0.1,1.4-0.4,1.9-1.8,1.9c-1.4,0-1.9-0.5-1.9-1.9c0-5.4,0.1-10.8,0-16.2c0-1.9,1.2-2.1,2.4-2.2
	c1.7-0.2,1.2,1.2,1.2,2.1c0.1,2.1,0,4.1,0,6.2c0,1.8,1.6,3.2,3.8,3.1c1.8-0.1,2.6-1.1,2.6-3C72.5,166.1,72.6,163.3,72.6,160.6z"/>
<path class="st1" d="M58.7,162.3c-0.2,2.9-0.4,5.9-0.6,8.8c-0.1,0.6-0.4,1.2-0.8,1.7c-2.5,3.2-6,2.4-9.3,2c-2.4-0.3-3.9-2.3-4.1-5.1
	c-0.2-2.5-0.1-5.1,0-7.7c0-0.5,1-1.1,1.6-1.2c0.9-0.2,1.9-0.2,1.9,1.2c0,1.9,0,3.8,0,5.8c0.1,2.9,1.1,4,3.5,4c2.5,0,3.5-1.1,3.5-4
	c0-0.8,0-1.6,0-2.3C54.6,162.6,55.3,162,58.7,162.3z"/>
<path class="st1" d="M99.9,162.1c0-4.9,0-9.5,0-14.1c0-0.4,0.7-1.2,1.1-1.2c1,0,1.9,0.4,2.8,0.9c2.1-1.1,4.4-2,6.9-1
	c0.9,0.4,1.8,1.3,2.2,2.1c1.5,3.3,0.4,5.9-3.1,7.1c0-1.3,0-2.6,0-3.8c0-1.5-0.7-2.4-2.3-2.6c-1.9-0.2-4,1.2-4.1,2.6
	c-0.1,1.5,0,3,0,4.5C103.5,160,103.5,160,99.9,162.1z"/>
<path class="st1" d="M62.7,157.6c0-3.3,0-6.5,0-9.7c0-0.4,0.6-1.2,0.8-1.2c1.1,0,2.1,0.3,3.6,0.6c1.1-0.3,2.7-0.9,4.4-1
	c2.5-0.2,4.2,1.5,4.4,3.9c0.1,1.9,0.2,3.8,0,5.7c0,0.5-1,1.4-1.3,1.4c-0.8-0.2-1.9-0.7-2.1-1.4c-0.3-1.2-0.1-2.5-0.1-3.8
	c0-1.8-1-2.6-2.7-2.6c-2,0-3.6,1.2-3.7,2.7c0,0.7,0,1.4,0,2.1C66.2,157.3,66.2,157.3,62.7,157.6z"/>
<path class="st1" d="M95.2,167c-2.1-1-3.5-2.1-3.3-4.7c0.2-4.5,0.1-9.1,0-13.6c0-1.3,0.2-2.2,1.8-2.1c1.5,0,1.7,0.8,1.7,2
	c0,5.6,0,11.2,0,16.8C95.4,165.9,95.2,166.4,95.2,167z"/>
<path class="st1" d="M84.4,148.7c1.2-0.9,2.4-1.8,3.6-2.7c1.1,3.3,0.8,3.9-1.7,4.8c-1.7,0.6-2.5,1.7-2.4,3.5c0.1,1.8,0,3.5,0,5.3
	c-3.3-0.3-3.6-0.6-3.6-3.6c0-2.4,0-4.8,0-7.3c0-0.9-0.3-2.1,1.3-2.2c1.4-0.1,2.4,0.1,2.4,1.8C84,148.5,84.2,148.6,84.4,148.7z"/>
<path class="st1" d="M188.1,157.3c3.6,0.6,3.6,0.6,3.6,3.7c0,4,0,8.1,0,12.1c0,1.4-0.4,1.9-1.8,1.9c-1.4,0-1.9-0.5-1.9-1.8
	C188.1,167.9,188.1,162.7,188.1,157.3z"/>
<path class="st1" d="M113.4,158.6c0,5,0,10.1,0,15.1c0,1.5-1,1.2-1.9,1.3c-1,0-1.7-0.1-1.6-1.3c0-4.2-0.2-8.4,0.1-12.5
	c0.1-1,1.7-2,2.7-2.9C112.9,158.3,113.1,158.5,113.4,158.6z"/>
<path class="st1" d="M126.8,147.6c1.3-0.4,2.2-0.8,3.1-0.9c0.4,0,1.3,0.6,1.3,0.9c0,0.6-0.5,1.5-0.9,1.6c-1.8,0.3-3.7,0.3-5.6,0.6
	c-1.1,0.1-2.2,0.3-3.1,0.8c-1.2,0.6-2.3,1.6-3.7,2.6c-0.7-2.7-0.2-4.6,1.5-5.9C122.1,145.3,124.7,146.3,126.8,147.6z"/>
<path class="st1" d="M192.1,149.2c0.7-0.9,1.2-1.5,1.8-2c0.6-0.4,1.4-0.6,2.1-0.8c0.2,0.6,0.5,1.3,0.4,1.9c-0.1,0.7-0.5,1.5-0.9,2.1
	c-0.1,0.2-0.7,0.1-1,0.2c-1.8,0.5-3.1,1.4-2.9,3.5c-3.1-0.3-3.4-0.6-3.4-3.4c0-0.6,0-1.1,0-1.7c0.1-1-0.4-2.4,1.4-2.5
	C191.2,146.5,191.5,146.7,192.1,149.2z"/>
<path class="st1" d="M80.3,162.4c3.5,0.7,3.6,0.9,3.7,4c0,2.3,0,4.7,0,7c0,1.4-0.6,1.7-1.8,1.6c-1.2,0-1.9-0.2-1.8-1.6
	C80.3,169.7,80.3,166.1,80.3,162.4z"/>
<path class="st1" d="M183.9,151.8c-4-1-7.9-2-11.7-3c1.2-2.3,3.7-3.1,7.3-2.5C182.1,146.8,183.3,148.3,183.9,151.8z"/>
<path class="st1" d="M135.6,142.5c0-1.1,0.1-2.1,0-3.2c-0.1-1.4,0.2-2.1,1.8-2.1c1.6,0,1.7,0.8,1.7,2c0,2.3-0.1,4.5,0,6.8
	c0,1.6-0.9,1.9-2.2,1.9c-1.5,0.1-1.3-0.9-1.3-1.9C135.6,145,135.6,143.7,135.6,142.5z"/>
<path class="st1" d="M103.5,164.6c0,3,0.1,6.1-0.1,9.1c0,0.4-1,1.2-1.4,1.2c-0.7,0-2-0.6-2-1c-0.2-2.1-0.4-4.3,0.1-6.4
	c0.3-1.2,1.8-2.1,2.8-3.2C103.1,164.4,103.3,164.5,103.5,164.6z"/>
<path class="st1" d="M93.7,143.4c-1.7,0-2.7-1.1-2.7-2.8c0-1.6,1.3-2.9,2.8-2.9c1.4,0,2.9,1.6,2.9,2.9
	C96.6,142.2,95.3,143.4,93.7,143.4z"/>
<path class="st1" d="M95.7,172.5c-0.3,0.6-0.6,2.1-1.3,2.3c-1.9,0.7-2.5,0-2.5-2c0-1,0-2,0-3.1C93.1,170.6,94.1,171.4,95.7,172.5z"
	/>
<path class="st1" d="M155.9,147.1c3.5-1.5,7.4-1,9.3,0.9C162.2,147.6,159.2,147.4,155.9,147.1z"/>
<path class="st1" d="M171.2,152.9c1.3,0.5,3.4-0.6,3.3,1.8c0,1.7-1.5,1.1-2.3,1C170.1,155.6,171.5,153.9,171.2,152.9z"/>
<path class="st1" d="M140.5,147.4c2.3-1.4,4.3-1.6,6.9-0.4C144.9,147.2,142.9,147.3,140.5,147.4z"/>
</svg>
