<?xml version="1.0" encoding="utf-8"?>
<!-- Generator: Adobe Illustrator 24.3.0, SVG Export Plug-In . SVG Version: 6.00 Build 0)  -->
<svg version="1.1" id="Layer_1" xmlns="http://www.w3.org/2000/svg" xmlns:xlink="http://www.w3.org/1999/xlink" x="0px" y="0px"
	 viewBox="0 0 256 256" style="enable-background:new 0 0 256 256;" xml:space="preserve">
<style type="text/css">
	.st0{fill:#FB9900;}
	.st1{fill:#253582;}
</style>
<g>
	<path class="st1" d="M128,244.6c-64.3,0-116.6-52.3-116.6-116.6C11.4,63.7,63.7,11.4,128,11.4S244.6,63.7,244.6,128
		C244.6,192.3,192.3,244.6,128,244.6z M128,14.2c-62.7,0-113.8,51-113.8,113.8c0,62.7,51,113.8,113.8,113.8s113.8-51,113.8-113.8
		C241.8,65.3,190.7,14.2,128,14.2z"/>
</g>
<path class="st0" d="M141.1,154.2c-1.4-1.5-2.7-3-4.1-4.4c-2.4-2.4-4.8-4.8-7.3-7.1c-1.6-1.5-3.4-2.2-5.7-2.1
	c-4.4,0.3-10.3,6.8-10.2,11.2c0.1,2.6,1.2,4.8,2.9,6.6c6,6.3,12.1,12.6,18.2,18.8c4.3,4.3,8.7,4.3,13,0c6.5-6.6,12.8-13.2,19.2-19.8
	c0.4-0.4,0.6-0.9,0.9-1.4c0.2,0.1,0.4,0.2,0.6,0.3c0.8,2.8,1.7,5.5,2.3,8.3c0.8,4.6,1.7,9.2,1.9,13.8c0.3,5.7-3.9,9.8-9.6,9.8
	c-24.4,0-48.8,0-73.2,0c-5.2,0-8-2.9-8.1-8.1c-0.2-9.8,1-19.3,5.7-28c5.2-9.7,12-18,22.1-22.9c13.5-6.5,33-6,46.1,6.9
	c0.4,0.4,0.9,0.7,1.5,1.1C151.8,143,146.6,148.4,141.1,154.2z"/>
<path class="st0" d="M151.4,95.4c-0.2,7.4-2.9,14.6-9.1,20.2c-9,8-21.5,7.7-30.2-0.6c-11.1-10.6-11.2-30.1,0-40.8
	c10.5-10,26.4-8,34.5,4.3C149.9,83.4,151.4,88.8,151.4,95.4z"/>
<path class="st1" d="M103.2,126.2c-0.5,0.4-0.9,0.6-1.3,0.9c-9.9,7.1-17.2,16.2-21.7,27.5c-0.5,1.1-1,1.5-2.2,1.5
	c-8.8-0.1-17.6,0-26.4,0c-0.5,0-1,0-1.5,0c-3.2-0.3-4.9-2-5-5.1c-0.6-14.1,4.4-25.8,15.8-34.3c10.5-7.8,29.5-8.1,40.1,6.4
	C101.8,124.1,102.5,125.1,103.2,126.2z"/>
<path class="st1" d="M160.8,133c-2.6-2.2-5.3-4.3-8-6.6c1.9-2.9,4.2-5.5,6.8-7.8c10.8-9.9,31.5-10.5,42.6,4.5
	c4.6,6.2,7,13.2,8.2,20.8c0.3,1.7,0.5,3.3,0.6,5c0.2,4.1-2.5,7.2-6.6,7.3c-9.6,0.1-19.2,0-28.8,0c-0.5,0-1.1-0.5-1.3-1
	c-1.4-3.4-1.4-3.4,1.2-6.1c5.2-5.4,10.5-10.8,15.7-16.3c4-4.1,4-8,0.1-12.2c-1.2-1.3-2.4-2.6-3.6-3.9c-3.5-3.5-7.3-3.6-10.7-0.1
	c-4.6,4.7-9.2,9.5-13.7,14.2C162.3,131.6,161.6,132.3,160.8,133z"/>
<path class="st1" d="M60.7,89.3C60.8,85,62,80.7,65,77c6.7-8.5,18.4-8.5,25.2-0.1c5.7,7.2,5.7,18.2,0,25.3
	c-7.8,9.6-21.8,7.8-27.3-3.5C61.4,95.9,60.7,92.8,60.7,89.3z"/>
<path class="st1" d="M161.7,88.4c0.1-3.5,1.4-7.8,4.3-11.4c6.7-8.5,18.5-8.5,25.2,0c5.7,7.1,5.7,18.1,0,25.2
	c-7.6,9.6-21.3,8.1-27.1-3C162.6,96.4,161.7,93,161.7,88.4z"/>
<path class="st0" d="M125,146.2c0.4,0.3,1.2,0.7,1.7,1.3c4.2,4.2,8.5,8.4,12.6,12.6c1.7,1.7,2,1.8,3.6,0c4.5-4.7,9-9.5,13.6-14.2
	c7.9-8.2,15.7-16.5,23.6-24.7c1.8-1.8,2-1.8,3.7,0c1.1,1.1,2.1,2.3,3.2,3.5c1.5,1.6,1.5,2.2,0,3.7c-3.9,4.1-7.8,8.1-11.7,12.1
	c-10.2,10.5-20.3,21-30.5,31.5c-3.3,3.4-3.7,3.4-7,0c-5.6-5.8-11.2-11.5-16.7-17.3c-0.4-0.4-0.7-0.8-1-1.2c-0.3-0.5-0.5-1-0.6-1.5
	C119.2,150.5,123.1,146.2,125,146.2z"/>
</svg>
