<?xml version="1.0" encoding="utf-8"?>
<!-- Generator: Adobe Illustrator 24.3.0, SVG Export Plug-In . SVG Version: 6.00 Build 0)  -->
<svg version="1.1" id="Layer_1" xmlns="http://www.w3.org/2000/svg" xmlns:xlink="http://www.w3.org/1999/xlink" x="0px" y="0px"
	 viewBox="0 0 256 256" style="enable-background:new 0 0 256 256;" xml:space="preserve">
<style type="text/css">
	.st0{fill:#FB9900;}
	.st1{fill:#253582;}
</style>
<g>
	<path class="st1" d="M128,244.6c-64.3,0-116.6-52.3-116.6-116.6C11.4,63.7,63.7,11.4,128,11.4S244.6,63.7,244.6,128
		C244.6,192.3,192.3,244.6,128,244.6z M128,14.2c-62.7,0-113.8,51-113.8,113.8c0,62.7,51,113.8,113.8,113.8s113.8-51,113.8-113.8
		C241.8,65.3,190.7,14.2,128,14.2z"/>
</g>
<path class="st1" d="M176.1,198.5c1.9,0,3.8,0,5.6,0c1,0,2.1,0.1,2,1.4c0,1.3-1.1,1.4-2.1,1.4c-38.7,0-77.4,0-116.1,0
	c-0.1,0-0.2,0-0.3,0c-1,0-1.9-0.3-1.9-1.4c0-1.1,0.8-1.3,1.8-1.3c1.7,0,3.3,0,5.2,0c0-0.9,0-1.6,0-2.3c0-25.3,0-50.5,0-75.8
	c0-0.5-0.2-1.1,0-1.5c0.3-0.6,0.9-1.1,1.4-1.7c0.5,0.6,1,1,1.3,1.7c0.2,0.5,0.1,1.2,0.1,1.8c0,25.2,0,50.3,0,75.5c0,0.7,0,1.4,0,2.2
	c26.8,0,53.4,0,80.4,0c-7.7-5.3-11.3-12.3-10.5-21.3c0.5-5.4,2.9-10,7-13.6c8.9-7.9,22.2-7.3,30.2,1.3c4.7,5,6.6,11,5.7,17.8
	C185.2,189.3,181.6,194.4,176.1,198.5z M164.8,160.8c-10.2-0.1-18.8,8.2-19,18.3c-0.1,10.7,8.2,19.3,18.9,19.3
	c10.1,0.1,18.7-8.4,18.8-18.6C183.7,169.5,175.4,160.9,164.8,160.8z"/>
<path class="st0" d="M113.1,171.3c7.2-7.2,14.1-14.2,21.3-21.3c-2.5,0-4.8,0-7.1,0c-0.6,0-1.2,0.2-1.7-0.1c-0.6-0.3-1.3-0.9-1.3-1.3
	c0-0.5,0.8-1.3,1.3-1.4c4.2-0.1,8.4-0.1,12.6,0c0.5,0,1.3,1.1,1.4,1.7c0.1,3.9,0.1,7.9,0.1,11.8c0,0.9-0.3,1.9-1.5,1.8
	c-1.2-0.1-1.4-1-1.3-1.9c0-2.7,0-5.4,0-8.2c-0.1-0.1-0.3-0.2-0.4-0.2c-2,2.1-4,4.1-6,6.3c-0.3,0.3-0.4,0.8-0.4,1.2
	c0,8.9,0,17.9,0,26.8c0,0.2,0.1,0.3,0.1,0.7c2.2,0,4.4,0,6.6,0c0.5,0,1.1-0.1,1.5,0.1c0.5,0.3,1,0.8,1,1.3c0,0.4-0.6,1-1,1.3
	c-0.4,0.2-1,0.1-1.5,0.1c-17.5,0-35,0-52.5,0c-2.3,0-2.5-0.2-2.5-2.5c0-17.6,0-35.1,0-52.7c0-0.4-0.1-1,0.1-1.3
	c0.3-0.5,0.9-1.1,1.2-1.1c0.5,0.1,1.1,0.6,1.4,1.1c0.2,0.3,0.1,0.9,0.1,1.3c0,16,0,32,0,48c0,0.6,0,1.2,0,2.3
	c0.8-0.7,1.3-1.2,1.8-1.7c5.9-5.9,11.7-11.8,17.6-17.6c1.7-1.7,2.1-1.8,3.8,0C109.5,167.6,111.4,169.5,113.1,171.3z M127,162.2
	c-0.1-0.1-0.3-0.2-0.4-0.2c-1.1,1.1-2.2,2.2-3.2,3.5c-0.5,0.7-1,1.7-1.1,2.6c-0.1,5.7,0,11.4,0,17.1c0,0.6,0,1.3,0,1.9
	c1.7,0,3.2,0,4.7,0C127,178.7,127,170.4,127,162.2z M104.4,169.4c-4.7,4.1-4.7,4.1-4.7,9.8c0,0.8,0,1.7,0,2.5c0,1.8,0,3.5,0,5.3
	c1.7,0,3.2,0,4.7,0C104.4,181.1,104.4,175.4,104.4,169.4z M107.3,187c1.7,0,3.1,0,4.7,0c0-3.6,0-7.1,0-10.6c0-2.5-2.3-5.7-4.7-6.7
	C107.3,175.5,107.3,181.2,107.3,187z M119.5,169.5c-3.1,2.3-5.4,4.6-4.8,8.8c0.4,2.8,0.1,5.8,0.1,8.7c1.7,0,3.2,0,4.7,0
	C119.5,181.2,119.5,175.4,119.5,169.5z M96.7,177.2c-4.4,3.3-5.6,5.9-4.4,9.8c1.5,0,3,0,4.4,0C96.7,183.6,96.7,180.4,96.7,177.2z
	 M89.2,185c-0.8,0.7-1.5,1.3-2.3,2c0.8,0,1.6,0,2.3,0C89.2,186.2,89.2,185.5,89.2,185z"/>
<path class="st0" d="M109.8,114.8c-1.1-0.8-2.3-1.5-3.2-2.3c-1-0.9-1.9-1.2-3.1-0.3c-0.1,0.1-0.3,0.2-0.5,0.2
	c-3.1,0.7-4.9,2.3-4.7,5.8c0.1,1.5-1.2,2.2-2.6,2.2c-2.7,0-5.4,0-8.1,0c-1.8,0-2.9-0.8-2.8-2.8c0.1-2.9-1.4-3.9-3.9-5
	c-2.3-1-3.7-0.7-5.4,0.8c-1.8,1.7-3,1.5-4.7-0.2c-1.6-1.6-3.3-3.2-4.9-4.9c-1.7-1.7-1.9-2.8-0.2-4.5c1.8-1.8,1.8-3.3,0.9-5.7
	c-1-2.7-2.4-3.7-5.1-3.7c-1.8,0-2.6-1-2.6-2.8c0-2.7,0-5.4,0-8.1c0-1.8,0.9-2.8,2.7-2.8c2.7,0,3.9-1,5-3.6c1-2.5,0.9-4-0.9-5.8
	c-1.5-1.6-1.4-2.8,0.2-4.4c1.7-1.8,3.5-3.5,5.2-5.2c1.5-1.4,2.8-1.6,4.3-0.1c1.8,1.8,3.3,2,5.8,0.9c2.4-1.1,3.6-2.1,3.6-4.8
	c0-2.2,1-2.9,3.3-2.9c2.5,0,4.9,0,7.4,0c1.9,0,3,0.7,3,2.6c0,3,1.2,4.6,4.1,5.1c0.5,0.1,0.9,0.4,1.4,0.7c0.8,0.6,1.5,0.5,2.2-0.2
	c3.7-3.2,4.2-3.4,7.8,0.4c1.2,1.3,2.6,2.5,3.8,3.8c1.1,1.2,1.4,2.6,0.2,3.7c-2.2,2.1-2.1,4-0.9,6.7c1,2.2,2.1,2.9,4.2,3
	c2.8,0.2,3.3,0.8,3.3,3.5c0,2.4,0,4.8,0,7.2c0,2-0.9,3-2.8,3c-2.5,0-3.8,0.9-4.8,3.4c-1,2.6-1,4.2,0.9,6.1c1.4,1.4,1.2,2.6-0.2,4.1
	c-1.8,1.8-3.6,3.7-5.5,5.5C111.5,114,110.7,114.3,109.8,114.8z M121.6,83.5c-1.6-0.2-2.9-0.4-4.2-0.4c-1.2,0-1.7-0.7-2.1-1.7
	c-0.7-2-1.5-4.1-2.5-6c-0.6-1.1-0.5-1.8,0.2-2.7c0.9-1.1,1.7-2.2,2.6-3.2c-2-1.9-3.9-3.8-5.9-5.7c-0.9,0.8-2.1,1.6-3.1,2.5
	c-0.9,0.8-1.7,0.8-2.7,0.3c-1.9-1-4-1.8-6-2.5c-1.2-0.4-1.7-1-1.8-2.1c-0.1-1.4-0.3-2.8-0.4-4.2c-2.8,0-5.4,0-8.1,0
	c-0.2,1.5-0.3,2.9-0.5,4.3c-0.1,1.1-0.6,1.6-1.7,2c-2.1,0.7-4.2,1.6-6.2,2.6c-1,0.5-1.8,0.5-2.6-0.3c-1-0.9-2.2-1.8-3.1-2.5
	c-2,2-3.8,3.8-5.8,5.8c0.8,1,1.6,2.1,2.5,3.2c0.6,0.8,0.7,1.5,0.3,2.4c-1,2.1-1.8,4.2-2.6,6.4c-0.4,1-0.9,1.6-2.1,1.6
	c-1.4,0.1-2.8,0.3-4.2,0.4c0,2.7,0,5.4,0,8.1c1.4,0.2,2.8,0.4,4.2,0.5c1.2,0,1.7,0.7,2.1,1.8c0.7,2,1.5,4.1,2.5,6
	c0.5,1.1,0.5,1.9-0.3,2.7c-0.9,1-1.8,2.1-2.6,3.2c2,2,3.8,3.8,5.8,5.7c1-0.8,2.1-1.6,3.1-2.5c1-0.9,1.9-0.8,3-0.2
	c1.8,0.9,3.7,1.8,5.6,2.3c1.5,0.4,2,1.2,2.1,2.6c0.1,1.3,0.3,2.5,0.4,3.7c2.8,0,5.4,0,8.1,0c0.1-1.4,0.3-2.7,0.4-4
	c0.1-1.2,0.7-1.8,1.9-2.2c2.1-0.7,4.1-1.6,6-2.5c1-0.5,1.7-0.5,2.6,0.3c1.1,0.9,2.2,1.8,3.1,2.4c2.1-2,4-3.8,5.9-5.7
	c-0.7-0.8-1.3-1.8-2.1-2.6c-1.2-1.2-1.5-2.4-0.4-3.8c0.6-0.8,1.1-1.8,1.3-2.7c0.6-3.6,2.5-5.2,6.2-4.9c0.3,0,1-0.7,1.1-1
	C121.7,88.3,121.6,86,121.6,83.5z"/>
<path class="st1" d="M130,99.5c0,4.3,0,8.5,0,12.7c4.2,0,8.2,0,12.4,0c0-3.2,0-6.3,0-9.8c-1.6,1.9-2.9,3.5-4.2,5.1
	c-1.8,2.2-2.3,2.2-4,0c-0.6-0.8-1.3-1.5-1.7-2.3c-0.2-0.6,0.2-1.4,0.3-2.1c0.6,0.1,1.4,0.1,1.9,0.5c0.6,0.4,0.9,1.1,1.5,1.8
	c2.2-2.6,4.2-5.2,6.3-7.7c1-1.2,2-2.4,3-3.7c0.6-0.7,1.4-1.2,2.1-0.4c0.4,0.4,0.4,1.8,0.1,2.1c-2.2,2-2.5,4.5-2.3,7.3
	c0.1,2.9,0.1,5.8,0,8.8c0,2.4-0.9,3.2-3.3,3.3c-3.9,0-7.9,0-11.8,0c-2.4,0-3.3-0.9-3.3-3.2c0-3.9,0-7.9,0-11.8
	c0-2.4,0.9-3.2,3.3-3.2c2.2,0,4.4-0.1,6.6,0.1c0.6,0,1.6,0.8,1.7,1.3c0.2,1-0.7,1.4-1.7,1.4C134.7,99.5,132.5,99.5,130,99.5z"/>
<path class="st1" d="M130,125.2c0,4.3,0,8.4,0,12.6c4.1,0,8.2,0,12.4,0c0-3.1,0-6.2,0-9.7c-1.7,2-3.1,3.8-4.6,5.6
	c-1.3,1.6-1.9,1.6-3.1,0c-0.6-0.8-1.2-1.6-1.8-2.4c-0.6-0.8-0.9-1.6,0-2.4c0.9-0.8,1.6-0.2,2.2,0.6c0.4,0.5,0.8,1,1.3,1.6
	c2.7-3.3,5.3-6.5,7.9-9.7c0.5-0.7,1-1.4,1.6-1.9c0.5-0.3,1.3-0.3,1.9-0.4c0.1,0.7,0.2,1.3,0.2,2c0,0.1-0.2,0.3-0.3,0.4
	c-2.3,1.9-2.4,4.4-2.3,7.1c0.1,2.9,0,5.8,0,8.8c0,2.4-0.9,3.3-3.2,3.3c-4,0-8,0-12,0c-2.2,0-3.1-0.9-3.1-3.2c0-3.9,0-7.9,0-11.8
	c0-2.3,0.9-3.2,3.3-3.3c2.1,0,4.3,0,6.4,0c1,0,1.9,0.3,1.9,1.4c0,1.2-0.9,1.4-1.9,1.4C134.6,125.2,132.4,125.2,130,125.2z"/>
<path class="st1" d="M163.3,85c-0.9,0-1.6,0-2.2,0c-10.5,0-21.1,0-31.6,0c-0.5,0-1.1,0.1-1.5-0.1c-0.5-0.3-1-0.8-1-1.3
	c0-0.4,0.6-1,1-1.3c0.3-0.2,0.9-0.1,1.3-0.1c11.1,0,22.2,0,33.3,0c2.7,0,3.5,0.8,3.5,3.5c0,3.6,0,7.3,0,10.9c0,1-0.1,2-1.4,2
	c-1.3,0-1.4-1.1-1.4-2.1C163.3,92.9,163.3,89.1,163.3,85z"/>
<path class="st1" d="M176.2,104.1c-5.8,0-11.7,0-17.5,0c-0.6,0-1.2,0.1-1.7-0.1c-0.5-0.3-1.2-0.9-1.2-1.3c0-0.5,0.7-1,1.2-1.3
	c0.3-0.2,0.9-0.1,1.3-0.1c11.9,0,23.9,0,35.8,0c0.4,0,1-0.1,1.3,0.1c0.5,0.3,1.1,0.9,1.1,1.2c0,0.5-0.6,1.1-1.1,1.4
	c-0.4,0.2-1,0.1-1.5,0.1C188.1,104.1,182.1,104.1,176.2,104.1C176.2,104.1,176.2,104.1,176.2,104.1z"/>
<path class="st1" d="M176.4,126.9c5.9,0,11.8,0,17.7,0c0.5,0,1.1-0.1,1.5,0.1c0.5,0.3,1.1,0.9,1.1,1.2c-0.1,0.5-0.6,1.1-1.1,1.4
	c-0.4,0.2-1,0.1-1.5,0.1c-11.9,0-23.8,0-35.7,0c-0.4,0-0.9,0.1-1.2-0.1c-0.5-0.4-1-0.9-1.4-1.4c0.5-0.5,0.9-1,1.5-1.4
	c0.3-0.2,0.9-0.1,1.3-0.1C164.5,126.9,170.5,126.9,176.4,126.9z"/>
<path class="st1" d="M163.3,136.2c-2.1,0-3.9,0-5.7,0c-1,0-1.9-0.3-1.9-1.4c0-1.2,0.9-1.3,1.9-1.3c6,0,12,0,18,0
	c1,0,1.9,0.2,1.8,1.4c-0.1,1.1-0.8,1.3-1.8,1.3c-3.1,0-6.3,0-9.7,0c0,0.7,0,1.3,0,1.9c0,5.1,0,10.2,0,15.3c0,0.6-0.3,1.5-0.8,1.9
	c-1,0.7-2-0.2-2-1.7c0-5.1,0-10.2,0-15.3C163.3,137.7,163.3,137.1,163.3,136.2z"/>
<path class="st1" d="M163.3,110.6c-2,0-3.8,0-5.6,0c-1,0-1.9-0.3-1.9-1.4c0-1.2,0.9-1.4,1.9-1.4c6,0,12,0,18,0c1,0,1.9,0.2,1.8,1.4
	c0,1.2-0.9,1.4-1.9,1.4c-3.1,0-6.3,0-9.6,0c0,3.5,0,6.9,0,10.3c0,0.6,0,1.1,0,1.7c0,1-0.2,1.9-1.4,1.9c-1.2,0-1.4-0.9-1.4-1.8
	c0-3.1,0-6.3,0-9.4C163.3,112.4,163.3,111.6,163.3,110.6z"/>
<path class="st1" d="M191.9,201.2c-1.2,0-2.4,0.2-3.5-0.1c-0.6-0.1-1-0.9-1.5-1.4c0.5-0.4,1-1.2,1.5-1.2c2.5-0.1,4.9-0.1,7.4,0
	c0.5,0,1,0.9,1.5,1.4c-0.5,0.4-1,1.2-1.6,1.3C194.3,201.4,193.1,201.2,191.9,201.2z"/>
<path class="st1" d="M139.9,76.8c-0.9,0.6-1.5,1.3-2,1.3c-0.5-0.1-0.9-0.8-1.4-1.3c0.5-0.4,0.9-1.2,1.4-1.2
	C138.5,75.5,139,76.2,139.9,76.8z"/>
<path class="st1" d="M144,78.8c-0.6-0.9-1.3-1.5-1.3-2c0.1-0.5,0.9-1.3,1.3-1.2c0.5,0,1.2,0.8,1.3,1.3
	C145.4,77.3,144.6,77.9,144,78.8z"/>
<path class="st1" d="M133.9,76.8c-0.9,0.7-1.4,1.4-1.9,1.4c-0.5,0-1.3-0.8-1.3-1.3c0-0.4,0.7-1.2,1.2-1.3
	C132.4,75.5,133,76.2,133.9,76.8z"/>
<path class="st1" d="M158,76.7c-0.9,0.7-1.4,1.5-1.9,1.4c-0.5,0-1-0.8-1.5-1.2c0.4-0.5,0.8-1.2,1.3-1.3
	C156.5,75.5,157.1,76.1,158,76.7z"/>
<path class="st1" d="M152,76.7c-0.9,0.7-1.4,1.5-1.9,1.5c-0.5,0-1-0.8-1.5-1.2c0.4-0.5,0.8-1.3,1.3-1.3
	C150.4,75.5,151.1,76.1,152,76.7z"/>
<path class="st1" d="M166.1,178.2c2,0,3.9,0,5.8,0c1,0,2,0,2,1.4c0,1.3-1.1,1.4-2.1,1.4c-2.2,0-4.4,0-6.6,0c-1.3,0-1.9-0.5-1.9-1.9
	c0-4.5,0-9.1,0-13.6c0-1,0.2-1.9,1.4-1.9c1.2,0,1.4,0.9,1.4,1.9C166.1,169.7,166.1,173.9,166.1,178.2z"/>
<path class="st1" d="M175.1,188c0.6,0.9,1.3,1.5,1.2,2c-0.1,0.5-0.9,1.2-1.4,1.2c-0.5,0-1.2-0.8-1.2-1.3
	C173.7,189.4,174.4,188.9,175.1,188z"/>
<path class="st1" d="M175.1,171.3c-0.7-0.9-1.4-1.5-1.3-1.9c0.1-0.5,0.8-1.3,1.3-1.3c0.5,0,1.3,0.7,1.3,1.2
	C176.4,169.7,175.7,170.3,175.1,171.3z"/>
<path class="st1" d="M152.1,179.7c-1,0.6-1.5,1.3-2,1.3c-0.5-0.1-0.9-0.8-1.4-1.3c0.5-0.4,0.9-1.2,1.4-1.2
	C150.6,178.4,151.2,179,152.1,179.7z"/>
<path class="st1" d="M154.5,167.3c0.6,1,1.2,1.6,1.1,2.2c0,0.4-0.9,1.2-1.2,1.1c-0.5-0.1-1.3-0.8-1.3-1.3
	C153.1,168.8,153.8,168.2,154.5,167.3z"/>
<path class="st1" d="M181.3,179.5c-1,0.7-1.5,1.5-2,1.4c-0.5-0.1-1.1-0.8-1.3-1.3c-0.1-0.3,0.7-1.1,1.2-1.2
	C179.7,178.4,180.3,178.9,181.3,179.5z"/>
<path class="st1" d="M164.8,196.2c-0.7-1-1.4-1.5-1.4-2c0-0.5,0.8-1.3,1.1-1.3c0.5,0.1,1.3,0.7,1.4,1.2
	C166.1,194.6,165.4,195.2,164.8,196.2z"/>
<path class="st1" d="M156.4,190.1c-1,0.6-1.6,1.2-2.1,1.1c-0.5,0-1.3-0.9-1.2-1.2c0.1-0.5,0.8-1.3,1.3-1.3
	C154.9,188.6,155.4,189.3,156.4,190.1z"/>
<path class="st0" d="M91.6,67.4c11.1,0,20.2,9,20.2,20.1c0,11.2-9.1,20.2-20.3,20.2c-15.5-0.1-25.1-16.7-17.4-30.1
	c0.3-0.5,0.6-1.2,1-1.5c0.5-0.3,1.3-0.5,1.8-0.3c0.3,0.2,0.5,1,0.5,1.6c0,0.4-0.4,0.8-0.6,1.2c-3.6,5.9-3.3,13.5,0.7,19.2
	c4,5.6,11.3,8.3,18,6.7c6.8-1.6,12.2-7.1,13.2-14c1-7.1-1.3-13.1-7.2-17.2c-5.9-4.1-12.2-4.2-18.6-0.8c-0.2,0.1-0.5,0.3-0.7,0.4
	c-0.8,0.6-1.8,1.2-2.5,0.1c-0.8-1.2,0.1-1.9,1.1-2.5C83.9,68.5,87.6,67.4,91.6,67.4z"/>
<path class="st0" d="M93.1,98c-0.5,1.1,0.6,3.2-1.5,3.2c-2.1,0-1-2-1.6-3.2c-0.3-0.1-0.8-0.3-1.3-0.6c-1.8-1-3.1-2.5-3.1-4.7
	c0-0.6,0.5-1.7,1.1-1.9c1.1-0.4,1.5,0.5,1.7,1.5c0.3,2,1.7,3,3.7,2.8c1.7-0.1,2.9-1.5,2.9-3.1c0-1.6-1.1-2.9-2.8-3.1
	c-0.9-0.1-1.8-0.2-2.7-0.4c-2.2-0.7-3.9-2.8-4-5.1c-0.2-2.6,1-4.8,3.4-5.8c1-0.5,1.5-1,1.3-2.1c-0.1-1,0.3-1.7,1.4-1.7
	c1.1,0,1.5,0.8,1.3,1.7c-0.2,1.2,0.4,1.6,1.4,2.1c2.1,0.9,3.2,2.6,3.3,4.9c0,0.6-0.6,1.5-1.1,1.7c-1,0.3-1.4-0.4-1.6-1.4
	c-0.4-2.2-1.7-3.2-3.7-3c-1.7,0.2-3,1.5-3,3.1c0,1.6,1.3,2.9,2.9,3.1c1.2,0.2,2.6,0.4,3.7,1c2,1.1,2.9,3,2.8,5.3
	c-0.1,2.3-1.3,3.9-3.2,5C94,97.6,93.6,97.8,93.1,98z"/>
</svg>
