<?xml version="1.0" encoding="utf-8"?>
<!-- Generator: Adobe Illustrator 24.3.0, SVG Export Plug-In . SVG Version: 6.00 Build 0)  -->
<svg version="1.1" id="Layer_1" xmlns="http://www.w3.org/2000/svg" xmlns:xlink="http://www.w3.org/1999/xlink" x="0px" y="0px"
	 viewBox="0 0 256 256" style="enable-background:new 0 0 256 256;" xml:space="preserve">
<style type="text/css">
	.st0{fill:#FB9900;}
	.st1{fill:#253582;}
</style>
<g>
	<path class="st1" d="M128,244.6c-64.3,0-116.6-52.3-116.6-116.6C11.4,63.7,63.7,11.4,128,11.4S244.6,63.7,244.6,128
		C244.6,192.3,192.3,244.6,128,244.6z M128,14.2c-62.7,0-113.8,51-113.8,113.8c0,62.7,51,113.8,113.8,113.8s113.8-51,113.8-113.8
		C241.8,65.3,190.7,14.2,128,14.2z"/>
</g>
<path class="st1" d="M109.4,124.3c-3.4,0-7.2,0-11.2,0c1.5-5.5,1.6-5.6,6.5-5.6c4.2,0,8.4,0.1,12.6,0c1.4,0,2.9-0.2,4-0.8
	c7.7-4,15.5-3.6,23.5-1.4c4.1,1.1,8.4,1.6,12.6,2.5c0.8,0.2,1.7,0.9,2,1.6c5.4,11,10.7,22,15.9,33.1c0.4,0.8,0.2,2.2-0.2,3.1
	c-1,2.5-2,4.4-0.2,7.4c3,4.9-0.3,11-6,12.4c-1.4,0.3-2.3,0.7-2.5,2.4c-0.7,4.3-3.5,6.6-7.9,7.1c-0.8,0.1-2.1,0.7-2.3,1.4
	c-1.6,5.8-8.3,7.9-12.9,4.7c-0.3-0.2-0.6-0.3-1.1-0.5c-0.7,0.8-1.3,1.7-2,2.4c-2.6,2.5-5.7,3.1-9,1.7c-1.3-0.5-2.2-0.7-3.1,0.7
	c-1.4,2.2-3.4,3.6-6.2,2.9c-2.9-0.7-3.8-2.3-4.2-6.2c0-0.1-0.2-0.3-0.4-0.6c-2.3,2-4.9,3.5-8,1.8c-3.1-1.7-3.5-4.5-2.7-7.8
	c-6.2,2.8-11.4,0.5-10.9-7.3c-1.6,0.3-3.4,0.9-5,0.8c-4.7-0.4-7.1-5.4-4.7-9.4c1.1-1.9,2.5-3.6,3.8-5.3c1-1.2,0.9-2.1-0.1-3.2
	c-1.2-1.4-2.3-2.8-3.5-4.3c-2.8-3.6-2.8-3.6-0.1-7.9c2.3,2.9,4.7,5.7,6.9,8.6c0.9,1.2,1.8,1.8,3.5,1.6c4-0.4,7,2.6,6.6,6.6
	c-0.2,2.4,0.7,3.1,2.9,3.3c3.6,0.2,5.4,1.8,6.2,5.4c0.4,1.9,1.4,2.8,3.4,2.9c3.5,0.1,4.9,1.4,6.3,4.6c0.6,1.5,2.1,2.6,3.4,3.7
	c1.5,1.3,3.2,2.2,4.6,3.6c2.2,2.2,4.6,2.9,6.5,1.5c1.9-1.3,2-2.7,0.1-4.1c-3-2.2-6-4.3-8.9-6.4c-1.2-0.9-2.4-1.9-1.3-3.5
	c1.1-1.6,2.4-0.8,3.7,0c4.9,3.5,9.8,7.1,14.8,10.4c1.2,0.8,3,1.3,4.3,1c1.1-0.2,2.5-1.8,2.6-2.8c0.1-1.3-0.7-3.2-1.7-4
	c-4.7-3.7-9.6-7-14.4-10.5c-0.9-0.6-1.7-1.2-2.5-1.9c-1.1-0.9-2.1-1.8-1-3.3c1-1.4,2.3-1,3.5-0.2c2.7,1.9,5.4,3.8,8.1,5.8
	c3.8,2.8,7.7,5.5,11.5,8.3c2.5,1.8,4.8,1.6,6.2-0.4c1.5-2.1,1-4.1-1.6-6c-7-5.1-14.1-10.1-21.1-15.2c-0.5-0.4-1.2-0.7-1.4-1.2
	c-0.3-0.8-0.7-2-0.3-2.6c0.4-0.5,1.7-0.8,2.5-0.6c0.9,0.2,1.7,0.9,2.5,1.5c6.6,4.7,13.2,9.5,19.8,14.2c0.7,0.5,1.4,1,2.2,1.5
	c2.5,1.5,5.1,1,6.8-1.1c1.5-2,1.2-4.7-0.9-6.6c-4-3.6-8.2-7.1-12.2-10.7c-7.4-6.5-14.8-13.1-22.2-19.7c-3.9-3.5-11.1-1.4-12.2,3.8
	c-0.9,4.3-3.2,7.5-6.9,9.8c-3,1.9-6.2,2.4-9.5,0.9c-2.2-1-2.7-2.6-2-4.9c0.8-2.6,1.4-5.2,2-7.8C107.7,131.9,108.5,128.3,109.4,124.3
	z"/>
<path class="st1" d="M194.6,148.4c-0.7,0.8-1.3,2-2.3,2.6c-2,1.2-4.2,2.2-6.3,3.2c-2.5,1.2-3.9,0.8-5.1-1.8
	c-4.1-8.5-8.2-17-12.3-25.5c-1.7-3.5-3.4-7.1-5.1-10.6c-1.7-3.6-1.4-4.6,2.2-6.4c1.4-0.7,2.8-1.4,4.2-2.1c3.9-2,4.9-1.6,6.8,2.5
	c3.1,6.5,6.3,13.1,9.4,19.7c2.5,5.2,5,10.4,7.4,15.6C193.8,146.2,194.1,147.1,194.6,148.4z"/>
<path class="st1" d="M97.1,113c-0.4,1.1-0.7,1.9-1,2.6c-5.8,12.2-11.6,24.3-17.5,36.4c-1.4,3-2.7,3.4-5.6,2
	c-1.9-0.9-3.8-1.8-5.6-2.8c-2.5-1.3-3-2.7-1.8-5.4c3-6.5,6.2-13,9.3-19.4c2.7-5.6,5.3-11.2,8.1-16.8c1.7-3.5,2.8-3.8,6.2-2.1
	c2,1,4,1.8,5.8,3C95.8,111.1,96.4,112.2,97.1,113z"/>
<g>
	<path class="st0" d="M181.4,69.9c0,5.3,0,10.7,0,16c0,2.7-0.2,5.4,1.9,7.7c0.4,0.5,0.3,1.9-0.1,2.6c-1.4,2.6-1.3,5.2-0.5,7.9
		c1,3.3,1.7,6.7,2.5,10.1c0.1,0.5,0.2,1,0.3,1.7c-3.3,0-6.4,0.1-9.5-0.1c-0.4,0-1.2-1.1-1.1-1.6c0.3-2.1,0.8-4.2,1.2-6.2
		c0.4-2,1.1-4,1.4-6c0.2-1.6,0.2-3.3-0.3-4.8c-0.6-1.7-0.2-3,0.5-4.6c0.7-1.5,1.2-3.2,1.2-4.9c0.1-4.5,0-8.9,0-13.4
		c0-0.9,0-1.9,0.3-2.8c0.2-0.7,0.9-1.3,1.3-2C180.8,69.6,181.1,69.7,181.4,69.9z"/>
	<path class="st0" d="M198.1,69.7c-6,1.6-12,3.1-18,4.7c-14.7,3.8-29.3,7.5-43.9,11.4c-5.6,1.5-11,1.5-16.6,0
		c-19.3-5.1-38.6-10-57.9-15.1c-1.3-0.3-2.6-1-3.9-1.5c0-0.2,0.1-0.4,0.1-0.6c2.4-0.5,4.7-0.9,7.1-1.4c19.3-3.7,38.7-7.4,58-11.2
		c4.9-0.9,9.6,0,14.3,0.9c19.3,3.7,38.7,7.5,58,11.2c1,0.2,1.9,0.6,2.8,1C198.1,69.3,198.1,69.5,198.1,69.7z"/>
	<path class="st0" d="M91.3,80.8c6.6,1.8,12.9,3.6,19.2,5.3c5.2,1.4,10.5,2.9,15.8,4c1.9,0.4,4,0.1,5.9-0.4
		c10-2.5,19.9-5.3,29.8-7.9c0.7-0.2,1.3-0.3,1.9-0.4c0,2.6,0.1,5,0,7.5c-0.1,2.3-0.3,4.7-0.5,7c-0.3,3.1-2,5.4-4.5,7.2
		c-11.4,7.7-23.9,10.5-37.5,9.1c-8-0.9-15.3-3.4-22.2-7.6c-4.1-2.5-6.4-5.8-6.6-10.7C92.3,89.7,91.7,85.4,91.3,80.8z"/>
</g>
</svg>
