<?xml version="1.0" encoding="utf-8"?>
<!-- Generator: Adobe Illustrator 24.3.0, SVG Export Plug-In . SVG Version: 6.00 Build 0)  -->
<svg version="1.1" id="Layer_1" xmlns="http://www.w3.org/2000/svg" xmlns:xlink="http://www.w3.org/1999/xlink" x="0px" y="0px"
	 viewBox="0 0 256 256" style="enable-background:new 0 0 256 256;" xml:space="preserve">
<style type="text/css">
	.st0{fill:#FB9900;}
	.st1{fill:#253582;}
</style>
<g>
	<g>
		<path class="st1" d="M128,244.6c-64.3,0-116.6-52.3-116.6-116.6C11.4,63.7,63.7,11.4,128,11.4S244.6,63.7,244.6,128
			C244.6,192.3,192.3,244.6,128,244.6z M128,14.2c-62.7,0-113.8,51-113.8,113.8c0,62.7,51,113.8,113.8,113.8s113.8-51,113.8-113.8
			C241.8,65.3,190.7,14.2,128,14.2z"/>
	</g>
</g>
<g>
	<path class="st1" d="M192.9,141.2c0,2.4-0.1,4.6,0.1,6.8c0,0.5,0.7,1.1,1.2,1.4c9.7,4.9,11.6,17.6,3.7,24.9c-1.1,1-2.4,1.8-3.8,2.5
		c-0.8,0.4-1.2,0.9-1.2,1.9c0.1,2.2,0,4.4,0,7.1c2.5-1.4,4.8-2.7,7.2-4c-0.5-0.9-1.2-1.7-1.4-2.6c-0.2-0.9-0.3-2.1,0.1-2.7
		c0.4-0.5,1.7-0.9,2.4-0.7c3.2,0.8,6.3,1.8,9.4,2.9c1.4,0.4,1.9,1.5,1.6,2.9c-0.6,3.2-1.1,6.5-1.9,9.7c-0.2,0.7-1.1,1.6-1.8,1.7
		c-0.6,0.1-1.6-0.4-2.2-1c-0.7-0.6-1-1.5-1.6-2.5c-3,1.7-5.9,3.3-8.7,5c-1.7,1-3.3,2-5,2.9c-2.2,1.2-4.5,0.6-6-1.3
		c-0.5-0.7-1.1-1.8-1.7-1.8c-1.6-0.1-3.4-0.2-4.8,0.4c-3.3,1.5-6.5,3.3-9.7,5c-2,1.1-3.9,2-6,0.5c-2.1-1.5-2.3-3.5-1.5-6.1
		c-0.8,0-1.5,0-2.2,0c-11.6,0-23.2,0-34.8,0c-3.6,0-4.5-0.8-4.5-4.4c0-6.9,0-13.7,0-20.6c0-1.7,0.5-3.1,2.2-3.8
		c0.4-0.2,0.8-0.8,0.8-1.3c0-7.2,0.1-14.4,0-21.6c0-0.5-0.4-1.2-0.9-1.5c-2.5-1.7-2.6-4.5,0-6.2c8.2-5.4,16.4-10.8,24.7-16.2
		c0.7-0.5,1.7-0.7,2.6-0.7c6.2-0.1,12.4-0.1,18.6,0c1.1,0,2.4,0.3,3.3,0.9c7.9,5.1,15.7,10.4,23.6,15.6c1.5,1,2.7,2.2,2.2,4.2
		C196.4,140.4,195,141.2,192.9,141.2z M191.2,148.4c0-2.4,0.1-4.5-0.1-6.6c-0.1-0.7-0.5-1.7-1.1-2.1c-6.7-4.6-13.5-9-20.3-13.6
		c-0.8-0.6-1.4-0.6-2.3,0c-6.2,4.1-12.4,8.4-18.9,12.2c-3.2,1.9-5.1,3.9-4.3,7.8c0.1,0.4-0.5,1-0.7,1.5c-0.3-0.5-0.7-1-0.8-1.5
		c-0.1-1.6,0-3.2,0-4.8c-6.3,0-12.2,0-18.2,0c0,8,0,16,0,23.9c3.2,0,6.2,0,9.3,0c0-1.4,0-2.6,0-3.9c-2.1-0.1-3.9-0.6-4.9-2.4
		c-0.8-1.5-1.5-3.1-2-4.7c-0.6-1.6,0.3-2.7,2-2.5c2.8,0.3,5.8,0.1,7.8,2.9c2.3-2.9,5.5-2.6,8.4-2.9c1.2-0.1,1.8,0.8,1.5,2
		c-0.8,4.5-3,6.8-7.3,7.6c0,1.2,0,2.5,0,3.8c5.8,0,11.5,0,17.4,0c0-1.3,0-2.6,0-4c-2.1,0-4-0.6-5-2.5c-0.8-1.5-1.4-3.1-2-4.7
		c-0.5-1.4,0.3-2.5,1.8-2.4c2.9,0.3,5.9,0.1,8,2.9c2.3-2.9,5.4-2.6,8.4-2.9c1.2-0.1,1.8,0.8,1.6,2c-0.7,4.3-3,6.8-7.3,7.7
		c0,1.3,0,2.5,0,3.8c3.5,0,6.8,0,10.2,0c-0.3-5.2,1.1-9.6,5-13.1C181.3,148.5,185.9,147.5,191.2,148.4z M190.9,178.3
		c-0.4,0-0.8,0-1.2,0c-7.2,0.9-13.8-2.9-16.3-9.7c-0.5-1.4-1.2-1.7-2.5-1.7c-15.6,0-31.3,0-46.9,0c-2.1,0-2.4,0.3-2.4,2.4
		c0,6.7,0,13.5,0,20.2c0,2.6,0.1,2.8,2.8,2.8c12.7,0,25.3,0,38,0c0.7,0,1.5-0.3,2.1-0.6c5.7-3.1,11.4-6.2,17.2-9.2
		c3.1-1.7,5.4-0.9,7.2,2.2c0.5,0.8,1,1.7,1.5,2.5C191.2,186.2,191.5,181.3,190.9,178.3z M158.6,119.4c-3,0-6.1,0-9.1,0
		c-0.7,0-1.4,0.1-2,0.5c-8.1,5.3-16.3,10.6-24.4,16c-0.7,0.4-0.9,1.6-1.3,2.4c0.8,0.4,1.6,1,2.3,1.1c5.7,0.1,11.5,0,17.2,0.1
		c1.7,0,3.1-0.4,4.6-1.4c7-4.7,14.1-9.2,21.2-13.9c1.1-0.7,1.9-0.7,3,0c5.2,3.5,10.4,7,15.6,10.4c2.1,1.4,4.2,2.8,6.3,4.2
		c1,0.7,2.1,1,2.9-0.2c0.7-1.1,0.1-2-0.9-2.6c-0.2-0.1-0.4-0.3-0.6-0.4c-7.7-5.1-15.3-10.2-23-15.2c-0.8-0.5-1.9-0.9-2.9-0.9
		C164.6,119.3,161.6,119.4,158.6,119.4z M174.1,163.2c0,7.5,6.1,13.6,13.5,13.6c7.4,0,13.6-6.3,13.5-13.6
		c-0.1-7.5-6.2-13.6-13.6-13.6C180.2,149.7,174.1,155.8,174.1,163.2z M200.1,177.3c-0.1,0.2-0.3,0.3-0.4,0.5c0.6,1,1.2,2.1,1.8,3.1
		c0.8,1.2,0.5,1.9-0.7,2.5c-3.1,1.7-6.1,3.4-9.2,5.1c-2,1.1-2,1.1-3.2-0.8c-0.5-0.8-0.9-1.6-1.4-2.4c-1.2-1.9-2.5-2.4-4.4-1.3
		c-6.1,3.3-12.2,6.6-18.2,9.9c-1.9,1-2.4,2.4-1.6,3.9c0.9,1.6,2.3,1.9,4.2,0.9c4.7-2.5,9.3-5,13.9-7.4c2.4-1.3,2.4-1.3,3.7,1
		c0.3,0.6,0.7,1.2,1,1.8c1.4,2.4,2.7,2.7,5.1,1.3c4.3-2.5,8.7-4.9,12.9-7.4c1.1-0.6,1.8-0.6,2.4,0.6c0.5,1,1.2,1.9,1.8,2.9
		c0.3-0.2,0.5-0.3,0.5-0.3c0.7-3.3,1.3-6.5,1.9-9.8c0.1-0.3-0.2-0.9-0.5-1C206.7,179.3,203.4,178.3,200.1,177.3z M145,153.3
		c-1.1,0.1-1.9,0.2-2.7,0.3c-2.1,0.2-3.9,0.7-4.6,3.1c-0.1,0.3-0.7,0.8-1,0.7c-0.4-0.1-0.7-0.6-1.1-1c-0.9-0.9-1.6-2.1-2.7-2.5
		c-1.3-0.5-2.8-0.4-4.6-0.6c0.6,1.5,1.1,2.7,1.7,3.9c0.8,1.8,1.9,2.4,3.9,2.1c1.2-0.2,1.7,0.2,1.6,1.4c0,1.4,0,2.9,0,4.4
		c0.8,0,1.3,0,2,0c0-1.6,0-3.1,0-4.5c0-1,0.5-1.5,1.6-1.3c2.6,0.4,3.3-0.1,4.4-2.3C144.1,155.8,144.5,154.7,145,153.3z M160.5,164.9
		c0-1.4,0-2.8,0-4.2c0-1.3,0.5-1.9,1.9-1.5c1.6,0.5,2.8-0.1,3.6-1.4c0.8-1.3,1.3-2.8,2-4.5c-3.1,0.4-6.3-0.2-7.5,3.6
		c-0.3,0.9-1.2,0.8-1.8-0.1c-2-3.2-3.5-3.9-7.3-3.2c0.6,1.4,1,2.8,1.8,4c0.6,0.8,1.8,1.6,2.8,1.7c2.5,0.3,2.5,0.1,2.5,2.7
		c0,0.6,0,1.2,0,1.8C158.5,165,159.1,165.3,160.5,164.9z"/>
	<path class="st1" d="M95,132.3c0,0.9,0,1.9,0,2.8c0,1.5,0.6,2.4,2,3c2.6,1.2,4.3,3.1,4.3,6.1c0,2.9-1.7,4.7-4.1,6
		c-0.9,0.5-1.9,1.7-1.9,2.6c0,0.9,1,2.1,1.9,2.5c3,1.6,4.4,3.9,4.2,6.9c2.7,1.4,5.2,2.8,7.7,4c0.5,0.2,1.1,0.1,1.7,0.1
		c3.3-0.3,5.8,3,4.4,5.9c-0.5,1.1-0.4,2-0.2,3.1c2.4,9.3-3.2,18.7-12.4,20.9c-9.4,2.3-18.9-3.5-21-12.9c-1.1-4.8-0.2-9.3,2.5-13.4
		c0.2-0.3,0.4-0.7,0.8-1.2c-1.2-0.2-2.2-0.5-3.2-0.5c-0.5,0-1.2,0.3-1.5,0.8c-3.3,4.3-8.4,4.3-11.7,0.1c-0.4-0.5-1.3-0.9-2-0.9
		c-7.6,0.4-14.7,6.7-15.6,14.3c-0.5,3.7-0.3,7.5-0.4,11.2c0,0.6,0,1.2-0.1,1.7c-0.1,0.3-0.5,0.6-0.7,0.8c-0.3-0.3-0.9-0.6-0.8-0.9
		c0.2-5.9-0.9-11.9,1.6-17.5c1.9-4.2,4.9-7.3,9-9.5c0-0.2-0.1-0.3-0.1-0.5c-1.8,0-3.6,0.1-5.3,0c-4.3-0.4-7-4.6-5.6-8.6
		c0.7-1.9,2-3.1,3.8-3.9c1.2-0.5,2.2-1.4,1.9-2.6c-0.2-1-1.1-2.1-2-2.6c-2.5-1.4-4.2-3.3-4.1-6.2c0.1-2.9,1.7-4.7,4.2-6
		c1.8-0.9,2.8-3.6,1.9-5.4c-0.2-0.3-0.7-0.5-1.1-0.6c-2-0.7-4-1.2-6-2c-0.9-0.4-1.7-1-2.4-1.7c-1.3-1.4-1-3.1,0.7-3.9
		c1.3-0.6,2.8-0.8,4.2-1.1c2-0.3,4.1-0.7,6.1-0.7c1.8,0,2.2-0.8,2.4-2.4c0.4-3.3,1.7-6.3,3.9-8.9c2-2.3,4.5-3.6,7.7-3.5
		c2.9,0.1,5.9,0.1,8.8,0c3.6-0.1,6.3,1.5,8.5,4.2c2.1,2.6,3.5,5.6,3.5,9c0,1.2,0.6,1.4,1.6,1.6c2.9,0.3,5.7,0.6,8.5,1.1
		c1.6,0.3,3.6,0.5,3.9,2.7c0.2,2.1-1.5,3-3,3.6C99.4,130.9,97.3,131.5,95,132.3z M103,126.8c-0.1-0.2-0.1-0.4-0.2-0.7
		c-0.8-0.3-1.6-0.6-2.5-0.8c-3.2-0.5-6.4-0.9-9.6-1.2c-1.5-0.1-2-0.8-2-2.2c0.1-3.5-1.2-6.5-3.4-9.2c-1.7-2.1-3.9-3.3-6.7-3.2
		c-3,0.1-6,0-9,0c-2.7,0-4.7,1.1-6.4,3.1c-2.1,2.5-3.1,5.5-3.6,8.6c-0.4,2.6-0.5,2.7-3.2,3c-2.8,0.3-5.6,0.6-8.4,1.1
		c-0.9,0.1-1.7,0.6-3.1,1.1c1.3,0.9,2.1,1.7,3,2c1.8,0.7,3.6,1.4,5.5,1.8c11.2,2.3,22.5,2.5,33.8,1.2c4.5-0.5,8.9-1.9,13.3-3
		C101.4,128.3,102.2,127.4,103,126.8z M74.5,134c-0.3,0.1-0.4,0.1-0.4,0.1c-0.2,0.2-0.3,0.3-0.4,0.5c-2.1,3.1-5,4.4-8.7,4.4
		c-1.5,0-3-0.1-4.6,0c-2.4,0.2-4.1,2-4.3,4.3c-0.2,2.2,1.2,4.5,3.4,4.9c1.7,0.3,2.1,1.1,2.1,2.7c0,5.6,4.4,10,10.1,10.1
		c1.6,0,3.2,0,4.7,0c6.3-0.1,10.5-4.1,10.7-10.4c0-1.4,0.3-2.1,1.8-2.3c2.4-0.5,3.9-2.7,3.7-5c-0.3-2.4-2.2-4.1-4.8-4.2
		c-1,0-2-0.1-3,0C80.4,139.3,76.9,137.9,74.5,134z M107.7,167.7c-5-4.7-14.1-4.4-19.6,0.5c-6,5.4-7,14.6-2.1,20.8
		c5.1,6.6,14.1,8.1,20.9,3.5c5.7-3.8,8.6-12.3,5.6-17.7c-0.6,0.9-1.1,1.6-1.7,2.3c-3.1,3.1-6.2,6.2-9.3,9.3
		c-2.5,2.4-5.3,2.5-7.7,0.1c-1.9-1.8-3.8-3.7-5.6-5.6c-1.9-2-2-4.6-0.3-6.4c1.7-1.8,4.5-1.8,6.4,0.1c1.1,1,2,2.2,3,3.3
		C101,174.4,104.3,171.1,107.7,167.7z M55.9,132.8c-0.1,0.5-0.2,0.9-0.2,1.3c0.3,2.9-0.8,4.8-3.6,5.9c-1.7,0.7-2.7,2.3-2.7,4.2
		c0,2.1,1.2,3.5,3,4.4c1.9,0.8,3.1,2.1,3.1,4.2c0,2.2-1.3,3.4-3.1,4.2c-2.3,1.1-3.3,3.1-3,5.2c0.4,2.1,2.2,3.8,4.5,4
		c1.8,0.2,3.6,0.1,5.4,0.1c2.6,0,5.1,0,7.8,0c0-0.9-0.1-1.5,0-2.1c0.2-1.7-0.3-2.7-1.9-3.6c-3.4-1.9-5.1-5.2-5.5-9.1
		c-0.1-1.1-0.3-1.6-1.4-2c-3.1-1.2-4.6-4-4-7.2c0.6-3,3.1-5,6.3-5.1c1.8,0,3.5,0.1,5.3,0c2.4-0.2,4.3-1.1,5.8-3.2
		C66.5,133.7,61.3,133.3,55.9,132.8z M76.7,134.1c1.6,2.1,3.5,3.1,5.9,3.2c1.5,0.1,3,0,4.6,0c3.8,0,6.2,1.8,6.9,5.2
		c0.7,3.1-1,5.8-4.4,7.3c-0.4,0.2-1,0.8-1,1.3c-0.3,4.8-2.6,8.1-6.8,10.4c-0.4,0.2-0.9,0.8-0.9,1.2c-0.1,1.1,0,2.3,0,3.9
		c2.5-0.2,5.1,0.2,7-0.8c3.3-1.7,6.6-3.3,10.4-3.2c1.1,0,1.3-0.5,1.2-1.4c-0.2-2-1.3-3.4-3.1-4.2c-1.9-0.8-3.1-2.1-3.2-4.2
		c0-2,1.2-3.3,3-4.1c1.9-0.9,3.2-2.3,3.2-4.5c0-2.2-1.3-3.7-3.3-4.6c-2.1-0.9-3-2.5-3-4.7c0-0.8,0-1.6,0-2.3
		C87.7,133.2,82.4,133.6,76.7,134.1z M97.6,186.9c0.9-0.5,1.9-0.8,2.5-1.5c4.2-4.1,8.3-8.2,12.4-12.4c1.5-1.6,1.7-3.1,0.4-4.3
		c-1.2-1.2-2.7-1-4.3,0.6c-3.2,3.2-6.5,6.4-9.7,9.7c-1,1.1-1.8,1.1-2.7,0c-0.9-1-2-2-3-3c-1.4-1.4-3.1-1.5-4.2-0.3
		c-1.1,1.2-1,2.6,0.3,4c1.9,1.9,3.8,3.9,5.7,5.7C95.8,186,96.7,186.3,97.6,186.9z M69.1,162.6c-0.3,2.9-0.3,5.7,2.6,7.3
		c1.8,1,4.1,0.9,5.8-0.5c2.3-1.8,2.1-4.3,1.8-6.9C75.8,162.6,72.6,162.6,69.1,162.6z"/>
	<path class="st0" d="M106.2,100.8c-0.9,0-1.8,0-2.7,0c-4,0-8.1,0.1-12.1,0c-4.3-0.1-7.7-3.3-7.4-7.5c0.4-4.9,1.1-9.8,2.1-14.6
		c1.2-5.4,4.6-9.5,9.5-12.2c-4.4-7.3-4.1-13.2,1-17.3c4.3-3.4,10.3-3.2,14.3,0.5c3.7,3.4,5.5,10.3,0.5,16.5c1.1,0.7,2.2,1.4,3.4,2.1
		c1.8-5.7,5.5-9,11.5-8.9c5.2,0,8.5,3.1,11,9.8c1.3-0.9,2.7-1.8,4.1-2.9c-2.8-3.2-3.9-6.9-2.9-11.1c0.6-2.7,2.1-4.8,4.3-6.4
		c4.3-3.1,10.2-2.7,14,1.1c4.3,4.3,4.5,10.3,0.5,16.1c1.8,1.5,3.7,2.9,5.3,4.5c3.3,3.3,4.8,7.6,5.5,12.1c0.5,3.1,0.9,6.3,1.1,9.4
		c0.4,5.5-2.7,8.8-8.2,8.8c-4.2,0-8.4,0-12.7,0c-0.7,0-1.4,0-2.2,0c0.2,2,0.3,3.7,0.4,5.4c0.4,4.8-2.8,8.6-7.6,8.7
		c-8.4,0.1-16.9,0.3-25.3-0.1c-2.6-0.1-4.2,0.7-5.9,2.2c-2.4,2.1-5.1,2.2-7.1,0.4c-2.2-2-2.4-5.2-0.2-7.3c1.2-1.2,2.3-2.4,3.7-3.3
		C106.1,105.4,106.5,103.5,106.2,100.8z M118,79.6c-2.2-2.4-3.2-5.2-3.4-8.3c-0.1-2-4-3.9-5.8-3c-3.4,1.7-6.8,1.7-10.3,0.1
		c-0.7-0.3-1.7-0.3-2.4,0.1c-4.1,2.2-6.9,5.6-8,10c-1.1,4.6-1.7,9.3-2.3,14c-0.5,3.9,2,6.6,5.9,6.6c4.5,0.1,9,0,13.5,0
		c1.1,0,1.4-0.4,1.6-1.4c0.6-2.6,1.1-5.3,2-7.8C110.5,85.4,113.7,82,118,79.6z M134.6,79.7c0.8,0.4,2,1.5,3.3,1.6
		c4.2,0.5,8.4,0.5,12.6,0.8c2.1,0.1,2.9,1,3,3.2c0.1,3.2,0.3,6.4,0.3,9.7c0,1.3-0.3,2.6-0.5,4c2.9,0,6.1,0.1,9.3,0
		c2.8-0.1,5-2.6,5-5.4c-0.1-5.7-0.7-11.4-2.9-16.7c-1.5-3.7-4-6.7-7.7-8.6c-1-0.5-1.8-0.5-2.8,0.1c-3,1.6-6.2,1.8-9.3,0.3
		c-1.7-0.8-3-0.7-4.3,0.4c-1.2,1.1-2.5,2.1-3.3,3.5C136.2,74.7,135.5,77.1,134.6,79.7z M152,91c-0.1,0-0.2,0-0.3,0
		c0-1.8,0-3.5,0-5.3c0-1.1-0.4-1.7-1.6-1.8c-3.5-0.3-7-0.6-10.5-0.9c-0.4,0-0.8,0.2-1.2,0.4c0.1,0.4,0.2,0.9,0.4,1.2
		c0.8,0.9,1.6,1.8,2.5,2.7c0.7,0.7,0.8,1.3,0,2c-3.5,3.1-7,6.2-10.5,9.3c-0.7,0.6-1.3,0.6-1.9-0.1c-0.9-1-1.8-2-2.7-3
		c-2.2-2.4-3.7-2.5-6.2-0.4c-0.6,0.5-1.2,1-1.7,1.5c-5.5,4.8-11,9.5-16.4,14.3c-1.8,1.6-1.9,3.6-0.4,5.1c1.4,1.4,3.2,1.5,4.9,0.1
		c5.1-4.3,10.1-8.6,15.1-12.9c1-0.9,1.7-1,2.6,0.1c0.7,0.9,1.5,1.7,2.2,2.5c2.5,2.7,4,2.8,6.7,0.4c4.3-3.9,8.5-7.7,12.7-11.6
		c1.1-1,1.8-0.9,2.7,0.2c0.6,0.8,1.3,1.5,2,2.2c0.3,0.2,0.8,0.5,1,0.4c0.3-0.2,0.6-0.7,0.6-1.1C152.1,94.5,152,92.7,152,91z
		 M130,97.2c3.4-3,6.6-5.9,9.7-8.7c-1.1-1.6-2.4-2.9-3-4.5c-0.8-2-3.5-3.5-5.4-2.5c-3.2,1.6-6.5,2-9.6,0.4c-2.1-1.1-3.5-0.4-5.1,0.7
		c-4.1,3.1-6.4,7.4-7.4,12.4c-0.5,2.6-0.9,5.2-1.3,7.8c4.1-3,7.8-6.2,11.6-9.3c2.6-2.1,5.3-1.9,7.6,0.6C128,95,129,96.1,130,97.2z
		 M135.6,71.2c0-5.5-4.3-10.1-9.5-10.1c-5.3-0.1-9.8,4.5-9.8,9.9c0,5.6,4.3,10.2,9.7,10.2C131.2,81.2,135.6,76.7,135.6,71.2z
		 M103.4,67.8c5.1,0.1,9.5-4.3,9.5-9.7c0-5.3-4.2-9.7-9.3-9.8c-5.1-0.1-9.5,4.3-9.6,9.7C94,63.4,98.2,67.8,103.4,67.8z M149.1,67.8
		c5.2,0,9.5-4.3,9.5-9.7c0-5.3-4.3-9.8-9.4-9.8c-5.1,0-9.3,4.4-9.4,9.7C139.7,63.3,143.9,67.8,149.1,67.8z M144.2,98.8
		c-0.2,0-0.4-0.1-0.5-0.1c-3.4,3.1-6.9,6.2-10.3,9.2c-2.6,2.3-5.5,2.1-7.9-0.5c-0.9-1-1.9-2-2.8-3.1c-3.4,2.9-6.7,5.7-9.9,8.5
		c0.1,0.1,0.1,0.3,0.2,0.4c0.6,0,1.2,0,1.9,0c6.6,0,13.1,0,19.7,0c1.7,0,3.4,0.1,5.1-0.1c2.9-0.3,5.1-2.4,5.2-5.3
		C144.8,104.9,144.4,101.9,144.2,98.8z M146.8,96c-1.2,0.4-1.6,1.8-0.9,2.4c1,0.7,2.5,0.7,4.3,1C148.8,98.1,147.9,97.1,146.8,96z"/>
	<path class="st0" d="M192.5,75.2c-0.1,0.2-0.2,0.6-0.4,0.6c-0.4,0-0.9,0-1.1-0.2c-2-2.2-4.1-4.5-6-6.8c-0.2-0.3-0.1-0.8-0.1-1.2
		c0.4,0,0.9-0.1,1.1,0.1c2.1,2.3,4.2,4.7,6.3,7C192.4,74.8,192.4,75,192.5,75.2z"/>
	<path class="st0" d="M72.7,65.3C72.4,65,72,64.8,72,64.6c0-0.4,0.2-0.9,0.5-1.2c1.8-1.5,3.7-3,5.6-4.5c0.4-0.3,0.8-0.7,1.3-0.9
		c0.4-0.1,0.9,0,1.4,0c-0.1,0.5-0.1,1.1-0.4,1.3c-1.6,1.3-3.2,2.5-4.8,3.7c-0.7,0.5-1.3,1.1-2,1.7C73.3,64.9,73,65.1,72.7,65.3z"/>
	<path class="st0" d="M66.9,71c-0.2,0.3-0.3,0.6-0.5,0.8c-1.8,2.2-3.6,4.5-5.4,6.6c-0.3,0.3-0.9,0.3-1.4,0.5c0-0.5-0.1-1.2,0.1-1.5
		c1.7-2.3,3.5-4.5,5.4-6.7c0.3-0.3,0.8-0.5,1.2-0.5C66.4,70.3,66.6,70.8,66.9,71z"/>
	<path class="st0" d="M179.3,62.1c-0.6,0.1-1.2,0.5-1.4,0.3c-2.6-1.7-5.1-3.5-7.6-5.4c-0.2-0.2-0.4-0.8-0.3-1c0.1-0.2,0.8-0.5,1-0.4
		c2.7,1.8,5.3,3.7,7.9,5.5C179,61.3,179.1,61.6,179.3,62.1z"/>
	<path class="st0" d="M55.8,86.5c-0.2,0.4-0.3,0.6-0.4,0.9c-1.2,2.5-2.3,5-3.6,7.4c-0.2,0.4-0.8,0.6-1.2,0.9
		c-0.1-0.5-0.4-1.1-0.2-1.5c1.2-2.6,2.4-5.2,3.7-7.7c0.2-0.4,0.8-0.5,1.2-0.7C55.4,85.7,55.6,86.2,55.8,86.5z"/>
	<path class="st0" d="M209.5,137.9c-0.6,3-1.2,5.9-1.9,8.6c-0.1,0.4-0.7,0.7-1.1,1c-0.2-0.4-0.5-0.9-0.4-1.3c0.5-2.8,1-5.6,1.6-8.4
		c0.1-0.4,0.6-0.7,0.9-1C209,137.1,209.3,137.5,209.5,137.9z"/>
	<path class="st0" d="M201.1,92.6c-0.2-0.4-0.3-0.9-0.5-1.3c-1.3-2.5-2.7-4.9-3.9-7.4c-0.2-0.4,0-1,0-1.5c0.5,0.2,1.2,0.3,1.4,0.7
		c1.4,2.5,2.8,5,4.1,7.5c0.2,0.4,0,1-0.1,1.5C201.8,92.2,201.5,92.4,201.1,92.6z"/>
	<path class="st0" d="M141.5,208.3c0-0.1-0.3-0.6-0.2-1c0-0.3,0.4-0.8,0.6-0.9c3-0.8,6-1.5,9-2.2c0.3-0.1,0.7,0.3,1,0.5
		c-0.2,0.4-0.4,1-0.6,1C148.2,206.6,145.2,207.4,141.5,208.3z"/>
	<path class="st0" d="M113.4,208.4c-3.1-0.7-6-1.4-8.9-2.2c-0.3-0.1-0.6-0.7-0.8-1.1c0.4-0.2,0.9-0.5,1.3-0.4
		c2.8,0.6,5.6,1.2,8.4,1.9c0.4,0.1,0.7,0.6,1,0.9C114.1,207.8,113.7,208.1,113.4,208.4z"/>
	<path class="st0" d="M127.9,207.8c1.3-0.1,2.7-0.2,4-0.2c0.5,0,0.9,0.5,1.3,0.7c-0.4,0.3-0.7,0.8-1.1,0.8c-2.9,0.1-5.7,0.2-8.6,0.1
		c-0.4,0-0.8-0.6-1.2-0.9c0.5-0.2,0.9-0.6,1.4-0.7C125.1,207.6,126.5,207.7,127.9,207.8C127.9,207.7,127.9,207.7,127.9,207.8z"/>
	<path class="st0" d="M208.6,109c-0.3,0.3-0.5,0.8-0.7,0.8c-0.4,0-0.9-0.3-1-0.6c-0.9-2.9-1.6-5.8-2.4-8.8c-0.1-0.3,0.3-0.8,0.5-1.2
		c0.4,0.2,0.9,0.4,1,0.7C206.9,103,207.7,106,208.6,109z"/>
	<path class="st0" d="M44.9,112.7c0.7-3,1.3-5.8,2-8.6c0.1-0.4,0.7-0.6,1.1-0.9c0.2,0.4,0.6,0.9,0.5,1.3c-0.6,2.8-1.2,5.6-1.9,8.4
		c-0.1,0.4-0.6,0.7-0.9,1C45.4,113.4,45.1,113,44.9,112.7z"/>
	<path class="st0" d="M210.2,123.6c0,1.3,0.1,2.7,0,4c0,0.4-0.5,0.8-0.7,1.2c-0.3-0.4-0.8-0.7-0.8-1.1c-0.2-2.9-0.3-5.8-0.3-8.7
		c0-0.4,0.5-0.8,0.7-1.2c0.3,0.4,0.8,0.7,0.9,1.1C210.1,120.5,210.1,122,210.2,123.6z"/>
	<path class="st0" d="M169.1,131.7c3.4,0.1,6.1,2.9,6,6.3c-0.1,3.5-3,6.1-6.5,6c-3.3-0.1-6-2.9-5.9-6.2
		C162.8,134.2,165.6,131.6,169.1,131.7z M169,133.4c-2.5,0-4.5,1.9-4.6,4.3c-0.1,2.4,1.9,4.5,4.4,4.6c2.5,0,4.5-1.9,4.6-4.3
		C173.4,135.5,171.4,133.4,169,133.4z"/>
	<path class="st0" d="M157.7,176.7c-1-1.7-1.9-3.1-2.7-4.7c-0.3-0.5-0.1-1.2-0.1-1.8c0.5,0.3,1.3,0.5,1.6,0.9c1,1.4,1.8,2.9,2.7,4.5
		c0.7-1.5,1.3-2.7,2-4c0.4-0.7,0.5-2,1.7-1.4c0.3,0.1,0.1,1.4-0.1,2.1c-0.6,1.5-1.3,2.8-2,4.4c2.5,1.1,4.3,2.7,4.5,5.5
		c0.1,1.3-0.2,2.5-0.4,3.8c-0.4,3.8-0.1,3.4-3.9,3.5c-1.9,0-3.7,0-5.6,0c-1,0-1.5-0.4-1.6-1.4c-0.2-1.7-0.5-3.4-0.5-5.1
		C153.2,179.8,154.9,177.9,157.7,176.7z M162.9,187.6c0.2-1.7,0.5-3.2,0.6-4.8c0.2-2.3-1.7-4.3-4.1-4.4c-2.3-0.1-4.5,1.7-4.5,4
		c0,1.7,0.3,3.5,0.5,5.2C158,187.6,160.3,187.6,162.9,187.6z"/>
	<path class="st0" d="M136.8,175.3c0.8-1.6,1.4-3,2.1-4.3c0.3-0.4,0.9-0.7,1.4-1c0.1,0.6,0.3,1.3,0.1,1.8c-0.6,1.6-1.4,3.1-2.2,4.7
		c0.6,0.3,1.1,0.6,1.6,1c2.1,1.4,3.1,3.3,2.8,5.8c-0.2,1.5-0.4,3-0.6,4.5c-0.1,1-0.6,1.5-1.6,1.4c-2.6,0-5.2,0.1-7.7-0.1
		c-0.5,0-1.3-0.8-1.4-1.3c-0.3-1.8-0.5-3.6-0.6-5.4c-0.1-2.5,1.3-4.3,4.6-6c-0.7-1.6-1.5-3.1-2-4.7c-0.2-0.5,0.1-1.2,0.2-1.8
		c0.5,0.3,1.1,0.6,1.4,1C135.5,172.4,136.1,173.7,136.8,175.3z M133,187.6c2.6,0,5,0,7.4,0c0.2-1.6,0.5-3.1,0.6-4.6
		c0.2-2.4-1.8-4.6-4.3-4.6c-2.4,0-4.4,2-4.3,4.4C132.5,184.3,132.8,185.9,133,187.6z"/>
	<path class="st0" d="M188.5,155.3c3.3,0.2,4.6,1.4,4.5,3.7c0,0.5-0.5,1-0.8,1.5c-0.3-0.4-0.7-0.9-0.8-1.3c-0.1-1.6-0.9-2.2-2.4-2.1
		c-0.9,0-1.8-0.1-2.6,0c-0.9,0.1-2.2,0.4-2.4,0.9c-0.4,1.1-0.3,2.4,0,3.5c0.1,0.4,1.1,0.8,1.7,0.9c1.3,0.1,2.6,0,3.9,0.1
		c2,0.1,3.2,1.3,3.4,3.3c0.3,3.8-0.6,5-4.6,5.4c0,0.6,0.1,1.3,0,2c-0.1,0.4-0.5,0.7-0.7,1.1c-0.3-0.4-0.7-0.7-0.8-1.1
		c-0.1-0.6,0-1.3,0-2c-0.8-0.1-1.4-0.1-1.9-0.2c-2-0.4-3.2-2.3-2.7-4.2c0.1-0.3,0.5-0.5,0.7-0.8c0.2,0.3,0.6,0.5,0.7,0.8
		c0.7,2.6,0.7,2.6,3.3,2.6c0.5,0,0.9,0,1.4,0c3.4,0.2,3.3-1.4,3-3.9c-0.1-0.6-1.1-1.3-1.8-1.4c-1.3-0.2-2.7,0-4-0.1
		c-2.1-0.1-3.3-1.3-3.3-3.3c0-1.2-0.1-2.7,0.5-3.5c0.8-1.1,2.4-1.6,3.6-2.3c0.1,0.1,0.3,0.3,0.4,0.4c0.1-0.4,0-0.9,0.2-1.3
		c0.2-0.6,0.5-1.2,0.7-1.7c0.3,0.6,0.6,1.2,0.8,1.8C188.5,154.4,188.5,154.8,188.5,155.3z"/>
</g>
</svg>
