<?xml version="1.0" encoding="utf-8"?>
<!-- Generator: Adobe Illustrator 24.3.0, SVG Export Plug-In . SVG Version: 6.00 Build 0)  -->
<svg version="1.1" id="Layer_1" xmlns="http://www.w3.org/2000/svg" xmlns:xlink="http://www.w3.org/1999/xlink" x="0px" y="0px"
	 viewBox="0 0 256 256" style="enable-background:new 0 0 256 256;" xml:space="preserve">
<style type="text/css">
	.st0{fill:#FB9900;}
	.st1{fill:#253582;}
</style>
<g>
	<path class="st1" d="M128,244.6c-64.3,0-116.6-52.3-116.6-116.6C11.4,63.7,63.7,11.4,128,11.4S244.6,63.7,244.6,128
		C244.6,192.3,192.3,244.6,128,244.6z M128,14.2c-62.7,0-113.8,51-113.8,113.8c0,62.7,51,113.8,113.8,113.8s113.8-51,113.8-113.8
		C241.8,65.3,190.7,14.2,128,14.2z"/>
</g>
<path class="st0" d="M74,142.5c0-4.4,0-8.3,0-12.5c1.7,0,3.3,0,4.9,0c2.7,0,3.8-0.7,4.7-3.2c2.1-6.1,4.2-12.3,6.2-18.4
	c0.8-2.3-1.7-4.8-4.1-5.5c-3.8-1.1-7.7-0.5-11.7-1c0-3.8,0-7.4,0.1-11c0-0.5,0.7-1.3,1.2-1.4c1.2-0.2,2.5-0.6,3.5,0.7
	c1.4,1.7,2.8,3.3,4.2,4.9c1.9,2.1,3.8,2.1,5.7-0.1c1.1-1.4,2.3-2.8,3.4-4.2c1-1.3,3.2-1.8,4.5-0.9c0.5,0.4,0.9,1.3,0.9,2
	c0.1,8.4,0.1,16.8,0.1,25.2c0,8.1,0,16.2,0,24.7c-3.3-3.9-7-6.2-11.9-6C80.8,135.9,77.1,138.3,74,142.5z"/>
<path class="st0" d="M129.1,91.3c-0.9,0.6-1.7,1.2-2.6,1.7c-1.7,0.9-3.3-0.1-3.4-2c0-1.3-0.1-2.5-0.1-3.8c0-1.1-0.4-1.5-1.6-1.5
	c-1.5,0-3.1-0.1-4.6-0.4c-3.9-0.8-5.6-3-5.6-7c0-7.1,0.1-14.2,0.1-21.4c0-2.2,2.6-4.9,5-5.4c1.1-0.2,2.2-0.3,3.3-0.3
	c12.9,0,25.9,0,38.8,0c4.8,0,7.9,3.1,7.9,8c0,6.3,0,12.6,0,19c0,4.5-3,7.5-7.5,7.6c-6.5,0-13,0-19.5,0c-1.6,0-3,0.4-4.3,1.4
	 M137,82.1c7,0,14,0,21,0c3.6,0,4.4-0.8,4.4-4.3c0-6.3,0-12.6,0-18.9c0-2.8-0.9-3.8-3.7-3.8c-13.4,0-26.9,0-40.3,0
	c-2.8,0-3.6,0.8-3.6,3.6c0,6.4,0,12.7,0,19.1c0,3.1,1.2,4.3,4.3,4.3c1.9,0,3.8-0.1,5.7,0.1c0.6,0,1.7,0.7,1.7,1
	c-0.2,1.4,0.1,1.6-1,4.5c-0.3,0.1-0.2,0.9-0.2,1.4c0,0.1,0.8,0.3,1,0.2c0.8-0.7,1.5-1.6,2.3-2.1"/>
<path class="st1" d="M174.5,183.2c-4.3,0-8.7-0.1-13,0c-1.6,0-2.3-0.4-2.3-2.2c0.1-3.5,0-7.1,0-10.6c0.1-4.5,3.5-7.9,7.9-8
	c4.9-0.1,9.8-0.1,14.8-0.1c4.4,0,7.8,3.4,7.9,7.8c0.1,3.7,0,7.4,0,11.1c0,1.3-0.6,1.9-1.9,1.9C183.5,183.2,179,183.2,174.5,183.2z"
	/>
<path class="st1" d="M84.1,183.2c-3.9,0-7.8,0-11.7,0c-1.4,0-2-0.6-2-1.9c0-3.7-0.1-7.4,0.1-11.1c0.1-4.3,3.6-7.6,7.9-7.6
	c5,0,10,0,15,0c2,0,3.8,0.7,5.2,2c0.3,0.3,0.4,1.1,0.3,1.7c-0.3,1.7-0.9,3.5-1,5.2c-0.2,3.2-0.1,6.5,0,9.7c0.1,1.6-0.6,2.1-2.1,2.1
	C91.9,183.1,88,183.2,84.1,183.2C84.1,183.2,84.1,183.2,84.1,183.2z"/>
<path class="st1" d="M113.8,183.2c-3.9,0-7.8,0-11.7,0c-1.3,0-2-0.5-2-1.8c0-3.9,0-7.8,0.2-11.6c0.3-4.2,3.3-7.1,7.5-7.2
	c5.2-0.1,10.4-0.1,15.6,0c1.1,0,2.3,0.5,3.3,1c2.2,1.1,2.2,1.4,1.4,3.7c-0.4,1.2-0.6,2.5-0.7,3.7c-0.1,3.4-0.1,6.8,0,10.3
	c0,1.5-0.5,2.1-2,2C121.5,183.1,117.7,183.2,113.8,183.2z"/>
<path class="st1" d="M54.8,183.2c-3.7,0-7.4,0-11.1,0c-2,0-2.4-0.4-2.4-2.3c0-3.6,0-7.2,0-10.8c0.1-4.2,3.5-7.6,7.7-7.7
	c5.2-0.1,10.3,0,15.5,0c0.7,0,1.5,0.1,2.2,0.4c2.8,0.8,3.1,1.7,2.2,4.3c-0.4,1.1-0.6,2.4-0.6,3.5c-0.1,3.4-0.1,6.8,0,10.2
	c0,1.6-0.5,2.3-2.2,2.2C62.4,183.1,58.6,183.2,54.8,183.2z"/>
<path class="st1" d="M143.3,183.1c-3.9,0-7.8,0-11.6,0c-1.5,0-2-0.6-2-2.1c0.1-3.4,0-6.7,0-10.1c0-5.3,3.4-8.6,8.6-8.6
	c4.8,0,9.6,0,14.4,0.1c1.1,0,2.2,0.3,3.2,0.7c2.4,1,2.4,1.5,1.6,3.9c-0.5,1.3-0.7,2.8-0.7,4.2c-0.1,3.1,0,6.1,0,9.2
	c0,2.4-0.2,2.6-2.5,2.6C150.6,183.2,147,183.2,143.3,183.1C143.3,183.2,143.3,183.2,143.3,183.1z"/>
<path class="st1" d="M190.6,165.2c1.8-1.9,3.8-2.7,6.2-2.7c4.8,0,9.6-0.1,14.4,0c4.6,0.1,8,3.4,8.1,8c0.1,3.5,0,7.1,0,10.6
	c0,1.6-0.7,2.1-2.2,2.1c-7.6,0-15.3,0-22.9,0c-1.5,0-2-0.6-1.9-1.9c0.1-2.9,0-5.8,0-8.7C192.3,170,192.1,167.5,190.6,165.2z"/>
<path class="st1" d="M97.5,149.3c0,6.3-5.3,11.6-11.5,11.5c-6.4,0-11.7-5.4-11.6-11.6c0.1-6.1,5.5-11.4,11.5-11.4
	C92.3,137.9,97.5,143,97.5,149.3z"/>
<path class="st1" d="M185.9,149.3c0,6.3-5.2,11.5-11.5,11.5c-6.2,0-11.4-5.3-11.4-11.6c0-6.1,5.2-11.3,11.3-11.4
	C180.7,137.8,186,142.9,185.9,149.3z"/>
<path class="st1" d="M133.5,149.3c0-6.2,5.2-11.4,11.4-11.5c6.4-0.1,11.7,5.2,11.6,11.6c-0.1,6.3-5.2,11.4-11.5,11.4
	C138.8,160.8,133.5,155.5,133.5,149.3z"/>
<path class="st1" d="M104.2,149.2c0-6.2,5.1-11.4,11.3-11.4c6.2,0,11.6,5.2,11.6,11.4c0,6.2-5.3,11.6-11.5,11.6
	C109.3,160.8,104.2,155.6,104.2,149.2z"/>
<path class="st1" d="M215.3,149c0.2,6.2-4.9,11.6-11.2,11.8c-6.1,0.2-11.5-5.1-11.7-11.4c-0.2-6.1,5.1-11.5,11.5-11.6
	C209.9,137.7,215.1,142.8,215.3,149z"/>
<path class="st1" d="M68,149.1c0,6.3-5.1,11.7-11.1,11.7c-6.5,0-11.8-5.3-11.7-11.7c0.1-6.1,5.3-11.3,11.4-11.3
	C62.8,137.8,68,142.9,68,149.1z"/>
<path class="st0" d="M71.5,89.9c0,1.7,0,3.4,0,5.1c0,2.2,0,4.4,0.1,6.6c0,1-0.3,1.6-1.4,1.5c-2.7-0.3-4,1.2-4.8,3.5
	c-0.7,2.1-1.5,4.2-2.4,6.6c2.5,0.5,4.7,1,7,1.5c1.5,0.3,2.9,0.6,4.4,1c2.5,0.6,3.8,2.5,3.3,4.7c-0.5,2.1-2.7,3.3-5.1,2.9
	c-2.1-0.4-4.2-0.9-6.3-1.4c-2.6-0.6-5.2-1.3-7.8-1.6c-3.4-0.5-4.4-4-3.4-6.2c3.2-7.2,6.5-14.3,9.9-21.5
	C66.1,90.3,68.4,89.4,71.5,89.9z"/>
<path class="st1" d="M189.3,126.5c-5.5,0-9.9-4.4-9.8-10c0-5.5,4.4-9.8,10-9.8c5.2,0,9.7,4.7,9.6,9.9
	C199,122.2,194.7,126.5,189.3,126.5z"/>
<path class="st1" d="M164.2,106.7c5.4,0,9.9,4.5,9.9,9.8c0,5.4-4.4,9.9-9.7,10c-5.5,0-9.9-4.3-9.9-9.9
	C154.4,111.2,158.8,106.7,164.2,106.7z"/>
<path class="st1" d="M139.4,126.5c-5.3,0-9.7-4.5-9.7-10c0-5.2,4.5-9.8,9.8-9.8c5.5,0,9.9,4.6,9.9,10.2
	C149.3,122.1,144.7,126.5,139.4,126.5z"/>
<path class="st1" d="M202.7,134.4c0.1,0.8,0,1.3-1.2,1.5c-5.1,1-8.6,4.1-10.5,8.9c-0.3,0.8-0.5,1.5-1.7,1.5c-1.1,0-1.5-0.5-1.8-1.4
	c-1.8-4.7-5.2-7.7-10.1-9c-1.3-0.3-1.4-0.9-1.3-1.9c0.5-3.3,3-5.9,6.4-6c4.5-0.1,9-0.1,13.6,0C199.7,128.2,202.5,131,202.7,134.4z"
	/>
<path class="st0" d="M98.1,61.6c6.3,8.9,0.5,22.1-10.1,23.6c-6.8,0.9-13.6-2.8-16.3-9c-0.4-0.9-0.4-1.5,0.6-2.1
	c1.6-0.9,3.2-1.9,4.9-2.9c1.2,2.5,2.9,4.3,5.9,3.9c2.9-0.3,4.3-2.3,5.6-5c0.2,0.6,0.5,1.1,0.7,1.7c1,2.3,3.3,3.6,5.8,3.2
	c2.4-0.4,4.2-2.4,4.3-4.8c0.1-2.5-1.4-4.7-3.9-5.3c-2.8-0.6-4.7,0.7-6.1,2.8c-1.5,0.2-2.4-0.5-3.4-1.5c-0.8-0.8-2.1-1.2-3.3-1.9
	c0.1-0.3,0.2-0.9,0.3-1.5C88.2,63.7,93.2,63.6,98.1,61.6z M86.7,77.4c-1.4,0-2.9-0.1-4.3,0c-0.6,0-1.5,0.2-1.6,0.6
	c-0.2,0.5,0,1.4,0.3,1.9c1.4,2.2,3.6,2.8,6.1,2.5c2.3-0.3,4.2-1.3,5.3-3.4c0.6-1.1,0.2-1.6-1-1.6C89.9,77.4,88.3,77.4,86.7,77.4z"/>
<path class="st1" d="M175.2,129.5c-0.5,2.1-1,3.5-1.3,5c-0.2,0.9-0.4,1.3-1.4,1.4c-5.3,0.9-8.9,4-10.9,8.9c-0.5,1.2-1.2,1.3-2.2,1.4
	c-1.2,0.1-1.3-0.7-1.6-1.5c-1.2-3-3.3-5.2-5.9-7.1c-0.6-0.4-1.1-1.3-1.1-2c-0.1-4.4,2.6-7.3,6.9-7.4c4.2-0.1,8.5-0.2,12.7,0
	C172.1,128.2,173.7,129,175.2,129.5z"/>
<path class="st0" d="M100.2,91.4c1.8,2.6,3.6,5.2,5.4,7.8c1,1.5,2.1,3,3.1,4.6c0.6,0.9,1.1,0.9,2,0.5c3.1-1.7,6.2-3.3,9.4-4.8
	c0.9-0.4,2.1-0.6,3.1-0.5c1.5,0.3,2.6,1.3,2.9,2.9c0.3,1.7-0.1,3.3-1.8,4.2c-4.5,2.4-9.1,4.8-13.7,7.1c-1.9,0.9-4,0.3-5.3-1.4
	c-1.8-2.4-3.5-4.9-5.2-7.4c-0.2-0.4-0.3-0.9-0.4-1.3c-0.1-0.3,0-0.6,0-0.9c0-3.5,0-7.1,0-10.6C99.9,91.5,100,91.4,100.2,91.4z"/>
<path class="st1" d="M149.9,129.4c-0.6,2.5-1.1,4.4-1.6,6.5c-1.1-0.1-2.4-0.3-3.7-0.2c-5.9,0.4-10.1,3.4-12.4,8.9
	c-0.5,1.1-0.9,1.7-2.2,1.7c-1.3,0-1.3-0.9-1.6-1.7c-0.2-0.5-0.3-1.2-0.7-1.6c-2.2-2.6-1.6-5.7-1.5-8.6c0.2-3.7,3.1-6.3,6.8-6.3
	c4.3,0,8.7,0,13,0.2C147.5,128.3,148.8,129,149.9,129.4z"/>
<path class="st0" d="M60.5,77.7c3.3-5.3,2.7-11,2.7-16.6c0-4.9,3.5-9,8.3-9.9c2.8-0.5,4.9,0.3,6.7,2.7c-1.4,1-2.9,1.9-4.1,3
	c-4.7,4.3-6.7,9.7-5.7,16.1c0.1,0.7-0.3,1.8-0.9,2.4C65.8,77.2,63.5,77.9,60.5,77.7z"/>
<path class="st0" d="M96.4,59.5c-6.5,3-16.6,1.4-19.3-1.9C81.9,53.3,91.6,54.1,96.4,59.5z"/>
<path class="st0" d="M74.8,59.5c1.7,0.9,3.3,1.6,4.9,2.5c0.4,0.2,0.8,1.2,0.6,1.6c-0.8,1.5-1.5,3.1-2.7,4.1c-2,1.7-4.3,3-6.6,4.5
	C69.5,68.7,71.4,62.8,74.8,59.5z"/>
<path class="st0" d="M82.5,72.9c-1.6,0-3-1.2-2.9-2.7c0-1.4,1.5-3,2.8-3c1.6-0.1,3,1.3,3.1,2.9C85.5,71.7,84.2,72.9,82.5,72.9z"/>
<path class="st0" d="M94.2,72.8c-1.6,0-2.8-1.1-2.8-2.6c0-1.8,1.3-3.1,3-3.1c1.5,0,2.9,1.4,2.9,2.9C97.2,71.6,95.9,72.8,94.2,72.8z"
	/>
<path class="st0" d="M85.7,94.8c-1.6-1.8-3-3.4-4.6-5.2c3,0,5.7,0,8.9,0C88.5,91.4,87.2,92.9,85.7,94.8z"/>
<path class="st0" d="M127.6,65.4c1.6,0.1,3.3,1.8,3.2,3.3c0,1.7-1.8,3.5-3.3,3.4c-1.8-0.1-3.5-1.6-3.3-3.1
	C124.5,66.5,125.2,65.4,127.6,65.4z"/>
<path class="st0" d="M146.9,68.6c-0.1-2,0.8-3.1,2.7-3.2c1.9-0.1,3.4,1.1,3.6,3c0.1,2-1.2,3.6-3.3,3.7
	C148.2,72.2,147.1,70.9,146.9,68.6z"/>
<path class="st0" d="M138.6,65.4c1.6,0,3.3,1.6,3.4,3.2c0.1,1.6-1.6,3.4-3.3,3.5c-1.6,0.1-3.4-1.6-3.4-3.2
	C135.2,67.2,136.9,65.5,138.6,65.4z"/>
<polygon class="st0" points="68.4,112.3 65.9,111.6 69.8,104.4 87.3,108.4 80.6,128.9 62,126.8 63,124.6 79.3,126.8 85,109.6 
	71,106.6 "/>
</svg>
