<?xml version="1.0" encoding="utf-8"?>
<!-- Generator: Adobe Illustrator 24.3.0, SVG Export Plug-In . SVG Version: 6.00 Build 0)  -->
<svg version="1.1" id="Layer_1" xmlns="http://www.w3.org/2000/svg" xmlns:xlink="http://www.w3.org/1999/xlink" x="0px" y="0px"
	 viewBox="0 0 256 256" style="enable-background:new 0 0 256 256;" xml:space="preserve">
<style type="text/css">
	.st0{fill:#FB9900;}
	.st1{fill:#253582;}
</style>
<g>
	<path class="st1" d="M128,244.6c-64.3,0-116.6-52.3-116.6-116.6C11.4,63.7,63.7,11.4,128,11.4S244.6,63.7,244.6,128
		C244.6,192.3,192.3,244.6,128,244.6z M128,14.2c-62.7,0-113.8,51-113.8,113.8c0,62.7,51,113.8,113.8,113.8s113.8-51,113.8-113.8
		C241.8,65.3,190.7,14.2,128,14.2z"/>
</g>
<path class="st1" d="M188.4,189.4c-3.5-1-6.7-1.9-10-2.9c-1.4-0.4-2.8-0.8-4.2-1.3c-0.7-0.3-1.2-0.1-1.8,0.3
	c-7.2,5.6-15,10-23.7,12.4c-23.6,6.4-45.4,2.6-65-12.4c-0.7-0.5-1.2-0.6-2-0.4c-4.3,1.3-8.6,2.6-12.9,3.9c-0.2,0.1-0.5,0.1-1,0.2
	c0.2-0.6,0.4-1.1,0.6-1.5c1.6-3.6,3.2-7.3,4.8-10.9c0.1-0.3,0.1-1-0.1-1.2c-8.4-9.5-13.9-20.4-16.3-32.7
	c-3.9-19.9-0.4-38.5,11.1-55.3c11.9-17.4,28.5-27.7,49.3-31.3c2.4-0.4,5-0.2,7.3-0.9c3.5-1,6.8,0,10.2,0.3c3.4,0.3,6.8,0.9,10.1,1.7
	c27.7,6.4,49.6,29,55,56.8c4,20.8-0.6,39.6-12.8,56.8c-1.1,1.6-2.4,3-3.6,4.5c-0.5,0.6-0.6,1.1-0.3,1.8c1.7,3.7,3.4,7.4,5.1,11.1
	C188.1,188.6,188.2,188.9,188.4,189.4z M155.1,160.3c0,7.4,0,14.7,0,22.1c2.4,0,4.7,0,6.9,0c0.8,0,1.1-0.3,1.3-1
	c0.8-3.3,1.8-6.6,2.6-9.9c0.2-0.9,0.6-1.2,1.5-1.1c3.7,0.1,7.4,0.1,11.1,0.1c0.8,0,1.2,0.2,1.5,0.9c0.3,0.7,0.7,1.3,1.2,2.2
	c0.2-0.3,0.3-0.4,0.4-0.6c0.2-0.2,0.4-0.4,0.5-0.6c14.5-18,19.6-38.4,13.9-60.8c-5.7-22.5-19.7-38.3-40.9-47.7
	c-5.1-2.2-10.4-3.7-15.9-4.7c-0.8-0.1-1.6-0.4-2,0.7c1.6,1.4,3.5,2.3,5.6,2.7c1.6,0.3,3.2,0.7,4.8,1.2c35.1,11,55.2,47.5,45.4,82.5
	c-2.1,7.6-5.6,14.7-10.3,21c-0.4,0.5-0.9,1.1-1.4,1.2c-1,0.2-2.1,0.1-3.6,0.1c3.7-2.3,4.3-5.6,4.3-9.2c-0.1-10.9-0.1-21.8-0.1-32.7
	c0-1.4,0-2.8,0-4.2c-17.6,0-35,0-52.6,0c0,6.6,0,13,0,19.5c-0.9,0-1.7,0-2.7,0c0-6.6,0-13.1,0-19.6c-17.5,0-34.9,0-52.3,0
	c0,0.4,0,0.6,0,0.9c0,12.9-0.1,25.8-0.1,38.7c0,2.5,0.7,4.6,2.7,6.2c-0.7,0.3-1.4,0.6-2.2,1c-0.8-1-1.6-1.9-2.3-2.9
	c-10.7-15.5-14.4-32.6-10.7-51.1c5.4-26.9,25.4-47,52.1-52.8c1.9-0.4,3.5-1.4,5.1-2.6c-0.3-0.8-0.8-0.8-1.5-0.7
	c-2.1,0.4-4.2,0.8-6.3,1.3C82,67.5,60.2,93.1,58.1,123.1c-1.2,16.9,3.1,32.3,13.2,46.1c1,1.4,2.2,2.7,3.3,4.2c0.4-0.8,0.8-1.4,1-2
	c0.3-0.8,0.9-1.1,1.8-1.1c3.3,0,6.5,0,9.8,0c2.7,0,2.7,0,3.3,2.6c0.1,0.2,0.1,0.4,0.2,0.7c0.8,3,1.5,6,2.2,9c2.5,0,4.8,0,7.3,0
	c0-7.4,0-14.8,0-22.1c1.4,0,2.7,0,4.1,0c0,0.5,0,0.9,0,1.3c0,6.2,0,12.3,0,18.5c0,2,0,4.1,0.1,6.1c0,0.4,0.5,0.7,0.8,1.1
	c0.3-0.3,0.8-0.6,0.9-1c0.2-0.3,0.1-0.8,0.1-1.2c0-7.9,0-15.7,0-23.6c0-0.4,0-0.8,0-1.2c14.3,0,28.4,0,42.7,0c0,9,0,17.8,0,26.7
	c0.6,0,1.1,0,1.7,0c0-9,0-17.8,0-26.8C152.2,160.3,153.5,160.3,155.1,160.3z M74.4,119.6c6,0,11.8,0,17.8,0c0-0.4,0-0.8,0-1.2
	c0-3.3,0.1-6.5,0-9.8c0-0.7,0.2-1.2,0.8-1.6c2.9-2,5.7-4,8.6-6c0.2-0.1,0.4-0.2,0.7-0.3c0,0.5,0,0.9,0,1.3c0,5.5,0,10.9,0,16.4
	c0,1.4,0,1.4,1.6,1.2c0-0.5,0-0.9,0-1.4c0-10.5,0-20.9,0-31.4c0-1.2,0.3-2,1.4-2.6c7.1-4.7,14.2-9.4,21.3-14.2
	c0.8-0.6,1.5-0.6,2.3,0c6.9,4.6,13.9,9.3,20.9,13.8c1.7,1.1,2.3,2.3,2.3,4.2c-0.1,8.9-0.1,17.8-0.1,26.6c0,1.9,0,3.7,0,5.6
	c0.7,0,1.1,0,1.7,0c0-6.4,0-12.7,0-19.1c3.3,2.1,6.4,4,9.5,6c0.3,0.2,0.4,0.7,0.4,1c0,2.7,0,5.3,0,8c0,1.1,0,2.2,0,3.4
	c6.2,0,12.2,0,18.3,0c0-0.2,0.1-0.3,0.1-0.4c0-4.6,0-9.2,0-13.8c0-0.4-0.4-0.9-0.7-1.1c-4.8-3.1-9.7-6.2-14.6-9.3
	c-0.4-0.2-0.7-0.8-0.7-1.2c-0.1-2.6,0-5.1,0-7.7c0-2.6,0-5.2,0-7.8c-5.9,0-11.7,0-17.5,0c-0.1,0.8-0.1,1.6-0.2,2.5
	c-2.7-1.8-5.2-3.4-7.7-5.1c-0.3-0.2-0.4-0.7-0.4-1.1c0-2.9,0-5.7,0-8.6c0-0.4-0.3-1-0.6-1.3c-3.2-2.1-6.5-4.2-9.7-6.3
	c-1.2-0.8-2.2-0.9-3.5,0c-3.3,2.3-6.8,4.4-10.1,6.6c-0.3,0.2-0.5,0.8-0.5,1.2c0,2.7,0,5.5,0,8.2c0,0.7-0.2,1.1-0.8,1.5
	c-2,1.3-3.9,2.6-5.8,3.9c-0.5,0.3-1,0.7-1.7,1.1c0-1,0-1.8,0-2.7c-5.8,0-11.5,0-17.4,0c0,0.6,0,1.1,0,1.6c0,4-0.1,8,0.1,12
	c0.1,2-0.6,3.1-2.3,4.1c-4.2,2.7-8.3,5.7-12.5,8.5c-0.4,0.3-0.9,0.8-0.9,1.3C74.4,110.3,74.4,114.9,74.4,119.6z M169.7,184.1
	c-1.8-1-3.3-1.1-4.7,0.2c-0.4,0.4-0.9,0.6-1.3,0.9c-22.2,14.4-51.2,14-73-1.1c-1.7-1.2-3-0.7-4.8,0c12.7,9.4,26.8,14.3,42.4,14.2
	C143.6,198.1,157.4,193.5,169.7,184.1z M147.8,114.6c0-1.8,0-3.4,0-5.1c-1.6,0-3.2,0-4.8,0c0,1.7,0,3.4,0,5.1
	C144.5,114.6,146.1,114.6,147.8,114.6z M139.2,87.3c-1.7,0-3.2,0-4.8,0c0,1.7,0,3.4,0,5.1c1.6,0,3.2,0,4.8,0
	C139.2,90.6,139.2,89,139.2,87.3z M147.8,87.3c-1.7,0-3.2,0-4.8,0c0,1.7,0,3.4,0,5.1c1.6,0,3.2,0,4.8,0
	C147.8,90.6,147.8,89,147.8,87.3z M134.4,98.3c0,1.8,0,3.5,0,5.1c1.6,0,3.2,0,4.8,0c0-1.7,0-3.4,0-5.1
	C137.6,98.3,136.1,98.3,134.4,98.3z M143,98.4c0,1.7,0,3.4,0,5.1c1.6,0,3.2,0,4.8,0c0-1.7,0-3.4,0-5.1
	C146.2,98.4,144.6,98.4,143,98.4z M121.6,103.5c0-1.8,0-3.4,0-5.1c-1.6,0-3.1,0-4.7,0c0,1.7,0,3.4,0,5.1
	C118.5,103.5,120,103.5,121.6,103.5z M134.4,109.5c0,1.7,0,3.3,0,5c1.6,0,3.2,0,4.8,0c0-1.7,0-3.3,0-5
	C137.6,109.5,136.1,109.5,134.4,109.5z M116.9,109.5c0,1.7,0,3.3,0,5c1.6,0,3.2,0,4.7,0c0-1.7,0-3.3,0-5
	C120,109.5,118.5,109.5,116.9,109.5z M113.1,92.4c0-1.7,0-3.4,0-5c-1.7,0-3.2,0-4.7,0c0,1.7,0,3.4,0,5
	C110,92.4,111.5,92.4,113.1,92.4z M108.4,98.3c0,1.8,0,3.4,0,5.1c1.6,0,3.1,0,4.7,0c0-1.7,0-3.4,0-5.1
	C111.5,98.3,110,98.3,108.4,98.3z M116.9,92.3c1.7,0,3.2,0,4.7,0c0-1.7,0-3.4,0-5.1c-1.6,0-3.1,0-4.7,0
	C116.9,89,116.9,90.6,116.9,92.3z M113.2,109.5c-1.7,0-3.2,0-4.8,0c0,1.7,0,3.4,0,5c1.6,0,3.2,0,4.8,0
	C113.2,112.8,113.2,111.2,113.2,109.5z M155.1,187.1c0.8,0,1.4,0,2.1,0c0.4-2.3-0.3-3.6-2.1-3.8
	C155.1,184.5,155.1,185.7,155.1,187.1z M100.2,186.9c0-1.2,0-2.4,0-3.6c-0.6,0-1.1,0-1.7,0C98.5,185.8,99.1,187,100.2,186.9z"/>
<path class="st0" d="M86.8,161.4c1.9,0.6,3.7,1.2,5.5,1.7c2.5,0.7,4,2.1,4.5,4.8c0.6,3.1,1.4,6.2,2.2,9.3c0.5,2,0.3,2.9-1.1,3.3
	c-1.9,0.6-3.4,0-3.9-1.8c-0.9-3.2-1.7-6.5-2.5-9.7c-0.1-0.4-0.2-0.7-0.3-1.1c-2.8,0-5.5,0.1-8.2,0c-1.3,0-2.6-0.2-3.7-0.7
	c-1.8-0.7-2.9-2.3-2.9-4.2c0-5.7,0-11.4,0-17c0-2.2,1.4-3.9,3.4-4.6c1.8-0.6,4.1,0.1,5.4,1.7c0.5,0.6,0.8,1.4,0.9,2.1
	c0.2,1.2,0.2,2.5,0.3,3.9c-0.6-0.6-1.1-1.1-1.6-1.6c-1.2-1.1-2.6-1.3-3.8-0.5c-1.3,0.9-1.9,2.5-1.1,4c0.4,0.8,1,1.6,1.7,2.3
	c1.5,1.3,3.1,2.5,4.6,3.8c0.4,0.3,0.7,0.9,0.7,1.3C86.9,159.4,86.8,160.4,86.8,161.4z"/>
<path class="st0" d="M169.1,162c0-1.3,0-2.4,0-3.6c0-0.6,0.2-1,0.7-1.4c1.9-1.5,3.8-3.1,5.5-4.8c1.5-1.4,1.3-2.5,0-4
	c-0.1-0.1-0.1-0.2-0.2-0.3c-2-2.2-3.2-2.1-5,0.2c-0.1,0.2-0.3,0.3-0.4,0.5c-0.1,0-0.2-0.1-0.3-0.1c0.4-1.5,0.6-3.1,1.2-4.5
	c1-2.4,3.2-3.4,5.6-2.9c2.1,0.5,3.6,2.4,3.6,4.8c0,5,0,10,0,15c-0.1,3.7-2.1,5.9-5.7,6.3c-2.7,0.3-5.4,0.4-8.1,0.6
	c-0.9,0.1-1.2,0.4-1.4,1.2c-0.8,3.2-1.7,6.4-2.6,9.6c-0.5,1.9-2.9,2.6-4.4,1.4c-0.4-0.3-0.7-1.2-0.6-1.8c0.8-3.8,1.6-7.5,2.5-11.2
	c0.6-2.7,2.5-4,5.1-4.4C166.1,162.4,167.6,162.2,169.1,162z"/>
<path class="st0" d="M127.7,154.5c10.8,0,21.6,0,32.4,0c0.7,0,1.4,0,2,0.1c1.3,0.2,1.9,1,1.9,2.1c-0.1,1.1-0.8,1.8-2,1.9
	c-1.6,0.1-3.2,0-4.7,0c-20.3,0-40.6,0-60.9,0c-0.7,0-1.4,0-2.1,0c-1.6-0.1-2.5-0.9-2.4-2.2c0.1-1.3,0.7-1.8,2.5-1.8
	C105.4,154.6,116.6,154.6,127.7,154.5C127.7,154.6,127.7,154.5,127.7,154.5z"/>
<path class="st0" d="M106.6,153.2c-2.5,0-5,0-7.5,0c-1.5,0-2-0.6-2.1-2.1c0-3.3,0-6.6,0-9.9c0-1.5,0.8-2.2,2.3-2.2
	c4.8,0,9.7,0,14.5,0c1.6,0,2.2,0.6,2.2,2.2c0,3.4,0,6.8,0,10.1c0,1.4-0.6,1.9-2,1.9C111.6,153.2,109.1,153.2,106.6,153.2
	C106.6,153.2,106.6,153.2,106.6,153.2z M108.4,146.6c0-0.2,0-0.4,0-0.5c-0.5-0.4-0.9-0.9-1.4-1c-0.7-0.2-1.4,0.5-1.4,1.3
	c0.1,0.8,0.5,1.3,1.3,1.2C107.4,147.5,107.9,147,108.4,146.6z"/>
<path class="st0" d="M149.5,153.2c-2.5,0-5,0-7.4,0c-1.5,0-2-0.6-2-2.1c0-3.3-0.1-6.5,0-9.8c0-1.6,0.6-2.2,2.2-2.2c4.7,0,9.3,0,14,0
	c2.1,0,2.6,0.5,2.6,2.6c0,3.1,0,6.2,0,9.3c0,1.7-0.5,2.2-2.3,2.2C154.1,153.2,151.8,153.2,149.5,153.2
	C149.5,153.2,149.5,153.2,149.5,153.2z M149.2,147.6c0.7-0.1,1.2-0.5,1.2-1.4c0-0.9-0.6-1.3-1.4-1.3c-0.8,0-1.4,0.5-1.3,1.3
	C147.7,147,148.2,147.5,149.2,147.6z"/>
<path class="st0" d="M117.2,143.1c7.2,0,14.2,0,21.3,0c-0.5,2.4-0.9,4.6-1.3,6.9c-0.6,3.2-0.7,3.2-3.9,3.2c-4.6,0-9.2,0-13.9,0
	C118.6,149.8,117.9,146.5,117.2,143.1z"/>
<path class="st0" d="M107,137.8c-2.8,0-5-2.1-5-4.9c0-2.6,2.3-4.8,5-4.8c2.8,0,5,2.2,4.9,4.9C111.9,135.7,109.7,137.9,107,137.8z"/>
<path class="st0" d="M168.4,135.3c0-2.7,2.1-4.8,4.9-4.8c2.7,0,4.9,2.2,4.9,4.9c0,2.6-2.3,4.9-4.8,4.9
	C170.5,140.2,168.3,138,168.4,135.3z"/>
<path class="st0" d="M83.2,139.9c-2.7,0-4.8-2-4.9-4.7c0-2.6,2-4.8,4.5-4.8c2.8,0,5,2.1,5,4.7C87.8,137.9,85.8,139.9,83.2,139.9z"/>
<path class="st0" d="M144.4,133c0-2.8,2.1-5,4.7-4.9c2.5,0,4.5,2.3,4.4,5.1c-0.1,2.7-2.1,4.9-4.6,4.8
	C146.5,138,144.4,135.6,144.4,133z"/>
<path class="st0" d="M91.3,155.1c0,1.3-0.7,2-1.6,1.9c-0.4,0-0.8-0.2-1.2-0.4c-2.6-1.3-5-3.1-6.9-5.3c-0.3-0.3-0.6-0.7-0.6-1
	c0-0.6,0.1-1.3,0.4-1.8c0.5-0.6,1.3-0.6,1.9-0.1c0.6,0.5,1.1,1.1,1.7,1.6c1.5,1.2,3.1,2.4,4.6,3.6C90.4,154.1,91,154.7,91.3,155.1z"
	/>
<path class="st0" d="M165.7,157c-0.4-0.9-0.7-1.7-1.1-2.5c3.1-0.8,4.9-3.5,6.9-5.8c1-1.1,1.1-1.1,2.2-0.1c1.4,1.2,1.5,1.9,0.2,3.2
	c-2.1,2.3-4.3,4.4-7.5,5.1C166.2,156.9,165.9,157,165.7,157z"/>
</svg>
