<?xml version="1.0" encoding="utf-8"?>
<!-- Generator: Adobe Illustrator 24.3.0, SVG Export Plug-In . SVG Version: 6.00 Build 0)  -->
<svg version="1.1" id="Layer_1" xmlns="http://www.w3.org/2000/svg" xmlns:xlink="http://www.w3.org/1999/xlink" x="0px" y="0px"
	 viewBox="0 0 256 256" style="enable-background:new 0 0 256 256;" xml:space="preserve">
<style type="text/css">
	.st0{fill:#FB9900;}
	.st1{fill:#253582;}
</style>
<path class="st0" d="M193.5,138.9l-130.9,0c0,2.3,0,4.4,0,6.6c0,2.9,1.5,4.8,4.4,5.4c3.6,0.8,7.2,1.5,10.8,2.3
	c0.7,0.2,1.2,0.5,1.5,1.2c0.6,1.6,1.2,3.1,1.9,4.7c0.4,0.8,0.3,1.4-0.2,2.1c-2,3.1-4.1,6.2-6.1,9.4c-1.5,2.3-1.2,4.8,0.7,6.7
	c4,4,8.1,8.1,12.1,12.1c2,2,4.5,2.2,6.8,0.7c3.1-2,6.3-4,9.4-6.1c0.6-0.4,1.2-0.5,1.9-0.1c1.5,0.7,3,1.3,4.5,1.9
	c0.9,0.3,1.4,0.9,1.6,1.8c0.7,3.5,1.5,7,2.2,10.4c0.7,3.1,2.5,4.5,5.6,4.5c5.6,0,11.2,0,16.8,0c2.8,0,4.8-1.6,5.3-4.4
	c0.8-3.6,1.6-7.3,2.3-10.9c0.1-0.7,0.5-1.1,1.2-1.4c1.5-0.6,3-1.2,4.5-1.9c0.9-0.4,1.6-0.4,2.4,0.2c3,2,6,3.9,9.1,5.9
	c2.5,1.6,4.9,1.3,6.9-0.8c4-4,7.9-7.9,11.9-11.9c2-2,2.3-4.5,0.7-6.9c-2-3.1-3.9-6.1-5.9-9.2c-0.5-0.8-0.5-1.4-0.1-2.3
	c0.7-1.4,1.3-2.8,1.8-4.3c0.3-0.9,0.9-1.4,1.8-1.6c3.5-0.7,7-1.4,10.5-2.3c1-0.2,2-0.7,2.7-1.3c1.2-0.9,1.7-2.3,1.7-3.9
	C193.5,143.5,193.5,141.3,193.5,138.9z M189.7,145.9c0,0.8-0.6,1.1-1.3,1.2c-3.7,0.8-7.3,1.6-11,2.4c-2.1,0.4-3.4,1.7-4.2,3.7
	c-0.5,1.5-1.2,3-1.9,4.5c-0.8,1.8-0.8,3.6,0.3,5.3c2,3.1,4,6.2,6,9.2c0.8,1.3,0.8,1.6-0.3,2.7c-3.8,3.8-7.7,7.7-11.5,11.5
	c-1,1-1.4,1-2.5,0.3c-3.1-2-6.1-3.9-9.2-5.9c-1.8-1.2-3.6-1.3-5.6-0.4c-1.5,0.7-3,1.3-4.6,1.9c-1.9,0.7-3,2-3.5,4
	c-0.8,3.7-1.6,7.3-2.4,11c-0.2,1.1-0.6,1.5-1.8,1.5c-5.6,0-11.1,0-16.7,0c-1.2,0-1.6-0.3-1.9-1.6c-0.8-3.6-1.6-7.2-2.3-10.7
	c-0.4-2.1-1.6-3.4-3.6-4.1c-1.5-0.6-3.1-1.2-4.6-1.9c-1.9-0.8-3.6-0.8-5.3,0.4c-3.1,2-6.2,4-9.4,6c-1,0.7-1.5,0.6-2.4-0.2
	c-4-3.9-7.9-7.9-11.9-11.9c-0.8-0.8-0.8-1.3-0.2-2.2c2-3.1,4-6.2,6-9.3c1.2-1.8,1.3-3.7,0.4-5.6c-0.7-1.4-1.3-2.9-1.8-4.4
	c-0.7-2-2.1-3.2-4.2-3.7c-3.6-0.8-7.2-1.5-10.8-2.3c-1.2-0.3-1.5-0.6-1.5-1.9c0-2.1,0-4.2,0-6.4l123.4-0.1
	C189.7,141.3,189.7,143.6,189.7,145.9z"/>
<path class="st0" d="M105.5,138.9c0.5,10,9.6,21.2,23.3,20.7c13.3-0.5,21.4-11.7,21.6-20.7"/>
<path class="st0" d="M159.2,139.5c-1.1,10-5.6,17.9-14,23.4c-10.6,6.8-21.8,7.2-32.8,1C103,158.4,98,149.9,96.8,139l-3.8,0
	c0.1,0.1,0.1,0.3,0.1,0.5c1.3,16.5,13.9,29.9,30.3,32.1c18.9,2.5,36.3-10.6,39.3-29.4c0.1-0.9,0.3-1.7,0.3-2.6L159.2,139.5z"/>
<g>
	<path class="st1" d="M128,244.6c-64.3,0-116.6-52.3-116.6-116.6C11.4,63.7,63.7,11.4,128,11.4S244.6,63.7,244.6,128
		C244.6,192.3,192.3,244.6,128,244.6z M128,14.2c-62.7,0-113.8,51-113.8,113.8c0,62.7,51,113.8,113.8,113.8s113.8-51,113.8-113.8
		C241.8,65.3,190.7,14.2,128,14.2z"/>
</g>
<path class="st1" d="M203.5,132.9c-0.4-3.5-3.1-5.9-6.6-6c-4.9,0-9.8,0-14.7,0c-0.3,0-0.6,0-1.1,0c0-0.4,0-0.8,0-1.1
	c0-23.5,0-47.1,0-70.6c0-1.9-0.6-2.5-2.5-2.5c-9.6,0-19.2,0-28.7,0c-3.5,0-7.1,0-10.6,0c-1.7,0-2.4,0.6-2.4,2.3c0,1.3,0,2.6,0,3.9
	c0,0.3,0,0.5,0,0.8c-2.2,0-4.3,0-6.4,0c0-0.3,0-0.6,0-0.8c0-1.5,0-3,0-4.5c0-1.2-0.8-2-1.9-2c-5.6,0-11.1,0-16.7,0c-1.2,0-2,0.7-2,2
	c0,0.4,0,0.8,0,1.1c0,1.4,0,2.8,0,4.2c-0.4,0-0.7,0-1,0c-2.3,0-4.7,0-7,0c-1.5,0-2.2,0.7-2.2,2.2c0,3.4,0,6.7,0,10.1
	c0,0.3,0,0.6-0.1,1c-0.4,0-0.7,0-1.1,0c-7,0-14.1,0-21.1,0c-1.9,0-2.5,0.6-2.5,2.5c0,16.8,0,33.5,0,50.3c0,0.3,0,0.6,0,1
	c-0.4,0-0.7,0-1.1,0c-5,0-9.9,0-14.9,0c-2.6,0-4.6,1.2-5.8,3.6c-1.2,2.4-1,4.7,0.6,6.8c1.3,1.8,3.1,2.6,5.3,2.6c1.2,0,2.3,0,3.5,0
	l130.9,0c0.9,0,1.7,0,2.5,0c0.8,0,1.6,0,2.4-0.2C201.7,139.1,203.9,136,203.5,132.9z M140.8,56.5c12.2,0,24.3,0,36.6,0
	c0,0.3,0,0.6,0,0.9c0,22.8,0,45.6,0,68.5c0,0.9-0.3,1-1,1c-4.8,0-9.6,0-14.4,0c-0.3,0-0.6,0-1,0c0-0.5,0-0.8,0-1.2
	c0-11.2,0-22.3,0-33.5c0-1.8-0.6-2.4-2.4-2.4c-5.6,0-11.2,0-16.8,0c-0.3,0-0.6,0-1,0C140.8,78.7,140.8,67.6,140.8,56.5z M157.1,93.7
	c0,11,0,22.1,0,33.2c-12.7,0-25.3,0-37.9,0c0-11.1,0-22.1,0-33.2C131.8,93.7,144.4,93.7,157.1,93.7z M103.4,63.6c0.3,0,0.6,0,0.9,0
	c10.6,0,21.1,0,31.7,0c0.7,0,1,0.2,1,0.9c0,8.2,0,16.3,0,24.5c0,0.5,0,0.9-0.7,0.9c-5.6,0-11.1,0-16.7,0c-0.1,0-0.3,0-0.4,0
	c0-1.3,0-2.5,0-3.8c0.3,0,0.7,0,1,0c2.3,0,4.6,0,6.8,0c1.5,0,2.4-1.3,1.9-2.5c-0.3-0.8-1-1.2-2-1.2c-2.3,0-4.5,0-6.8,0
	c-0.3,0-0.6,0-0.9,0c0-1.2,0-2.3,0-3.5c0.4,0,0.7,0,1.1,0c2.2,0,4.5,0,6.7,0c1.6,0,2.5-1.4,1.8-2.8c-0.4-0.8-1.2-1-2.1-1
	c-2.2,0-4.3,0-6.5,0c-0.2,0-0.4,0-0.6,0c-0.2-0.1-0.5-0.2-0.6-0.4c-0.4-1-1.2-1.3-2.1-1.3c-4.2,0-8.3,0-12.5,0c-0.3,0-0.6,0-1,0
	C103.4,69.9,103.4,66.8,103.4,63.6z M78.8,77c12.1,0,24.3,0,36.5,0c0,16.6,0,33.2,0,49.9c-3.5,0-6.9,0-10.5,0c0-0.3,0-0.6,0-0.9
	c0-2.8,0-5.6,0-8.4c0-1.5-0.7-2.2-2.2-2.2c-3.7,0-7.4,0-11.2,0c-1.5,0-2.2,0.7-2.2,2.2c0,2.8,0,5.5,0,8.3c0,0.3,0,0.6,0,0.9
	c-3.5,0-7,0-10.5,0C78.8,110.2,78.8,93.6,78.8,77z M101,119.2c0,2.5,0,5.1,0,7.6c-2.6,0-5.2,0-7.9,0c0-2.6,0-5.1,0-7.6
	C95.7,119.2,98.3,119.2,101,119.2z M197.3,136.2c-0.3,0-0.5,0-0.8,0c-22.8,0-45.6,0-68.5,0c-22.8,0-45.6,0-68.4,0
	c-0.3,0-0.6,0-0.9,0c-1.3-0.1-2.4-1.2-2.5-2.6c-0.1-1.3,0.8-2.6,2.2-2.8c0.6-0.1,1.2-0.1,1.9-0.1c27.3,0,54.7,0,82,0
	c17.9,0,35.9,0,53.8,0c0.5,0,1,0,1.5,0.1c1.3,0.2,2.3,1.4,2.2,2.7C199.7,134.9,198.7,136,197.3,136.2z"/>
<path class="st1" d="M113.6,59.7c4.4,0,8.7,0,13,0c0-1.2,0-2.3,0-3.5c-4.4,0-8.7,0-13,0C113.6,57.5,113.6,58.6,113.6,59.7z"/>
<path class="st0" d="M168.2,91.6c0-0.5,0-1,0-1.5c0.1-1,0.9-1.7,1.9-1.7c0.9,0,1.7,0.7,1.8,1.6c0.1,1,0.1,2.1,0,3.1
	c-0.1,1-0.9,1.7-1.9,1.7c-1,0-1.8-0.7-1.8-1.7C168.1,92.7,168.2,92.1,168.2,91.6C168.2,91.6,168.2,91.6,168.2,91.6z"/>
<path class="st0" d="M171.9,100.9c0,0.5,0,1,0,1.5c-0.1,1-0.9,1.7-1.8,1.7c-1,0-1.8-0.7-1.9-1.7c-0.1-1-0.1-2.1,0-3.1
	c0.1-1,0.9-1.6,1.8-1.6c0.9,0,1.7,0.6,1.9,1.6C172,99.8,171.9,100.3,171.9,100.9C171.9,100.9,171.9,100.9,171.9,100.9z"/>
<path class="st0" d="M171.9,110.1c0,0.5,0,1,0,1.5c-0.1,1-0.9,1.7-1.9,1.7c-1,0-1.8-0.7-1.9-1.7c-0.1-1-0.1-2,0-3
	c0.1-1,0.9-1.7,1.9-1.7c1,0,1.7,0.6,1.8,1.6C172,109,171.9,109.5,171.9,110.1C171.9,110.1,171.9,110.1,171.9,110.1z"/>
<path class="st0" d="M171.9,82.6c0,0.5,0,1,0,1.5c-0.1,1-0.9,1.6-1.8,1.6c-0.9,0-1.8-0.6-1.9-1.6c-0.1-1.1-0.1-2.1,0-3.2
	c0.1-1,0.9-1.6,1.8-1.6c0.9,0,1.7,0.7,1.9,1.6C172,81.5,171.9,82,171.9,82.6C171.9,82.6,171.9,82.6,171.9,82.6z"/>
<path class="st0" d="M168.2,64.1c0-0.5,0-0.9,0-1.4c0.1-1,0.9-1.7,1.8-1.7c0.9,0,1.8,0.6,1.9,1.6c0.1,1.1,0.1,2.2,0,3.2
	c-0.1,0.9-0.9,1.6-1.8,1.6c-0.9,0-1.7-0.6-1.9-1.6C168.1,65.3,168.2,64.7,168.2,64.1C168.2,64.1,168.2,64.1,168.2,64.1z"/>
<path class="st0" d="M172,73.4c0,0.5,0,1.1-0.1,1.6c-0.1,0.9-0.9,1.5-1.8,1.6c-0.9,0-1.8-0.6-1.8-1.5c-0.1-1.1-0.1-2.2,0-3.3
	c0.1-0.9,0.9-1.6,1.9-1.5c0.9,0,1.7,0.7,1.8,1.7C172,72.4,171.9,72.9,172,73.4C171.9,73.4,171.9,73.4,172,73.4z"/>
<path class="st0" d="M171.9,119.2c0,0.5,0,0.9,0,1.4c-0.1,1-0.9,1.8-1.9,1.8c-1,0-1.8-0.7-1.9-1.7c-0.1-1-0.1-2,0-3
	c0.1-1,0.9-1.7,1.9-1.7c1,0,1.8,0.7,1.9,1.7C172,118.2,171.9,118.7,171.9,119.2C171.9,119.2,171.9,119.2,171.9,119.2z"/>
<path class="st0" d="M149.9,82.6c0,0.5,0,0.9,0,1.4c-0.1,1-0.8,1.7-1.8,1.8c-1,0-1.9-0.6-1.9-1.7c-0.1-1-0.1-2,0-3
	c0.1-1,0.9-1.7,1.9-1.7c1,0,1.8,0.7,1.9,1.8C149.9,81.6,149.9,82.1,149.9,82.6C149.9,82.6,149.9,82.6,149.9,82.6z"/>
<path class="st0" d="M157.2,73.3c0-0.5,0-0.9,0-1.4c0.1-1,0.8-1.7,1.8-1.8c1,0,1.9,0.6,2,1.7c0.1,1,0.1,2,0,3
	c-0.1,1-0.9,1.7-1.9,1.7c-1,0-1.7-0.8-1.8-1.8C157.1,74.3,157.2,73.8,157.2,73.3C157.2,73.3,157.2,73.3,157.2,73.3z"/>
<path class="st0" d="M146.1,73.3c0-0.4,0-0.9,0-1.3c0.1-1.1,0.8-1.8,1.9-1.9c1.1,0,1.8,0.7,1.9,1.8c0,0.9,0,1.8,0,2.8
	c0,1-0.8,1.8-1.9,1.8c-1,0-1.8-0.7-1.9-1.8C146.1,74.3,146.1,73.8,146.1,73.3C146.1,73.3,146.1,73.3,146.1,73.3z"/>
<path class="st0" d="M157.2,82.5c0-0.5,0-0.9,0-1.4c0.1-1,0.8-1.8,1.8-1.8c1,0,1.8,0.7,1.9,1.8c0,0.9,0.1,1.9,0,2.8
	c-0.1,1.1-0.9,1.8-1.9,1.8c-1,0-1.8-0.8-1.8-1.8C157.1,83.4,157.2,83,157.2,82.5z"/>
<path class="st0" d="M149.9,64.2c0,0.5,0,1,0,1.5c-0.1,1-0.9,1.7-1.8,1.7c-0.9,0-1.8-0.7-1.9-1.7c-0.1-1-0.1-2.1,0-3.1
	c0.1-0.9,0.9-1.6,1.8-1.6c1,0,1.8,0.7,1.9,1.7C149.9,63.2,149.9,63.7,149.9,64.2C149.9,64.2,149.9,64.2,149.9,64.2z"/>
<path class="st0" d="M157.2,64.1c0-0.5,0-0.9,0-1.4c0.1-1,0.8-1.7,1.8-1.7c1,0,1.9,0.7,1.9,1.7c0.1,1,0.1,2,0,2.9
	c-0.1,1-0.9,1.8-1.9,1.8c-1,0-1.8-0.8-1.8-1.8C157.1,65.1,157.2,64.6,157.2,64.1C157.2,64.1,157.2,64.1,157.2,64.1z"/>
<path class="st0" d="M95.4,82.3c0-0.5,0-0.9,0-1.4c0.1-1,0.8-1.7,1.8-1.7c1-0.1,1.9,0.6,1.9,1.6c0.1,1.1,0.1,2.2,0,3.2
	c-0.1,1-1,1.6-1.9,1.6c-0.9,0-1.7-0.7-1.8-1.7C95.4,83.4,95.4,82.8,95.4,82.3C95.4,82.3,95.4,82.3,95.4,82.3z"/>
<path class="st0" d="M99.2,91.6c0,0.5,0,0.9,0,1.4c-0.1,1-0.9,1.7-1.8,1.8c-1,0-1.8-0.7-1.9-1.7c-0.1-1-0.1-2,0-3
	c0.1-1,0.9-1.6,1.8-1.7c1,0,1.8,0.6,1.9,1.6C99.2,90.5,99.1,91.1,99.2,91.6C99.1,91.6,99.1,91.6,99.2,91.6z"/>
<path class="st0" d="M99.2,109.9c0,0.5,0,0.9,0,1.4c-0.1,1.1-0.9,1.8-1.9,1.8c-1,0-1.8-0.7-1.8-1.8c-0.1-0.9,0-1.9,0-2.8
	c0.1-1,0.9-1.7,1.8-1.7c1,0,1.8,0.7,1.9,1.6C99.2,108.8,99.1,109.4,99.2,109.9C99.1,109.9,99.1,109.9,99.2,109.9z"/>
<path class="st0" d="M95.4,100.7c0-0.5,0-0.9,0-1.4c0.1-1,0.8-1.7,1.8-1.7c1,0,1.8,0.6,1.9,1.6c0.1,1,0.1,2.1,0,3.2
	c-0.1,1-0.9,1.6-1.9,1.6c-0.9,0-1.7-0.7-1.8-1.6C95.4,101.7,95.4,101.2,95.4,100.7C95.4,100.7,95.4,100.7,95.4,100.7z"/>
<path class="st0" d="M110.2,82.4c0,0.4,0,0.9,0,1.3c0,1-0.8,1.8-1.8,1.8c-0.9,0-1.8-0.6-1.9-1.6c-0.1-1.1-0.1-2.1,0-3.2
	c0.1-1,1-1.7,1.9-1.6c1,0.1,1.7,0.8,1.8,1.8C110.2,81.5,110.1,82,110.2,82.4C110.2,82.4,110.2,82.4,110.2,82.4z"/>
<path class="st0" d="M84.4,100.7c0-0.4,0-0.9,0-1.3c0-1,0.8-1.8,1.8-1.8c1,0,1.9,0.7,1.9,1.7c0.1,1,0.1,2,0,3
	c-0.1,1-0.9,1.7-1.9,1.7c-1,0-1.8-0.7-1.8-1.7C84.3,101.7,84.4,101.2,84.4,100.7C84.4,100.7,84.4,100.7,84.4,100.7z"/>
<path class="st0" d="M110.1,100.8c0,0.5,0,0.9,0,1.4c-0.1,1-0.8,1.7-1.8,1.8c-1,0-1.8-0.6-1.9-1.6c-0.1-1.1-0.1-2.1,0-3.2
	c0.1-1,1-1.6,1.9-1.6c1,0,1.7,0.8,1.8,1.8C110.2,99.8,110.1,100.3,110.1,100.8z"/>
<path class="st0" d="M88.1,109.9c0,0.4,0,0.9,0,1.3c-0.1,1.1-0.8,1.9-1.9,1.9c-1,0-1.8-0.7-1.9-1.8c0-0.9,0-1.8,0-2.8
	c0-1,0.9-1.8,1.9-1.8c1,0,1.8,0.8,1.9,1.8C88.2,108.9,88.1,109.4,88.1,109.9C88.1,109.9,88.1,109.9,88.1,109.9z"/>
<path class="st0" d="M88.1,82.4c0,0.5,0,0.9,0,1.4c-0.1,1.1-0.9,1.8-1.9,1.8c-1,0-1.8-0.8-1.8-1.8c0-0.9,0-1.8,0-2.8
	c0-1,0.8-1.8,1.8-1.8c1,0,1.9,0.8,1.9,1.8C88.2,81.5,88.1,81.9,88.1,82.4z"/>
<path class="st0" d="M110.1,91.6c0,0.5,0,0.9,0,1.4c-0.1,1-0.8,1.7-1.8,1.8c-0.9,0.1-1.9-0.6-1.9-1.6c-0.1-1.1-0.1-2.1,0-3.2
	c0.1-1,1-1.7,1.9-1.6c1,0,1.7,0.8,1.8,1.8C110.2,90.7,110.1,91.1,110.1,91.6z"/>
<path class="st0" d="M110.1,109.9c0,0.4,0,0.9,0,1.3c0,1.1-0.8,1.8-1.8,1.8c-1,0-1.9-0.7-1.9-1.7c-0.1-1-0.1-2,0-3
	c0.1-1,1-1.7,1.9-1.7c1,0,1.7,0.8,1.8,1.9C110.2,109,110.1,109.5,110.1,109.9z"/>
<path class="st0" d="M84.4,91.5c0-0.5,0-0.9,0-1.4c0.1-1,0.9-1.8,1.9-1.8c1,0,1.8,0.7,1.9,1.7c0.1,1,0.1,2,0,3
	c-0.1,1-0.9,1.7-1.9,1.7c-1,0-1.8-0.7-1.9-1.7C84.4,92.6,84.4,92,84.4,91.5C84.4,91.5,84.4,91.5,84.4,91.5z"/>
<path class="st0" d="M144.5,110.3c0,3.2,0,6.5,0,9.7c0,1.4-0.7,2.2-1.8,2.2c-1.2,0-1.9-0.8-1.9-2.2c0-6.3-0.1-12.5-0.1-18.8
	c0-0.3,0-0.7,0-1c0.1-1.1,0.8-1.8,1.8-1.8c1,0,1.9,0.7,1.9,1.8c0.1,1.6,0,3.2,0,4.8C144.5,106.7,144.4,108.5,144.5,110.3
	C144.5,110.3,144.5,110.3,144.5,110.3z"/>
<path class="st0" d="M135.4,110.3c0,3.3,0,6.6,0,9.9c0,0.9-0.4,1.6-1.2,1.9c-0.7,0.3-1.6,0.1-2.1-0.5c-0.3-0.3-0.5-0.8-0.5-1.3
	c0-6.6,0-13.3,0-19.9c0-1.2,0.8-1.9,1.9-2c1.1,0,1.9,0.8,1.9,2C135.4,103.6,135.4,107,135.4,110.3
	C135.4,110.3,135.4,110.3,135.4,110.3z"/>
<path class="st0" d="M153.6,110.3c0,3.3,0,6.5,0,9.8c0,1.2-0.7,2-1.7,2.1c-1.2,0.1-2.1-0.7-2.1-2c0-2.9,0-5.9,0-8.8
	c0-3.6-0.1-7.2,0-10.7c0-0.6,0.3-1.3,0.6-1.7c0.4-0.6,1.2-0.6,1.9-0.4c0.7,0.3,1.2,0.9,1.2,1.7c0,0.9,0,1.8,0,2.8
	C153.6,105.4,153.6,107.9,153.6,110.3C153.6,110.3,153.6,110.3,153.6,110.3z"/>
<path class="st0" d="M126.4,110.2c0,3.3,0,6.6,0,9.9c0,0.9-0.4,1.6-1.2,1.9c-0.7,0.3-1.5,0.2-1.9-0.4c-0.3-0.4-0.6-1-0.6-1.5
	c0-6.6,0-13.2,0.1-19.8c0-1.2,0.8-2,1.8-2c1.1,0,1.9,0.8,1.9,2C126.4,103.6,126.4,106.9,126.4,110.2
	C126.4,110.2,126.4,110.2,126.4,110.2z"/>
<path class="st0" d="M120.2,71.3c-2.3,0-4.6,0-6.8,0c-1,0-1.6-0.5-1.9-1.3c-0.2-0.8-0.1-1.6,0.6-2c0.4-0.3,0.9-0.4,1.4-0.4
	c4.5,0,8.9,0,13.4,0c1.3,0,2.1,0.8,2.1,1.9c0,1.1-0.8,1.9-2.1,1.9C124.6,71.3,122.4,71.3,120.2,71.3z"/>
</svg>
